<svg width="50" height="29" viewBox="0 0 50 29" fill="none" xmlns="http://www.w3.org/2000/svg">
<path d="M40.0774 15.983V3.68294C40.0774 3.44828 40.2084 3.33095 40.405 3.33095H41.2567C41.6497 3.33095 41.6497 3.56561 41.6497 3.68294C41.6497 8.98228 41.5842 15.6076 41.5842 15.983V18.9162C41.5842 19.014 41.6235 19.2096 41.7808 19.2096C42.5451 19.2291 44.1131 19.2565 44.2703 19.2096C44.4276 19.1626 44.4669 18.9945 44.4669 18.9162V15.983V15.904V3.68294C44.4669 3.44828 44.5979 3.33095 44.7945 3.33095H45.6461C46.0392 3.33095 46.0392 3.56561 46.0392 3.68294C46.0392 8.98228 45.9737 15.6076 45.9737 15.983V18.9162C45.9737 19.014 46.013 19.2096 46.1703 19.2096H48.7908C48.8564 19.19 48.9874 19.104 48.9874 18.9162V1.98168C48.9874 0.526805 47.8081 0.163086 47.3495 0.163086H44.6634C43.7462 0.163086 43.4186 0.749728 43.1566 1.10171C42.829 0.749728 42.5014 0.163086 41.5842 0.163086H38.505C38.0246 0.202196 37.0637 0.620668 37.0637 1.98168V18.9162C37.0637 19.014 37.103 19.2096 37.2603 19.2096H39.8809C39.9464 19.19 40.0774 19.104 40.0774 18.9162V15.983Z" fill="#ED386F"/>
<path d="M0 25.4885V0.539202C0 0.0695688 0.25159 0.162574 0.390457 0.186977C1.30152 0.347089 2.87179 1.12035 3.12365 2.71126V23.199C3.17572 23.5747 3.40565 23.6687 3.51411 23.6687H4.3601C4.62041 23.6687 4.72887 23.3556 4.75056 23.199V2.71126C4.75056 2.16463 5.15735 0.759937 7.33272 0.185523C7.6581 0.185524 7.6581 0.361636 7.6581 0.361636V25.487C7.6581 26.9546 6.50761 27.8367 5.53147 27.8367H2.14751C0.911066 27.6605 0 26.3104 0 25.4885Z" fill="#ED386F"/>
<path fill-rule="evenodd" clip-rule="evenodd" d="M18.3423 2.72101C18.3641 1.86837 18.9948 0.163086 20.5608 0.163086H23.6928C24.367 0.201842 25.7155 0.767687 25.7155 2.72101V15.6269C25.7155 15.8207 25.5328 16.3129 25.063 16.4989C25.498 16.7315 26.4333 17.464 26.4333 18.7662C26.4333 20.394 25.1283 21.1497 24.019 21.266H21.2786C21.0176 21.266 21.0176 21.545 21.0176 21.7311C21.0176 21.8473 21.0176 22.1961 21.2786 22.1961C21.3003 22.1961 21.3674 22.1967 21.468 22.1975C21.9709 22.2015 23.3122 22.2123 24.019 22.1961C24.8238 22.2155 26.4333 22.5798 26.4333 24.8122C26.4333 27.0446 24.8238 27.7577 24.019 27.8352H9.66413C9.66413 27.8352 9.33789 27.8585 9.33789 27.7189C9.33789 27.5445 9.85988 25.6842 11.3606 25.5098H22.8445C23.0403 25.5098 23.1708 25.4982 23.1708 24.9866C23.1708 24.5215 23.0403 24.5215 22.8445 24.5215H21.2786H19.7778C18.6033 24.4053 17.8203 23.2771 17.8203 21.7311C17.8203 20.1614 18.7338 19.1731 20.0388 19.115H22.8445C23.0403 19.115 23.1708 18.9639 23.1708 18.5918C23.1708 18.2197 23.0403 18.1267 22.8445 18.1267H20.6913C19.9736 18.0686 18.8904 17.4175 18.4728 16.4408C18.3684 16.0687 18.3423 15.7432 18.3423 15.6269V2.72101ZM21.2615 4.1191V14.3873C21.2615 14.5829 21.3268 14.7144 21.5878 14.7144H22.3708C22.3833 14.7144 22.397 14.7149 22.4116 14.7154C22.549 14.7198 22.7622 14.7268 22.7622 14.3873C22.7622 14.3034 22.7655 13.9708 22.7706 13.4541C22.7882 11.6587 22.8275 7.64113 22.8275 4.1191C22.8275 4.00175 22.8275 3.76705 22.436 3.76705H21.5878C21.392 3.76705 21.2615 3.8844 21.2615 4.1191Z" fill="#ED386F"/>
<path d="M37.0674 21.5257L37.0679 23.1034C37.0679 23.239 37.0529 23.6393 37.3218 23.5542C38.0613 23.434 38.4404 22.6526 38.4124 22.3521V22.1785C38.4124 21.7577 38.7485 21.8262 38.9166 21.8262H39.6488H40.4891C40.8924 21.8262 40.9933 22.1768 40.9933 22.3521L40.9933 23.5542C40.9933 24.0951 40.6567 24.1697 40.4886 24.1697H37.9077H37.6556C37.4595 24.1697 37.0674 24.2749 37.0674 24.6956V27.3107C37.0954 27.486 37.3027 27.8366 37.9077 27.8366H42.4213C42.5558 27.7765 42.5894 27.6863 42.5894 27.6112C42.455 26.8298 41.637 26.4342 41.2449 26.4091H38.664C38.4623 26.4091 38.4119 26.3089 38.4119 26.2589V25.6578C38.4119 25.5376 38.58 25.5076 38.664 25.5076H41.2449C42.0516 25.5076 42.3098 24.6561 42.3378 24.3055L42.3378 21.6008C42.3378 20.7594 41.609 20.4739 41.2449 20.4739H38.3279C37.3195 20.4739 37.0674 21.1751 37.0674 21.5257Z" fill="#ED386F"/>
<path d="M43.6609 21.6008L43.6604 23.1034C43.6604 23.2529 43.694 23.5523 43.8284 23.5542C44.7024 23.6143 45.0329 22.9281 45.0889 22.5775C45.0889 22.5024 45.0894 22.5541 45.0894 22.2536C45.0894 21.9531 45.2575 21.8279 45.3415 21.8028H47.1518C47.3535 21.8028 47.4039 22.0532 47.4039 22.1785C47.4039 22.3287 47.4034 22.4272 47.4034 22.7278C47.4034 23.0283 47.2353 23.1034 47.1513 23.1034H46.6471C46.2438 23.1034 45.5091 23.4039 45.5091 23.5542V24.8314C45.5091 25.0718 46.479 25.1319 46.6471 25.1319H47.1513C47.353 25.1319 47.4034 25.3823 47.4034 25.5076V26.1086C47.4034 26.349 47.2353 26.4091 47.1513 26.4091H45.257C45.0553 26.4091 45.0049 26.2088 45.0049 26.1086V25.5076C44.9209 24.9816 43.9965 24.606 43.8284 24.606C43.694 24.606 43.6604 24.8564 43.6604 24.9816V26.6345C43.6604 27.5962 44.3887 27.8366 44.7528 27.8366H48.0757C48.8152 27.8366 49 27.1354 49 26.7848V25.3573C49 24.6811 48.6639 24.3806 48.1597 24.1552C48.6639 23.9298 49 23.5542 49 23.1034V21.5257C49 20.6842 48.3838 20.4739 48.0757 20.4739H44.7528C43.8789 20.4739 43.6609 21.2502 43.6609 21.6008Z" fill="#ED386F"/>
<path d="M37.0674 21.5257L37.0679 23.1034C37.0679 23.239 37.0529 23.6393 37.3218 23.5542C38.0613 23.434 38.4404 22.6526 38.4124 22.3521V22.1785C38.4124 21.7577 38.7485 21.8262 38.9166 21.8262H39.6488H40.4891C40.8924 21.8262 40.9933 22.1768 40.9933 22.3521L40.9933 23.5542C40.9933 24.0951 40.6567 24.1697 40.4886 24.1697H37.9077H37.6556C37.4595 24.1697 37.0674 24.2749 37.0674 24.6956V27.3107C37.0954 27.486 37.3027 27.8366 37.9077 27.8366H42.4213C42.5558 27.7765 42.5894 27.6863 42.5894 27.6112C42.455 26.8298 41.637 26.4342 41.2449 26.4091H38.664C38.4623 26.4091 38.4119 26.3089 38.4119 26.2589V25.6578C38.4119 25.5376 38.58 25.5076 38.664 25.5076H41.2449C42.0516 25.5076 42.3098 24.6561 42.3378 24.3055L42.3378 21.6008C42.3378 20.7594 41.609 20.4739 41.2449 20.4739H38.3279C37.3195 20.4739 37.0674 21.1751 37.0674 21.5257Z" stroke="#ED386F" stroke-width="0.4"/>
<path d="M43.6609 21.6008L43.6604 23.1034C43.6604 23.2529 43.694 23.5523 43.8284 23.5542C44.7024 23.6143 45.0329 22.9281 45.0889 22.5775C45.0889 22.5024 45.0894 22.5541 45.0894 22.2536C45.0894 21.9531 45.2575 21.8279 45.3415 21.8028H47.1518C47.3535 21.8028 47.4039 22.0532 47.4039 22.1785C47.4039 22.3287 47.4034 22.4272 47.4034 22.7278C47.4034 23.0283 47.2353 23.1034 47.1513 23.1034H46.6471C46.2438 23.1034 45.5091 23.4039 45.5091 23.5542V24.8314C45.5091 25.0718 46.479 25.1319 46.6471 25.1319H47.1513C47.353 25.1319 47.4034 25.3823 47.4034 25.5076V26.1086C47.4034 26.349 47.2353 26.4091 47.1513 26.4091H45.257C45.0553 26.4091 45.0049 26.2088 45.0049 26.1086V25.5076C44.9209 24.9816 43.9965 24.606 43.8284 24.606C43.694 24.606 43.6604 24.8564 43.6604 24.9816V26.6345C43.6604 27.5962 44.3887 27.8366 44.7528 27.8366H48.0757C48.8152 27.8366 49 27.1354 49 26.7848V25.3573C49 24.6811 48.6639 24.3806 48.1597 24.1552C48.6639 23.9298 49 23.5542 49 23.1034V21.5257C49 20.6842 48.3838 20.4739 48.0757 20.4739H44.7528C43.8789 20.4739 43.6609 21.2502 43.6609 21.6008Z" stroke="#ED386F" stroke-width="0.4"/>
<path fill-rule="evenodd" clip-rule="evenodd" d="M28.0708 5.99996C28.0924 5.25958 28.7203 3.77881 30.279 3.77881H33.3964C34.0675 3.81246 35.4098 4.30381 35.4098 5.99996V27.5047C35.4098 27.572 35.3708 27.7168 35.2149 27.7571C35.0591 27.7975 33.5047 27.774 32.7469 27.7571C32.5911 27.7571 32.5521 27.5889 32.5521 27.5047V25.8068C32.5521 25.6049 32.2923 25.588 32.1624 25.6049H31.3831C31.1233 25.6049 31.0583 25.7395 31.0583 25.8068V27.5047C31.0583 27.6663 30.9284 27.7403 30.8635 27.7571H28.2656C28.1098 27.7571 28.0708 27.5889 28.0708 27.5047V5.99996ZM31.0061 7.51932V22.9085C31.0061 23.0687 31.0749 23.1765 31.3501 23.1765H32.1758C32.189 23.1765 32.2035 23.1769 32.2189 23.1772C32.3637 23.1809 32.5886 23.1866 32.5886 22.9085C32.5886 22.8438 32.5916 22.3181 32.5964 21.4879C32.6145 18.3685 32.6574 10.9492 32.6574 7.51932C32.6574 7.42317 32.6574 7.23087 32.2446 7.23087H31.3501C31.1437 7.23087 31.0061 7.32702 31.0061 7.51932Z" fill="#ED386F"/>
<path d="M28.0715 2.16656C28.5302 0.471313 29.6442 0.163086 30.365 0.163086H31.8393H33.3923C34.7028 0.163086 35.4105 1.85834 35.4105 2.16656C35.4105 2.41315 35.1484 2.6289 35.0173 2.6289H28.5302C28.1371 2.6289 28.0715 2.32068 28.0715 2.16656Z" fill="#ED386F"/>
<path fill-rule="evenodd" clip-rule="evenodd" d="M9.39282 0.707763V23.4486V23.4487C9.39285 23.7426 9.39289 24.0952 9.65354 24.1039H13.7598C15.324 24.1039 16.4321 22.9283 16.4321 21.9289V2.76522C16.4321 0.707763 14.6723 0.178704 13.7598 0.178704C13.4246 0.178704 12.9612 0.175473 12.4559 0.17195C11.4659 0.165046 10.3153 0.157022 9.65354 0.169996C9.458 0.189591 9.39282 0.331543 9.39282 0.707763ZM13.6832 5.24041L12.4673 9.67091L15.2615 10.35L13.6832 5.24041ZM11.9791 16.8122L15.2327 11.7572L13.2596 19.3572L11.9791 16.8122ZM12.1221 10.6364L11.9832 11.0566L11.879 11.3719L11.8102 11.0414L11.5463 9.77571C11.106 10.7881 10.6981 11.725 10.2806 12.6843L12.7698 14.0984L12.1221 10.6364ZM12.5068 10.2851L15.2168 10.93L13.2098 14.0807L12.9362 12.6032L12.5068 10.2851ZM11.759 16.3161L12.7445 14.7537L10.373 13.4195C10.6746 14.0486 10.9761 14.6792 11.2847 15.3244L11.2961 15.3483L11.759 16.3161Z" fill="#ED386F"/>
</svg>
