<svg width="45" height="45" viewBox="0 0 45 45" fill="none" xmlns="http://www.w3.org/2000/svg">
<rect x="0.75" y="0.75" width="43.5" height="43.5" fill="#F0E266"/>
<path d="M14.5 21.5H27.67L24.79 18.62C24.4 18.23 24.4 17.6 24.79 17.21C25.18 16.82 25.81 16.82 26.2 17.21L30.79 21.8C31.18 22.19 31.18 22.82 30.79 23.21L26.2 27.8C25.81 28.19 25.18 28.19 24.79 27.8C24.4 27.41 24.4 26.78 24.79 26.39L27.67 23.5H14.5C13.95 23.5 13.5 23.05 13.5 22.5C13.5 21.95 13.95 21.5 14.5 21.5Z" fill="#323232"/>
<rect x="0.75" y="0.75" width="43.5" height="43.5" stroke="black" stroke-width="1.5"/>
</svg>
