<svg width="158" height="156" viewBox="0 0 158 156" fill="none" xmlns="http://www.w3.org/2000/svg">
<path d="M24.3385 84.4549C16.5994 81.6234 11.7928 76.0413 12.1603 70.8636C12.5044 66.0044 17.311 62.8206 18.7473 61.868C25.7461 57.2332 31.6971 60.0412 43.5104 57.669C47.9193 56.7832 52.207 55.3745 56.2829 53.4727" stroke="#FFF200" stroke-width="5.8454" stroke-miterlimit="10"/>
<path d="M104.25 80.5195C108.832 73.6638 115.391 70.313 120.328 71.9075C124.962 73.395 126.91 78.8258 127.493 80.449C130.329 88.3564 126.19 93.4766 125.69 105.526C125.506 110.025 125.856 114.53 126.732 118.947" stroke="#FFF200" stroke-width="5.8454" stroke-miterlimit="10"/>
<path d="M113.926 59.1271C116.725 59.1063 118.824 58.9627 119.587 58.7983L120.369 58.6156C121.365 58.3912 121.495 58.3782 121.673 58.279C122.137 58.018 122.343 57.4961 122.483 56.9742C123.005 55.0639 123.396 50.4238 123.213 50.4238C123.031 50.4238 123.474 55.8468 123.964 56.8854C124.201 57.3902 124.56 57.8285 125.007 58.1616C125.383 58.3918 125.8 58.5477 126.234 58.6209C126.737 58.7018 129.427 58.9158 133.126 59.0541C129.477 59.3907 126.826 59.7143 126.088 59.837C125.598 59.917 125.138 60.1229 124.751 60.4346C124.674 60.5101 124.604 60.5931 124.543 60.6825C124.419 60.8721 124.331 61.0826 124.282 61.3036C124.206 61.6873 123.93 64.0856 123.615 67.3842C123.469 66.3951 123.367 65.5992 123.307 65.0981C123.046 63.0495 123.028 62.2614 122.468 61.3637C122.234 60.9914 121.947 60.6555 121.615 60.3668C121.238 60.1699 120.844 60.0041 120.44 59.8709C119.642 59.6176 118.811 59.4874 117.974 59.4847C117.072 59.4534 115.75 59.3672 113.926 59.1271Z" fill="white" stroke="#231F20" stroke-width="0.391986" stroke-miterlimit="10"/>
<path d="M1 89.691C4.24527 89.6701 6.67726 89.5265 7.56352 89.3621L8.47324 89.1795C9.62798 88.955 9.77656 88.942 9.98248 88.8402C10.5195 88.5792 10.7645 88.0573 10.9209 87.5354C11.5282 85.6251 11.9818 80.985 11.768 80.9824C11.5543 80.9798 12.0756 86.408 12.6387 87.444C12.9313 87.9646 13.3487 88.4041 13.8533 88.7228C14.2979 88.9566 14.7793 89.112 15.2766 89.1821C15.8605 89.263 18.978 89.477 23.2659 89.6153C19.0484 89.9493 15.9673 90.2755 15.1045 90.3982C15.1045 90.3982 14.1088 90.5287 13.5406 90.9958C13.4521 91.0697 13.3717 91.1528 13.3007 91.2437C13.1644 91.4297 13.066 91.6407 13.0114 91.8648C12.9254 92.2485 12.6048 94.6468 12.2294 97.9454C12.0626 96.9537 11.9453 96.1604 11.8749 95.6593C11.6116 93.6055 11.5804 92.8226 10.9287 91.9222C10.651 91.5432 10.319 91.2073 9.94339 90.9253C9.50191 90.7263 9.04622 90.5606 8.58011 90.4295C7.64562 90.1743 6.68143 90.0445 5.71281 90.0433C4.6493 90.012 3.12441 89.9258 1 89.691Z" fill="white" stroke="#231F20" stroke-width="0.391986" stroke-miterlimit="10"/>
<path d="M115.257 17.5801V92.9505L91.125 98.885V23.4049L115.257 17.5801Z" fill="#C1A1CC" stroke="#010101" stroke-width="0.192554" stroke-miterlimit="10"/>
<path d="M91.1249 23.4046V98.8769L48.6836 80.9509L48.8765 6.65039L91.1249 23.4046Z" fill="#855AA5" stroke="#010101" stroke-width="0.192554" stroke-miterlimit="10"/>
<path d="M115.256 17.5794L91.1234 23.4042L48.875 6.64998L71.9855 1L115.256 17.5794Z" fill="#A37EB9" stroke="#010101" stroke-width="0.192554" stroke-miterlimit="10"/>
<path d="M115.003 53.9877L97.5385 97.0293L91.3164 98.5638V91.1262C99.2267 71.771 107.134 52.4158 115.037 33.0605L115.003 53.9877Z" fill="white"/>
<path d="M35.1094 94.7397C35.1978 94.7312 35.2852 94.7137 35.37 94.6875C35.2848 94.7124 35.1976 94.7298 35.1094 94.7397ZM35.1094 94.7397C35.1978 94.7312 35.2852 94.7137 35.37 94.6875C35.2848 94.7124 35.1976 94.7298 35.1094 94.7397ZM35.1094 94.7397C35.1978 94.7312 35.2852 94.7137 35.37 94.6875C35.2848 94.7124 35.1976 94.7298 35.1094 94.7397ZM35.1094 94.7397C35.1978 94.7312 35.2852 94.7137 35.37 94.6875C35.2848 94.7124 35.1976 94.7298 35.1094 94.7397ZM35.1094 94.7397C35.1978 94.7312 35.2852 94.7137 35.37 94.6875C35.2848 94.7124 35.1976 94.7298 35.1094 94.7397ZM35.1094 94.7397C35.1978 94.7312 35.2852 94.7137 35.37 94.6875C35.2848 94.7124 35.1976 94.7298 35.1094 94.7397ZM35.1094 94.7397C35.1978 94.7312 35.2852 94.7137 35.37 94.6875C35.2848 94.7124 35.1976 94.7298 35.1094 94.7397ZM35.1094 94.7397C35.1978 94.7312 35.2852 94.7137 35.37 94.6875C35.2848 94.7124 35.1976 94.7298 35.1094 94.7397ZM35.1094 94.7397C35.1978 94.7312 35.2852 94.7137 35.37 94.6875C35.2848 94.7124 35.1976 94.7298 35.1094 94.7397Z" fill="#352E7E" stroke="#231F20" stroke-width="0.58454" stroke-miterlimit="10"/>
<path d="M80.6605 122.664C80.5544 123.699 80.3305 124.719 79.9932 125.704C79.8392 126.125 79.6536 126.535 79.438 126.928C79.0325 127.716 78.4196 128.377 77.6655 128.841C77.331 129.033 76.9713 129.178 76.5968 129.271C75.6651 129.485 74.7024 129.528 73.7556 129.397C71.0066 129.054 68.3922 128.008 66.165 126.359C63.9093 124.682 61.5364 123.169 59.0645 121.831C55.7511 120.068 52.225 118.738 48.5728 117.875C45.8904 117.246 43.1455 116.924 40.3905 116.915C37.9724 116.904 35.5608 117.167 33.2014 117.697C32.1588 117.935 31.1161 118.248 30.1178 118.572C29.8845 118.677 29.6395 118.754 29.3879 118.801C28.9423 118.944 28.484 119.042 28.0194 119.096C25.8832 119.416 23.7005 119.168 21.6905 118.376C20.1401 117.771 18.8675 116.614 18.1168 115.127C17.4211 113.807 16.9231 112.393 16.6388 110.928C16.2926 109.134 16.1414 107.308 16.1879 105.482C16.201 104.26 16.282 103.04 16.4303 101.828C16.4567 101.411 16.5116 100.997 16.5945 100.588C16.5927 100.426 16.611 100.264 16.6493 100.106C17.1534 96.8077 17.9856 93.5687 19.1334 90.4366C20.1891 87.5294 21.4481 84.7319 23.1554 82.2526C24.2867 80.5877 25.5979 79.121 27.3052 78.0902C27.5189 77.9623 27.7353 77.8423 27.9543 77.7353L28.0585 77.6857C29.1624 77.1535 30.3761 76.8897 31.6009 76.9158C31.9559 76.9221 32.3102 76.95 32.6618 76.9993C34.223 77.2524 35.7175 77.8168 37.0566 78.6591C37.6546 79.0556 38.2723 79.4215 38.9074 79.7552C40.9385 80.6703 43.0597 81.37 45.2363 81.8429C48.1221 82.5523 51.0761 82.9469 54.0467 83.0199C55.2607 83.0591 56.473 82.9004 57.6361 82.5502C59.0765 82.0791 60.6039 81.9365 62.1065 82.1326C64.4994 82.4405 66.6394 83.5731 68.5735 85.366C70.3982 87.0597 71.8188 89.0796 73.057 91.2352C74.2433 93.3259 75.274 95.5013 76.1406 97.7438C78.3924 103.393 79.8885 109.315 80.5902 115.357C80.8881 117.782 80.9117 120.233 80.6605 122.664Z" fill="#352E7E" stroke="#231F20" stroke-width="0.58454" stroke-miterlimit="10"/>
<path d="M28.0469 77.6858C29.1508 77.1539 30.3645 76.8901 31.5893 76.9159C31.9452 76.9223 32.3003 76.9502 32.6528 76.9994C34.213 77.2529 35.7066 77.8173 37.045 78.6592C37.6429 79.0557 38.2606 79.4216 38.8957 79.7553C40.9268 80.6704 43.048 81.3701 45.2246 81.843C48.1105 82.5521 51.0645 82.9468 54.0351 83.02C55.2499 83.0591 56.463 82.9005 57.627 82.5503C59.0675 82.0792 60.5948 81.9366 62.0974 82.1327C64.4877 82.4406 66.6278 83.5732 68.5645 85.3661C70.3892 87.0598 71.8072 89.0797 73.0453 91.2353C74.2317 93.326 75.2623 95.5014 76.129 97.7439C78.382 103.392 79.8782 109.315 80.5785 115.357C80.8817 117.781 80.9105 120.233 80.6645 122.664C80.5575 123.699 80.3327 124.719 79.9946 125.704C79.8406 126.125 79.655 126.535 79.4394 126.928C79.0339 127.716 78.421 128.377 77.6669 128.841L84.4702 125.443C85.3591 124.992 86.0812 124.269 86.5321 123.379C87.2411 122.105 87.5747 120.647 87.7546 119.109C88.0025 116.678 87.9745 114.227 87.6712 111.802C86.9689 105.762 85.4728 99.8404 83.2216 94.1921C82.3555 91.9502 81.3248 89.7756 80.138 87.6861C78.8998 85.5279 77.487 83.5106 75.6546 81.8117C73.7204 80.0189 71.5804 78.8862 69.1875 78.5783C67.6862 78.3801 66.1596 78.521 64.7197 78.9906C63.5558 79.3412 62.3425 79.499 61.1278 79.4578C58.1572 79.3854 55.2033 78.9917 52.3173 78.2834C50.1404 77.8117 48.019 77.1119 45.9884 76.1957C45.3445 75.8929 44.7528 75.4675 44.1377 75.0996C42.7991 74.2562 41.3044 73.6917 39.7429 73.4398C37.8841 73.1574 35.9856 73.5429 34.3836 74.5281L28.0469 77.6858Z" fill="#4F409A" stroke="#231F20" stroke-width="0.58454" stroke-miterlimit="10"/>
<path d="M28.0476 77.6858L27.9453 77.7357" stroke="#231F20" stroke-width="0.58454" stroke-miterlimit="10"/>
<path d="M33.0115 90.1855L31.8516 90.9685" stroke="#231F20" stroke-width="0.58454" stroke-miterlimit="10"/>
<path d="M80.8665 120.484C80.9353 118.687 80.8629 116.888 80.6501 115.103C80.2961 111.937 79.7027 108.802 78.875 105.726L83.3063 94.8906C84.7436 98.5654 85.8651 102.356 86.6584 106.222C84.7243 110.975 82.7936 115.729 80.8665 120.484Z" fill="white"/>
<path d="M31.7734 91.4075C31.9629 91.3062 32.1838 91.281 32.3912 91.337L32.4955 91.3579C33.2775 91.5015 34.0751 91.6502 34.8701 91.799C35.1258 91.8304 35.3594 91.9596 35.5221 92.1595C35.6848 92.3594 35.7641 92.6145 35.7434 92.8715C35.7434 94.0903 35.7434 95.309 35.7434 96.5251C35.7434 96.7182 35.7798 96.7861 35.9779 96.8226C37.1353 97.0314 38.2926 97.2558 39.4526 97.4803C39.7106 97.5099 39.947 97.6384 40.1123 97.8389C40.2775 98.0394 40.3588 98.2963 40.3389 98.5554C40.3389 99.3905 40.3389 100.228 40.3389 101.063V101.087C40.3487 101.201 40.3332 101.316 40.2936 101.424C40.2539 101.532 40.1911 101.63 40.1095 101.711L41.0374 101.061H41.0557L41.087 101.037C41.1094 101.021 41.1296 101.002 41.1469 100.98C41.1655 100.961 41.182 100.94 41.1964 100.917C41.2184 100.885 41.236 100.85 41.2486 100.813C41.2486 100.784 41.2694 100.755 41.2772 100.727C41.3062 100.617 41.3194 100.504 41.3164 100.39V97.8795C41.3369 97.6209 41.2562 97.3644 41.0913 97.1642C40.9264 96.9641 40.6902 96.8359 40.4327 96.807C39.2727 96.5825 38.1128 96.3607 36.958 96.1519C36.8381 96.1284 36.7782 96.0971 36.7521 96.0345C36.7262 95.9773 36.7154 95.9144 36.7208 95.8518C36.7208 94.6357 36.7208 93.417 36.7208 92.1982C36.7409 91.9407 36.6612 91.6852 36.4981 91.485C36.335 91.2848 36.1011 91.1551 35.845 91.123C35.0196 90.9665 34.1941 90.8142 33.3687 90.6663L33.2358 90.6455C33.1689 90.6416 33.1019 90.6416 33.0351 90.6455H32.9699C32.9467 90.6476 32.9239 90.6529 32.9021 90.6611H32.863H32.85H32.8187C32.8054 90.6659 32.7931 90.673 32.7822 90.682L32.7092 90.729L31.7734 91.4075Z" fill="#F8ED2E" stroke="#231F20" stroke-width="0.58454" stroke-miterlimit="10"/>
<path d="M27.2852 95.3246C27.4766 95.2474 27.6879 95.2345 27.8873 95.2881L27.9759 95.3063C29.0707 95.5073 30.1707 95.7109 31.2707 95.9327C31.4532 95.9666 31.5001 95.9327 31.5001 95.7422C31.5001 95.5517 31.5001 95.3037 31.5001 95.0819C30.6295 94.9123 29.7589 94.7505 28.8935 94.5887C28.7516 94.5561 28.6049 94.5499 28.4608 94.5704C28.4188 94.577 28.3777 94.5884 28.3382 94.6043L28.2861 94.6278L28.174 94.7087L27.2852 95.3246Z" fill="#F8ED2E" stroke="#231F20" stroke-width="0.58454" stroke-miterlimit="10"/>
<path d="M59.7539 106.688C60.0515 106.612 60.3625 106.604 60.6636 106.664C61.9461 106.91 62.9731 108.183 62.9861 109.535C62.9992 109.986 62.8677 110.43 62.6108 110.801L62.7489 110.756C62.7925 110.743 62.8352 110.726 62.8767 110.707C62.9292 110.684 62.9805 110.659 63.0305 110.631C63.0722 110.608 63.1113 110.581 63.1504 110.555L63.2051 110.514C63.221 110.506 63.2353 110.496 63.2468 110.482C63.2726 110.465 63.2962 110.445 63.3172 110.422C63.3588 110.389 63.398 110.352 63.4345 110.313C63.471 110.274 63.5101 110.229 63.544 110.185C63.5456 110.179 63.5456 110.172 63.544 110.167C63.5645 110.143 63.5828 110.118 63.5987 110.091C63.6053 110.085 63.6107 110.078 63.6143 110.07C63.6312 110.048 63.646 110.024 63.6587 109.999C63.7245 109.896 63.7778 109.784 63.8177 109.668C63.8407 109.612 63.8598 109.554 63.875 109.496C63.892 109.442 63.9051 109.387 63.9141 109.331C63.9154 109.311 63.9154 109.29 63.9141 109.269C63.9141 109.217 63.9271 109.164 63.9324 109.112C63.9337 109.09 63.9337 109.069 63.9324 109.047C63.9324 108.992 63.9324 108.935 63.9324 108.877V108.846C63.9324 107.484 62.8897 106.21 61.6072 105.975C61.4699 105.948 61.3302 105.934 61.1902 105.934C61.125 105.934 61.0572 105.934 60.9921 105.934C60.9456 105.938 60.8995 105.945 60.8539 105.954H60.8278H60.7757C60.7279 105.963 60.6809 105.975 60.635 105.991H60.5985L60.4838 106.033L60.4056 106.067C60.3281 106.103 60.2532 106.145 60.1814 106.192L60.1188 106.234C60.0902 106.257 60.0589 106.278 60.0302 106.304L59.9703 106.356V106.369C59.9431 106.393 59.9179 106.418 59.8947 106.445C59.8606 106.48 59.8293 106.518 59.8008 106.557L59.7539 106.688Z" fill="#F8ED2E" stroke="#231F20" stroke-width="0.58454" stroke-miterlimit="10"/>
<path d="M62.3242 100.8C62.4126 100.792 62.5 100.774 62.5849 100.748C62.4993 100.771 62.4122 100.789 62.3242 100.8Z" fill="#F8ED2E" stroke="#231F20" stroke-width="0.58454" stroke-miterlimit="10"/>
<path d="M68.0589 106.338L67.7773 106.539C67.8217 106.513 67.866 106.487 67.9077 106.458C67.9494 106.429 67.9728 106.411 68.0067 106.388C68.0406 106.364 68.038 106.364 68.051 106.348C68.0838 106.324 68.1144 106.297 68.1423 106.268C68.1183 106.291 68.0931 106.312 68.0667 106.333L68.0589 106.338Z" fill="#F8ED2E" stroke="#231F20" stroke-width="0.58454" stroke-miterlimit="10"/>
<path d="M67.6731 106.59L67.6094 106.622L67.6758 106.59H67.6731Z" fill="#F8ED2E" stroke="#231F20" stroke-width="0.58454" stroke-miterlimit="10"/>
<path d="M64.7695 102.248L65.1345 102L65.0589 102.042C65.0067 102.073 64.9572 102.104 64.9103 102.138C64.8612 102.172 64.8142 102.209 64.7695 102.248Z" fill="#F8ED2E" stroke="#231F20" stroke-width="0.58454" stroke-miterlimit="10"/>
<path d="M66.913 106.766C66.8296 106.766 66.7462 106.766 66.6523 106.766C66.7391 106.773 66.8263 106.773 66.913 106.766Z" fill="#F8ED2E" stroke="#231F20" stroke-width="0.58454" stroke-miterlimit="10"/>
<path d="M55.0273 100.766C55.3181 100.687 55.6232 100.676 55.9188 100.734C57.1882 100.977 58.2101 102.253 58.2127 103.605C58.2224 104.056 58.0922 104.499 57.8399 104.873C57.8836 104.864 57.9264 104.851 57.9676 104.834C57.9676 104.834 57.9676 104.834 57.9676 104.834C57.9779 104.837 57.9886 104.837 57.9989 104.834V104.834C58.038 104.821 58.0797 104.803 58.1214 104.784C58.1631 104.766 58.1214 104.784 58.1345 104.784C58.1714 104.769 58.2071 104.751 58.2413 104.73C58.2592 104.721 58.2766 104.712 58.2935 104.701L58.3143 104.685H58.33L58.4551 104.597C58.489 104.572 58.5212 104.545 58.5515 104.516C58.5515 104.516 58.5515 104.516 58.5515 104.516C58.5588 104.512 58.5651 104.507 58.5698 104.5C58.6338 104.443 58.6915 104.379 58.7418 104.31C58.7569 104.296 58.7693 104.28 58.7783 104.263C58.8057 104.232 58.8302 104.199 58.8513 104.163L58.8904 104.103C58.955 103.993 59.0099 103.876 59.0546 103.756C59.0709 103.711 59.0848 103.665 59.0963 103.618" stroke="#231F20" stroke-width="0.58454" stroke-miterlimit="10"/>
<path d="M58.3477 104.651C58.3477 104.651 58.3477 104.651 58.3634 104.651L58.4054 104.622C58.432 104.605 58.4574 104.585 58.4814 104.564L58.3477 104.651Z" fill="#F8ED2E" stroke="#231F20" stroke-width="0.58454" stroke-miterlimit="10"/>
<path d="M55.375 100.391C55.4584 100.334 55.5444 100.279 55.6357 100.219C55.5853 100.244 55.5373 100.274 55.4923 100.307C55.4769 100.315 55.4628 100.324 55.4506 100.336C55.4472 100.337 55.4441 100.339 55.4414 100.341C55.4388 100.343 55.4366 100.346 55.435 100.349C55.418 100.357 55.4029 100.369 55.3906 100.383L55.375 100.391Z" fill="#F8ED2E" stroke="#231F20" stroke-width="0.58454" stroke-miterlimit="10"/>
<path d="M26.9736 96.0574C26.9736 96.8664 26.9736 97.6806 26.9736 98.4897C26.948 98.7485 27.0252 99.0071 27.1887 99.2093C27.3521 99.4115 27.5886 99.5411 27.8468 99.5701C28.9885 99.7919 30.1302 100.016 31.2745 100.228C31.457 100.262 31.5039 100.322 31.5039 100.512C31.5039 101.731 31.5039 102.95 31.5039 104.166C31.4847 104.419 31.562 104.669 31.7202 104.867C31.8784 105.066 32.1057 105.196 32.3563 105.233C33.2086 105.405 34.0688 105.575 34.9238 105.737C35.0372 105.771 35.1575 105.774 35.2725 105.746C35.3874 105.718 35.4929 105.66 35.5781 105.578C35.7043 105.423 35.7668 105.226 35.7527 105.027V102.678C35.7527 102.229 35.7527 101.78 35.7527 101.329C35.7527 101.144 35.7918 101.094 35.9821 101.133L36.7641 101.285L39.462 101.807C39.5728 101.84 39.6897 101.849 39.8042 101.832C39.9187 101.814 40.0279 101.772 40.1241 101.707C40.2057 101.627 40.2685 101.529 40.3082 101.421C40.3478 101.313 40.3633 101.198 40.3535 101.084V101.06C40.3535 100.225 40.3535 99.3874 40.3535 98.5523C40.3734 98.2931 40.2921 98.0363 40.1269 97.8358C39.9616 97.6353 39.7252 97.5067 39.4672 97.4771C38.3072 97.2527 37.1499 97.0282 35.9925 96.8195C35.7944 96.7829 35.7553 96.7151 35.7579 96.5219C35.7579 95.3058 35.7579 94.0871 35.7579 92.8684C35.7787 92.6113 35.6994 92.3562 35.5367 92.1563C35.374 91.9565 35.1404 91.8273 34.8847 91.7958C34.0897 91.647 33.2999 91.4983 32.5101 91.3548L32.4058 91.3339C32.1984 91.2779 31.9775 91.3031 31.788 91.4043C31.6841 91.4895 31.6039 91.6001 31.555 91.7253C31.5062 91.8505 31.4904 91.9863 31.5091 92.1194C31.5091 93.1059 31.5091 94.0923 31.5091 95.0788C31.5091 95.3006 31.5091 95.5172 31.5091 95.739C31.5091 95.9609 31.4622 95.9635 31.2797 95.9295C30.1797 95.7077 29.0797 95.5042 27.9849 95.3032L27.8963 95.285C27.697 95.2314 27.4856 95.2442 27.2942 95.3215C27.0674 95.4311 26.9736 95.6712 26.9736 96.0574Z" fill="#F8ED2E" stroke="#231F20" stroke-width="0.58454" stroke-miterlimit="10"/>
<path d="M58.3895 108.67C58.3895 110.004 59.4322 111.28 60.6886 111.541C61.0449 111.625 61.4183 111.601 61.761 111.472C62.1037 111.343 62.4001 111.114 62.6123 110.815C62.8691 110.444 63.0007 110.001 62.9876 109.55C62.9746 108.185 61.945 106.911 60.6651 106.679C60.3639 106.618 60.053 106.626 59.7554 106.702C59.5694 106.749 59.3929 106.827 59.234 106.935H59.2158C58.9445 107.132 58.7269 107.394 58.5826 107.697C58.4382 108 58.3719 108.335 58.3895 108.67Z" fill="#F8ED2E" stroke="#231F20" stroke-width="0.58454" stroke-miterlimit="10"/>
<path d="M53.6562 102.718C53.6562 104.075 54.6754 105.353 55.9318 105.588C56.286 105.672 56.6572 105.648 56.9977 105.52C57.3382 105.391 57.6324 105.163 57.8425 104.865C58.0948 104.491 58.225 104.048 58.2153 103.597C58.2153 102.243 57.1909 100.967 55.9214 100.726C55.6258 100.668 55.3208 100.679 55.03 100.758C54.2193 100.98 53.6562 101.726 53.6562 102.718Z" fill="#F8ED2E" stroke="#231F20" stroke-width="0.58454" stroke-miterlimit="10"/>
<path d="M35.6406 105.505L36.4226 105.001L36.5608 104.904C36.6294 104.826 36.6818 104.735 36.7149 104.637C36.748 104.538 36.7612 104.434 36.7537 104.33V102.504C36.7537 102.329 36.7537 102.154 36.7537 101.982C36.7537 101.752 36.7537 101.522 36.7537 101.29L35.9717 101.139C35.7814 101.099 35.7371 101.139 35.7423 101.334C35.7423 101.786 35.7423 102.235 35.7423 102.684V105.032C35.7488 105.14 35.7337 105.249 35.698 105.351C35.6849 105.404 35.6657 105.456 35.6406 105.505Z" fill="#F8ED2E" stroke="#231F20" stroke-width="0.58454" stroke-miterlimit="10"/>
<path d="M36.7692 96.0078L35.7969 96.7437" stroke="#231F20" stroke-width="0.58454" stroke-miterlimit="10"/>
<path d="M67.7676 106.547L67.0273 107.069" stroke="#231F20" stroke-width="0.58454" stroke-miterlimit="10"/>
<path d="M64.7573 102.258C64.4966 102.438 64.2359 102.623 63.957 102.803L64.7573 102.258Z" fill="#F8ED2E"/>
<path d="M64.7573 102.258C64.4966 102.438 64.2359 102.623 63.957 102.803" stroke="#231F20" stroke-width="0.58454" stroke-miterlimit="10"/>
<path d="M63.3291 110.461L62.2578 111.218" stroke="#231F20" stroke-width="0.58454" stroke-miterlimit="10"/>
<path d="M59.2344 106.915L60.0164 106.393L59.2344 106.915Z" fill="#F8ED2E"/>
<path d="M59.2344 106.915L60.0164 106.393" stroke="#231F20" stroke-width="0.58454" stroke-miterlimit="10"/>
<path d="M60.3962 106.131L60.0234 106.392L60.3962 106.131Z" fill="#F8ED2E"/>
<path d="M60.3962 106.131L60.0234 106.392" stroke="#231F20" stroke-width="0.58454" stroke-miterlimit="10"/>
<path d="M63.1078 100.508L62.0547 101.254" stroke="#231F20" stroke-width="0.58454" stroke-miterlimit="10"/>
<path d="M60.1899 96.1641L59.0117 96.9705L60.1899 96.1641Z" fill="#F8ED2E"/>
<path d="M60.1899 96.1641L59.0117 96.9705" stroke="#231F20" stroke-width="0.58454" stroke-miterlimit="10"/>
<path d="M58.3225 104.668L58.3016 104.684L57.4023 105.323" fill="#F8ED2E"/>
<path d="M58.3225 104.668L58.3016 104.684L57.4023 105.323" stroke="#231F20" stroke-width="0.58454" stroke-miterlimit="10"/>
<path d="M55.3498 100.41L54.4766 101.005L55.3498 100.41Z" fill="#F8ED2E"/>
<path d="M55.3498 100.41L54.4766 101.005" stroke="#231F20" stroke-width="0.58454" stroke-miterlimit="10"/>
<path d="M55.6637 100.203L55.6328 100.223L55.6637 100.203Z" fill="#F8ED2E"/>
<path d="M55.6637 100.203L55.6328 100.223" stroke="#231F20" stroke-width="0.58454" stroke-miterlimit="10"/>
<path d="M59.7344 96.6273C60.0289 96.5493 60.3374 96.5395 60.6363 96.5986C61.9396 96.8387 62.9536 98.1253 62.9536 99.5006C62.9613 99.9458 62.8291 100.382 62.5756 100.748L62.6668 100.722C62.7104 100.709 62.753 100.693 62.7946 100.675L62.8545 100.646C62.9455 100.608 63.0328 100.562 63.1152 100.508H63.1308L63.1569 100.49L63.2273 100.435C63.2343 100.432 63.2406 100.428 63.2455 100.422V100.422L63.3185 100.359C63.3508 100.332 63.3813 100.302 63.4097 100.27C63.4302 100.251 63.4493 100.23 63.4671 100.208C63.4851 100.189 63.5017 100.169 63.5166 100.148L63.5635 100.088C63.5644 100.082 63.5644 100.076 63.5635 100.069C63.5937 100.032 63.6207 99.9916 63.6443 99.9495C63.7064 99.8517 63.758 99.7476 63.7981 99.6389C63.8036 99.6281 63.808 99.6167 63.8112 99.605V99.5789C63.8268 99.5345 63.8424 99.4901 63.8555 99.4432C63.8685 99.3962 63.8841 99.3362 63.8946 99.2788C63.9016 99.2488 63.906 99.2182 63.9076 99.1874" stroke="#231F20" stroke-width="0.58454" stroke-miterlimit="10"/>
<path d="M64.4844 102.566C64.7812 102.487 65.0916 102.474 65.3941 102.527C66.6322 102.73 67.7088 104.017 67.7401 105.338C67.7657 105.822 67.633 106.302 67.3621 106.705L67.5394 106.648L67.6071 106.622L67.6723 106.59L67.7635 106.546L68.045 106.345C68.072 106.325 68.0973 106.304 68.1206 106.28C68.1519 106.248 68.1858 106.217 68.2145 106.183C68.234 106.163 68.2515 106.141 68.2666 106.118C68.2856 106.097 68.303 106.076 68.3187 106.053C68.3533 106.009 68.3846 105.963 68.4126 105.914C68.436 105.873 68.4621 105.831 68.483 105.786C68.5038 105.742 68.5247 105.703 68.5455 105.656V105.63C68.5691 105.577 68.5891 105.523 68.6055 105.468C68.6152 105.443 68.6222 105.417 68.6263 105.39C68.634 105.369 68.6401 105.348 68.6446 105.327C68.6551 105.29 68.663 105.253 68.668 105.215C68.6816 105.155 68.6912 105.094 68.6967 105.032C68.6967 104.972 68.7097 104.91 68.7123 104.842C68.7163 104.778 68.7163 104.715 68.7123 104.651C68.7123 104.568 68.7123 104.487 68.6915 104.403C68.6706 104.32 68.668 104.239 68.6524 104.158C68.6368 104.077 68.6133 103.996 68.5872 103.918C68.5612 103.84 68.5638 103.837 68.5481 103.798C68.5325 103.759 68.4908 103.644 68.4543 103.568C68.4386 103.532 68.4204 103.498 68.4048 103.464C68.3891 103.43 68.3657 103.383 68.3422 103.344L68.2796 103.237C68.2614 103.205 68.2458 103.177 68.2275 103.151C68.1216 102.987 68.0012 102.833 67.8678 102.691L67.7583 102.582C67.7218 102.543 67.6826 102.506 67.641 102.472C67.5967 102.433 67.5498 102.396 67.5029 102.36C67.4777 102.337 67.4507 102.316 67.4221 102.297C67.3796 102.265 67.3352 102.235 67.2891 102.209C67.2614 102.187 67.2317 102.169 67.2005 102.154C67.1669 102.132 67.1321 102.112 67.0962 102.094C67.055 102.07 67.0123 102.049 66.9685 102.031C66.9315 102.011 66.8932 101.994 66.8538 101.979L66.7391 101.937L66.6505 101.908C66.6061 101.894 66.5608 101.881 66.5149 101.872L66.4394 101.854L66.3638 101.841C66.1839 101.81 66.001 101.801 65.819 101.814H65.7486L65.6339 101.833C65.5952 101.837 65.5569 101.844 65.5192 101.854L65.4462 101.875C65.4002 101.886 65.355 101.9 65.3107 101.916C65.2392 101.941 65.1696 101.971 65.1021 102.005L64.7372 102.253C64.7242 102.269 64.7085 102.279 64.6955 102.295L64.6303 102.36L64.6043 102.389C64.5793 102.415 64.5558 102.443 64.5339 102.472L64.4844 102.566Z" fill="#F8ED2E" stroke="#231F20" stroke-width="0.58454" stroke-miterlimit="10"/>
<path d="M58.3477 98.6185C58.3564 99.2874 58.5894 99.9341 59.0091 100.455C59.4288 100.975 60.0111 101.34 60.6624 101.489C61.0176 101.567 61.3878 101.539 61.7274 101.409C62.0669 101.279 62.3609 101.052 62.573 100.756C62.8265 100.39 62.9587 99.9536 62.951 99.5084C62.951 98.1331 61.924 96.8465 60.6337 96.6064C60.3348 96.5473 60.0263 96.5571 59.7318 96.6351C58.9185 96.8465 58.3477 97.6059 58.3477 98.6185Z" fill="#F8ED2E" stroke="#231F20" stroke-width="0.58454" stroke-miterlimit="10"/>
<path d="M63.1117 104.616C63.1482 105.947 64.2143 107.226 65.4577 107.44C65.7233 107.492 65.9971 107.488 66.2612 107.428C66.5253 107.368 66.7737 107.253 66.9904 107.09L67.019 107.069C67.1495 106.966 67.2637 106.843 67.3579 106.706C67.6288 106.304 67.7615 105.824 67.7359 105.339C67.702 104.018 66.6254 102.729 65.3899 102.528C65.0874 102.475 64.777 102.488 64.4802 102.567C64.295 102.618 64.1191 102.699 63.9588 102.805C63.6731 103.007 63.4449 103.281 63.2964 103.598C63.1479 103.916 63.0842 104.266 63.1117 104.616Z" fill="#F8ED2E" stroke="#231F20" stroke-width="0.58454" stroke-miterlimit="10"/>
<path d="M97.3242 29.9251L111.168 26.5508" stroke="#231F20" stroke-width="0.58454" stroke-miterlimit="10"/>
<path d="M97.3242 33.3027L111.168 29.9258" stroke="#231F20" stroke-width="0.58454" stroke-miterlimit="10"/>
<path d="M97.3242 36.6797L111.168 33.3027" stroke="#231F20" stroke-width="0.58454" stroke-miterlimit="10"/>
<path d="M97.3242 92.8418L111.168 89.4648" stroke="#231F20" stroke-width="0.58454" stroke-miterlimit="10"/>
<path d="M106.339 78.8331C106.29 80.3467 105.226 81.8317 103.941 82.184C102.656 82.5363 101.551 81.602 101.551 80.0466C101.551 78.4912 102.674 76.8863 104.032 76.5705C105.39 76.2547 106.389 77.2882 106.339 78.8331Z" stroke="#231F20" stroke-width="0.58454" stroke-miterlimit="10"/>
<path d="M156.731 127.449C156.886 128.681 156.973 129.921 156.992 131.163C157.04 133.021 156.887 134.88 156.535 136.706C156.245 138.199 155.737 139.641 155.026 140.985C154.258 142.5 152.958 143.677 151.377 144.292C149.332 145.099 147.11 145.352 144.936 145.025C144.462 144.97 143.995 144.87 143.541 144.725C143.287 144.676 143.038 144.598 142.801 144.493C141.782 144.161 140.744 143.843 139.673 143.6C137.278 143.063 134.829 142.796 132.374 142.804C129.566 142.813 126.768 143.141 124.033 143.783C120.313 144.658 116.721 146.009 113.346 147.802C110.831 149.164 108.416 150.704 106.12 152.411C103.854 154.092 101.193 155.159 98.3943 155.508C97.4301 155.641 96.4498 155.598 95.5009 155.38C95.1204 155.286 94.7547 155.139 94.414 154.945C93.6471 154.472 93.0235 153.799 92.6102 152.998C92.3901 152.597 92.201 152.18 92.0445 151.75C91.701 150.746 91.4728 149.706 91.3642 148.65C91.1132 146.176 91.1421 143.682 91.4502 141.215C92.1653 135.066 93.6904 129.038 95.9858 123.289C96.8625 121.006 97.908 118.793 99.1137 116.666C100.373 114.471 101.814 112.415 103.675 110.69C105.643 108.865 107.823 107.712 110.257 107.399C111.786 107.199 113.34 107.345 114.806 107.824C115.988 108.181 117.221 108.343 118.455 108.302C121.478 108.228 124.485 107.827 127.422 107.104C129.643 106.624 131.807 105.911 133.879 104.977C134.525 104.638 135.154 104.266 135.763 103.863C137.12 103.007 138.635 102.432 140.218 102.171C140.576 102.121 140.938 102.093 141.3 102.088C142.546 102.06 143.782 102.328 144.905 102.871L145.009 102.923C145.236 103.022 145.455 103.153 145.674 103.283C147.41 104.324 148.744 105.825 149.894 107.519C151.619 110.053 152.902 112.889 153.981 115.854C155.149 119.043 155.996 122.34 156.509 125.698C156.549 125.857 156.567 126.021 156.564 126.186C156.649 126.602 156.705 127.025 156.731 127.449Z" fill="#4F409A"/>
<path d="M136.107 118.07C136.107 118.023 136.107 117.971 136.107 117.921L136.123 117.809C136.121 117.802 136.121 117.795 136.123 117.788C136.123 117.751 136.123 117.712 136.144 117.678C136.164 117.572 136.191 117.466 136.225 117.362C136.23 117.337 136.238 117.313 136.248 117.289C136.264 117.24 136.284 117.19 136.303 117.141L136.365 116.997C136.391 116.94 136.423 116.882 136.454 116.828C136.469 116.794 136.487 116.762 136.506 116.731C136.529 116.692 136.553 116.65 136.582 116.611C136.603 116.575 136.626 116.54 136.652 116.507C136.675 116.473 136.702 116.436 136.73 116.4C136.759 116.363 136.79 116.321 136.821 116.285C136.882 116.212 136.947 116.143 137.017 116.079C137.044 116.047 137.073 116.018 137.106 115.992C137.168 115.935 137.231 115.883 137.296 115.833C137.361 115.784 137.429 115.734 137.499 115.692L137.603 115.63C137.639 115.608 137.675 115.588 137.713 115.57L137.809 115.525C137.836 115.509 137.865 115.496 137.895 115.486C137.92 115.473 137.945 115.463 137.971 115.455C138.018 115.436 138.066 115.419 138.114 115.405L138.224 115.371H138.268H138.312L138.404 115.35C138.631 115.308 138.863 115.302 139.092 115.335L139.196 115.35C139.258 115.363 139.319 115.379 139.379 115.397C139.439 115.417 139.498 115.439 139.556 115.465C139.564 115.464 139.573 115.464 139.582 115.465L139.665 115.504C139.728 115.538 139.789 115.574 139.848 115.614C139.877 115.634 139.906 115.656 139.934 115.679L140.022 115.75L140.095 115.818C140.147 115.868 140.195 115.922 140.239 115.979C140.258 116.003 140.277 116.027 140.293 116.052V116.052C141.112 116.274 141.68 117.034 141.678 118.046C141.669 118.715 141.436 119.362 141.016 119.882C140.596 120.403 140.014 120.767 139.363 120.917C139.007 120.995 138.636 120.968 138.296 120.838C137.956 120.707 137.662 120.48 137.45 120.184C137.419 120.179 137.389 120.17 137.361 120.157C137.317 120.146 137.274 120.13 137.233 120.11L137.171 120.084C137.08 120.045 136.993 119.998 136.91 119.943H136.894C136.885 119.938 136.876 119.931 136.868 119.923C136.843 119.908 136.82 119.89 136.798 119.87C136.792 119.872 136.786 119.872 136.78 119.87C136.78 119.87 136.78 119.87 136.78 119.87L136.707 119.81C136.675 119.782 136.642 119.753 136.613 119.722C136.593 119.701 136.575 119.679 136.558 119.656C136.539 119.639 136.523 119.62 136.509 119.599C136.49 119.578 136.477 119.557 136.462 119.536C136.446 119.515 136.462 119.536 136.449 119.521C136.436 119.505 136.394 119.442 136.368 119.401C136.307 119.302 136.256 119.198 136.214 119.09C136.212 119.079 136.212 119.067 136.214 119.056C136.213 119.047 136.213 119.037 136.214 119.027C136.197 118.984 136.182 118.939 136.17 118.894C136.154 118.84 136.141 118.786 136.131 118.73C136.123 118.699 136.117 118.668 136.115 118.636V118.636M137.478 120.176C137.563 120.203 137.65 120.22 137.739 120.228C137.651 120.218 137.564 120.2 137.478 120.176V120.176ZM137.478 120.176C137.563 120.203 137.65 120.22 137.739 120.228C137.651 120.218 137.564 120.2 137.478 120.176V120.176ZM137.478 120.176C137.563 120.203 137.65 120.22 137.739 120.228C137.651 120.218 137.564 120.2 137.478 120.176V120.176ZM137.478 120.176C137.563 120.203 137.65 120.22 137.739 120.228C137.651 120.218 137.564 120.2 137.478 120.176V120.176ZM156.992 131.163C156.973 129.921 156.886 128.681 156.731 127.449C156.705 127.025 156.649 126.602 156.564 126.186C156.567 126.021 156.549 125.857 156.509 125.698C155.996 122.34 155.149 119.043 153.981 115.854C152.902 112.889 151.619 110.053 149.894 107.519C148.744 105.825 147.41 104.324 145.674 103.283C145.455 103.153 145.236 103.022 145.009 102.923L144.905 102.871C143.782 102.328 142.546 102.06 141.3 102.088C140.938 102.093 140.576 102.121 140.218 102.171C138.635 102.432 137.12 103.007 135.763 103.863C135.154 104.266 134.525 104.638 133.879 104.977C131.807 105.911 129.643 106.624 127.422 107.104C124.485 107.827 121.478 108.228 118.455 108.302C117.221 108.343 115.988 108.181 114.806 107.824C113.34 107.345 111.786 107.199 110.257 107.399C107.823 107.712 105.643 108.865 103.675 110.69C101.814 112.415 100.373 114.471 99.1137 116.666C97.908 118.793 96.8625 121.006 95.9858 123.289C93.6904 129.038 92.1653 135.066 91.4502 141.215C91.1421 143.682 91.1132 146.176 91.3642 148.65C91.4728 149.706 91.701 150.746 92.0445 151.75C92.201 152.18 92.3901 152.597 92.6102 152.998C93.0235 153.799 93.6471 154.472 94.414 154.945C94.7547 155.139 95.1204 155.286 95.5009 155.38C96.4498 155.598 97.4301 155.641 98.3943 155.508C101.193 155.159 103.854 154.092 106.12 152.411C108.416 150.704 110.831 149.164 113.346 147.802C116.721 146.009 120.313 144.658 124.033 143.783C126.768 143.141 129.566 142.813 132.374 142.804C134.829 142.796 137.278 143.063 139.673 143.6C140.744 143.843 141.782 144.161 142.801 144.493C143.038 144.598 143.287 144.676 143.541 144.725C143.995 144.87 144.462 144.97 144.936 145.025C147.11 145.352 149.332 145.099 151.377 144.292C152.958 143.677 154.258 142.5 155.026 140.985C155.737 139.641 156.245 138.199 156.535 136.706C156.887 134.88 157.04 133.021 156.992 131.163V131.163ZM118.007 129.137C118.032 129.396 117.955 129.655 117.792 129.857C117.628 130.059 117.392 130.189 117.133 130.218C115.994 130.437 114.85 130.664 113.706 130.873C113.523 130.907 113.476 130.969 113.476 131.157C113.476 132.376 113.476 133.597 113.476 134.811C113.495 135.063 113.418 135.314 113.26 135.512C113.102 135.709 112.874 135.839 112.624 135.876C111.772 136.05 110.914 136.22 110.056 136.382C109.943 136.416 109.823 136.419 109.708 136.391C109.593 136.363 109.487 136.305 109.402 136.223L108.563 135.638C108.511 135.616 108.465 135.584 108.425 135.544C108.356 135.466 108.304 135.375 108.271 135.277C108.237 135.178 108.224 135.074 108.232 134.97V132.621C108.232 132.392 108.232 132.162 108.232 131.93L105.534 132.452C105.423 132.485 105.306 132.494 105.192 132.477C105.077 132.46 104.968 132.417 104.872 132.353L103.944 131.7H103.928L103.894 131.674H103.881C103.859 131.657 103.839 131.638 103.821 131.617C103.803 131.598 103.788 131.577 103.774 131.554C103.751 131.521 103.733 131.485 103.72 131.447C103.708 131.419 103.699 131.39 103.691 131.361C103.662 131.252 103.649 131.139 103.652 131.027C103.652 130.189 103.652 129.354 103.652 128.516C103.63 128.258 103.71 128.001 103.874 127.801C104.039 127.6 104.275 127.472 104.533 127.444C105.693 127.219 106.853 126.995 108.008 126.789C108.128 126.765 108.187 126.734 108.216 126.669C108.24 126.612 108.25 126.55 108.245 126.489C108.245 125.272 108.245 124.051 108.245 122.835C108.224 122.577 108.304 122.322 108.467 122.121C108.63 121.921 108.864 121.791 109.121 121.76C109.946 121.603 110.772 121.451 111.597 121.303L111.73 121.282C111.797 121.276 111.864 121.276 111.931 121.282H111.996L112.064 121.295L112.103 121.308H112.116H112.147C112.16 121.312 112.172 121.318 112.183 121.327C112.21 121.34 112.234 121.357 112.256 121.376V121.376L113.205 122.034C113.31 122.119 113.39 122.229 113.44 122.354C113.489 122.48 113.505 122.616 113.487 122.749C113.487 123.735 113.487 124.724 113.487 125.711C114.357 125.541 115.228 125.379 116.093 125.215C116.236 125.184 116.382 125.179 116.526 125.199C116.569 125.204 116.61 125.215 116.649 125.233L116.701 125.254L116.813 125.335L117.699 125.964C117.91 126.071 118.012 126.311 118.012 126.695C118.009 127.514 118.009 128.326 118.007 129.137V129.137Z" stroke="#231F20" stroke-width="0.58454" stroke-miterlimit="10"/>
<path d="M113.212 122.051C113.022 121.95 112.801 121.926 112.594 121.983L112.49 122.001L110.115 122.442C109.86 122.474 109.626 122.603 109.463 122.803C109.3 123.003 109.221 123.258 109.242 123.515C109.242 124.736 109.242 125.955 109.242 127.168C109.242 127.364 109.205 127.429 109.007 127.468C107.85 127.677 106.693 127.902 105.533 128.123C105.275 128.153 105.038 128.282 104.873 128.482C104.708 128.683 104.627 128.939 104.646 129.199C104.646 130.034 104.646 130.871 104.646 131.707V131.733C104.637 131.847 104.652 131.962 104.692 132.07C104.731 132.178 104.794 132.276 104.876 132.356L103.948 131.704H103.932L103.898 131.678H103.885C103.863 131.661 103.843 131.642 103.825 131.62C103.807 131.601 103.792 131.58 103.778 131.558C103.755 131.525 103.737 131.489 103.724 131.451C103.712 131.423 103.703 131.394 103.695 131.365C103.666 131.256 103.653 131.143 103.656 131.031C103.656 130.193 103.656 129.358 103.656 128.52C103.634 128.262 103.714 128.005 103.878 127.804C104.043 127.604 104.279 127.476 104.537 127.448C105.697 127.223 106.857 126.999 108.012 126.793C108.132 126.769 108.191 126.738 108.22 126.672C108.244 126.616 108.254 126.554 108.249 126.492C108.249 125.276 108.249 124.055 108.249 122.839C108.228 122.581 108.308 122.325 108.471 122.125C108.634 121.925 108.868 121.795 109.125 121.764C109.95 121.607 110.776 121.455 111.601 121.307L111.734 121.286C111.801 121.28 111.868 121.28 111.935 121.286H112L112.068 121.299L112.107 121.312H112.12H112.151C112.164 121.316 112.176 121.322 112.187 121.33L112.26 121.38L113.212 122.051Z" fill="#F8ED2E" stroke="#231F20" stroke-width="0.58454" stroke-miterlimit="10"/>
<path d="M117.699 125.965C117.508 125.888 117.297 125.875 117.097 125.929C117.067 125.931 117.038 125.937 117.009 125.945C115.914 126.148 114.814 126.352 113.714 126.571C113.531 126.607 113.484 126.571 113.484 126.38C113.484 126.19 113.484 125.942 113.484 125.723C114.355 125.553 115.226 125.391 116.091 125.227C116.233 125.196 116.38 125.191 116.524 125.211C116.566 125.215 116.608 125.227 116.646 125.245L116.698 125.266L116.81 125.347L117.699 125.965Z" fill="#F8ED2E" stroke="#231F20" stroke-width="0.58454" stroke-miterlimit="10"/>
<path d="M140.303 126.12C140.006 126.042 139.696 126.034 139.396 126.096C138.745 126.248 138.163 126.613 137.743 127.133C137.322 127.652 137.086 128.298 137.073 128.967C137.058 129.418 137.189 129.862 137.446 130.232C137.399 130.222 137.354 130.207 137.31 130.188C137.267 130.175 137.224 130.159 137.183 130.141C137.13 130.119 137.078 130.092 137.029 130.063C136.987 130.04 136.947 130.015 136.909 129.987C136.889 129.974 136.87 129.96 136.852 129.945" stroke="#231F20" stroke-width="0.58454" stroke-miterlimit="10"/>
<path d="M137.729 120.224C137.641 120.217 137.553 120.199 137.469 120.172C137.554 120.196 137.641 120.214 137.729 120.224Z" fill="#F8ED2E" stroke="#231F20" stroke-width="0.58454" stroke-miterlimit="10"/>
<path d="M131.997 125.77L132.279 125.971L132.151 125.89L132.052 125.819L132.005 125.78L131.914 125.699L131.992 125.764L131.997 125.77Z" fill="#F8ED2E" stroke="#231F20" stroke-width="0.58454" stroke-miterlimit="10"/>
<path d="M132.374 126.02C132.394 126.033 132.416 126.044 132.438 126.054L132.371 126.02H132.374Z" fill="#F8ED2E" stroke="#231F20" stroke-width="0.58454" stroke-miterlimit="10"/>
<path d="M135.291 121.68L134.926 121.432L135.001 121.473C135.05 121.501 135.1 121.533 135.15 121.567C135.199 121.604 135.244 121.64 135.291 121.68Z" fill="#F8ED2E" stroke="#231F20" stroke-width="0.58454" stroke-miterlimit="10"/>
<path d="M133.039 126.191H133.144H133.039Z" fill="#F8ED2E" stroke="#231F20" stroke-width="0.58454" stroke-miterlimit="10"/>
<path d="M133.156 126.197C133.243 126.203 133.33 126.203 133.417 126.197C133.33 126.203 133.243 126.203 133.156 126.197Z" fill="#F8ED2E" stroke="#231F20" stroke-width="0.58454" stroke-miterlimit="10"/>
<path d="M145.032 120.198C144.742 120.118 144.437 120.107 144.141 120.167C142.872 120.41 141.847 121.686 141.845 123.038C141.836 123.49 141.967 123.934 142.22 124.308C142.176 124.298 142.132 124.285 142.09 124.269V124.269C142.079 124.267 142.069 124.263 142.061 124.256C142.018 124.241 141.977 124.224 141.936 124.204C141.936 124.204 141.936 124.204 141.936 124.204C141.898 124.189 141.862 124.172 141.826 124.152C141.809 124.142 141.793 124.132 141.777 124.121H141.753V124.108L141.628 124.019C141.593 123.994 141.56 123.967 141.529 123.938V123.938C141.523 123.933 141.517 123.927 141.514 123.92C141.45 123.862 141.392 123.799 141.339 123.732L141.302 123.685C141.276 123.653 141.252 123.619 141.232 123.583C141.217 123.564 141.204 123.544 141.193 123.523C141.128 123.413 141.073 123.298 141.029 123.178C141.013 123.131 140.997 123.087 140.984 123.038" stroke="#231F20" stroke-width="0.58454" stroke-miterlimit="10"/>
<path d="M141.712 124.081C141.712 124.081 141.712 124.081 141.696 124.081C141.681 124.074 141.667 124.065 141.654 124.055C141.627 124.037 141.602 124.016 141.578 123.994L141.712 124.081Z" fill="#F8ED2E" stroke="#231F20" stroke-width="0.58454" stroke-miterlimit="10"/>
<path d="M144.686 119.826L144.426 119.656C144.476 119.68 144.524 119.709 144.569 119.742C144.584 119.751 144.598 119.762 144.611 119.774H144.626C144.642 119.783 144.657 119.795 144.671 119.808C144.671 119.808 144.684 119.821 144.686 119.826Z" fill="#F8ED2E" stroke="#231F20" stroke-width="0.58454" stroke-miterlimit="10"/>
<path d="M118.013 126.704C118.013 127.516 118.013 128.327 118.013 129.139C118.038 129.398 117.961 129.656 117.798 129.859C117.634 130.061 117.398 130.19 117.14 130.219C116 130.439 114.856 130.666 113.712 130.874C113.529 130.908 113.482 130.971 113.482 131.159C113.482 132.378 113.482 133.599 113.482 134.812C113.502 135.065 113.424 135.315 113.266 135.513C113.108 135.711 112.88 135.841 112.63 135.877C111.778 136.052 110.92 136.222 110.062 136.383C109.949 136.417 109.829 136.421 109.714 136.393C109.599 136.365 109.493 136.307 109.408 136.224C109.281 136.069 109.219 135.871 109.234 135.671V133.322C109.234 132.873 109.234 132.422 109.234 131.973C109.234 131.785 109.194 131.736 109.007 131.775L108.225 131.929L105.527 132.451C105.418 132.495 105.3 132.51 105.184 132.492C105.068 132.475 104.959 132.427 104.867 132.353C104.776 132.28 104.707 132.182 104.666 132.072C104.625 131.962 104.615 131.843 104.635 131.728V131.707C104.635 130.872 104.635 130.034 104.635 129.199C104.616 128.94 104.697 128.683 104.862 128.482C105.027 128.282 105.264 128.153 105.522 128.124C106.682 127.902 107.839 127.678 108.996 127.469C109.194 127.432 109.234 127.364 109.231 127.169C109.231 125.955 109.231 124.736 109.231 123.515C109.21 123.258 109.289 123.003 109.452 122.803C109.615 122.603 109.849 122.474 110.104 122.443L112.479 122.001L112.583 121.983C112.79 121.926 113.011 121.951 113.201 122.051C113.305 122.136 113.386 122.246 113.435 122.372C113.485 122.497 113.501 122.633 113.482 122.766C113.482 123.753 113.482 124.742 113.482 125.728C113.482 125.947 113.482 126.167 113.482 126.386C113.482 126.605 113.529 126.613 113.712 126.576C114.812 126.357 115.912 126.153 117.007 125.95C117.036 125.942 117.065 125.937 117.095 125.934C117.295 125.881 117.506 125.894 117.697 125.971C117.911 126.08 118.013 126.321 118.013 126.704Z" fill="#F8ED2E" stroke="#231F20" stroke-width="0.58454" stroke-miterlimit="10"/>
<path d="M141.67 128.1C141.67 129.436 140.627 130.722 139.37 130.97C139.013 131.055 138.639 131.03 138.296 130.901C137.953 130.771 137.656 130.542 137.444 130.242C137.187 129.871 137.057 129.427 137.071 128.976C137.085 128.308 137.32 127.662 137.741 127.142C138.161 126.622 138.743 126.258 139.394 126.106C139.694 126.044 140.005 126.052 140.301 126.129C140.486 126.176 140.663 126.254 140.822 126.359H140.841C141.113 126.556 141.332 126.819 141.477 127.123C141.622 127.427 141.688 127.763 141.67 128.1Z" fill="#F8ED2E" stroke="#231F20" stroke-width="0.58454" stroke-miterlimit="10"/>
<path d="M146.406 122.15C146.406 123.507 145.387 124.786 144.13 125.021C143.776 125.105 143.405 125.082 143.065 124.953C142.724 124.825 142.43 124.598 142.22 124.301C141.966 123.926 141.835 123.482 141.844 123.03C141.844 121.678 142.871 120.402 144.141 120.159C144.436 120.099 144.741 120.11 145.032 120.19C145.843 120.412 146.406 121.159 146.406 122.15Z" fill="#F8ED2E" stroke="#231F20" stroke-width="0.58454" stroke-miterlimit="10"/>
<path d="M144.916 102.872C143.794 102.329 142.558 102.061 141.311 102.089C140.949 102.094 140.588 102.122 140.23 102.173C138.642 102.432 137.123 103.007 135.762 103.864C135.153 104.267 134.524 104.639 133.877 104.978C131.806 105.912 129.642 106.625 127.421 107.105C124.484 107.828 121.477 108.23 118.454 108.303C117.219 108.344 115.987 108.183 114.804 107.825C113.339 107.346 111.785 107.201 110.256 107.4C107.821 107.713 105.642 108.867 103.674 110.691C101.813 112.416 100.372 114.472 99.1125 116.667C97.9068 118.794 96.8612 121.008 95.9845 123.29C93.6892 129.039 92.1641 135.067 91.449 141.216C91.1408 143.684 91.112 146.178 91.363 148.651C91.4716 149.707 91.6998 150.747 92.0433 151.752C92.1998 152.181 92.3889 152.598 92.6089 152.999C93.0222 153.8 93.6459 154.473 94.4127 154.946L87.4895 151.472C86.5861 151.017 85.8505 150.286 85.3886 149.385C84.6717 148.077 84.3276 146.582 84.1504 145.016C83.898 142.542 83.9269 140.046 84.2364 137.578C84.9508 131.429 86.4741 125.402 88.7668 119.652C89.644 117.371 90.6895 115.158 91.8947 113.032C93.1563 110.834 94.5926 108.778 96.459 107.053C98.427 105.226 100.606 104.075 103.041 103.762C104.569 103.563 106.122 103.708 107.587 104.187C108.769 104.544 110.002 104.706 111.236 104.665C114.259 104.591 117.266 104.19 120.203 103.47C122.419 102.988 124.579 102.275 126.646 101.343C127.301 101.035 127.903 100.602 128.528 100.226C129.891 99.3683 131.412 98.794 133.001 98.5375C134.893 98.2492 136.825 98.6422 138.455 99.6466L144.916 102.872Z" fill="#352E7E" stroke="#231F20" stroke-width="0.58454" stroke-miterlimit="10"/>
<path d="M145.023 102.924L144.918 102.871" stroke="#231F20" stroke-width="0.58454" stroke-miterlimit="10"/>
<path d="M109.346 136.142L108.564 135.636L108.425 135.542C108.357 135.464 108.304 135.373 108.271 135.274C108.238 135.176 108.225 135.071 108.233 134.968V133.141C108.233 132.963 108.233 132.791 108.233 132.619C108.233 132.389 108.233 132.16 108.233 131.927L109.015 131.773C109.202 131.734 109.247 131.773 109.241 131.972C109.241 132.421 109.241 132.872 109.241 133.321V135.67C109.236 135.778 109.251 135.887 109.286 135.991C109.3 136.043 109.32 136.094 109.346 136.142Z" fill="#F8ED2E" stroke="#231F20" stroke-width="0.58454" stroke-miterlimit="10"/>
<path d="M108.215 126.654L109.187 127.393" stroke="#231F20" stroke-width="0.58454" stroke-miterlimit="10"/>
<path d="M133.027 126.498L132.289 125.979" stroke="#231F20" stroke-width="0.58454" stroke-miterlimit="10"/>
<path d="M136.1 122.236L135.297 121.688L136.1 122.236Z" fill="#F8ED2E"/>
<path d="M136.1 122.236L135.297 121.688" stroke="#231F20" stroke-width="0.58454" stroke-miterlimit="10"/>
<path d="M136.73 129.891L137.799 130.647" stroke="#231F20" stroke-width="0.58454" stroke-miterlimit="10"/>
<path d="M140.047 125.818C140.308 125.996 140.568 126.173 140.829 126.34L140.047 125.818Z" fill="#F8ED2E"/>
<path d="M140.047 125.818C140.308 125.996 140.568 126.173 140.829 126.34" stroke="#231F20" stroke-width="0.58454" stroke-miterlimit="10"/>
<path d="M140.036 125.814L139.66 125.553L140.036 125.814Z" fill="#F8ED2E"/>
<path d="M140.036 125.814L139.66 125.553" stroke="#231F20" stroke-width="0.58454" stroke-miterlimit="10"/>
<path d="M138.002 120.685L136.949 119.936" stroke="#231F20" stroke-width="0.58454" stroke-miterlimit="10"/>
<path d="M139.867 115.596L141.048 116.399L139.867 115.596Z" fill="#F8ED2E"/>
<path d="M139.867 115.596L141.048 116.399" stroke="#231F20" stroke-width="0.58454" stroke-miterlimit="10"/>
<path d="M142.657 124.752L141.758 124.113L141.734 124.1" fill="#F8ED2E"/>
<path d="M142.657 124.752L141.758 124.113L141.734 124.1" stroke="#231F20" stroke-width="0.58454" stroke-miterlimit="10"/>
<path d="M145.576 120.437L144.703 119.842L145.576 120.437Z" fill="#F8ED2E"/>
<path d="M145.576 120.437L144.703 119.842" stroke="#231F20" stroke-width="0.58454" stroke-miterlimit="10"/>
<path d="M144.423 119.653L144.395 119.631L144.423 119.653Z" fill="#F8ED2E"/>
<path d="M144.423 119.653L144.395 119.631" stroke="#231F20" stroke-width="0.58454" stroke-miterlimit="10"/>
<path d="M140.323 116.048C140.027 115.971 139.718 115.962 139.418 116.022C138.131 116.262 137.104 117.546 137.104 118.924C137.095 119.368 137.226 119.803 137.479 120.168C137.449 120.163 137.419 120.155 137.39 120.142C137.347 120.131 137.304 120.115 137.263 120.095L137.2 120.069C137.109 120.03 137.022 119.983 136.94 119.928H136.924C136.914 119.923 136.905 119.916 136.898 119.907C136.873 119.892 136.849 119.875 136.827 119.855C136.821 119.856 136.815 119.856 136.809 119.855L136.736 119.795C136.705 119.766 136.671 119.738 136.642 119.706C136.623 119.686 136.604 119.664 136.588 119.641C136.569 119.624 136.552 119.605 136.538 119.584C136.52 119.563 136.507 119.542 136.491 119.521C136.476 119.5 136.491 119.521 136.478 119.506C136.465 119.49 136.423 119.427 136.397 119.385C136.337 119.287 136.285 119.183 136.244 119.075C136.242 119.064 136.242 119.052 136.244 119.041C136.243 119.031 136.243 119.022 136.244 119.012C136.226 118.969 136.212 118.924 136.199 118.879C136.184 118.825 136.171 118.77 136.16 118.715C136.152 118.684 136.147 118.653 136.145 118.621V118.621" stroke="#231F20" stroke-width="0.58454" stroke-miterlimit="10"/>
<path d="M135.569 121.997C135.273 121.917 134.962 121.904 134.66 121.958C133.422 122.162 132.348 123.446 132.314 124.769C132.289 125.254 132.423 125.734 132.694 126.136L132.514 126.076L132.449 126.053L132.384 126.019L132.293 125.977L132.011 125.776C131.984 125.756 131.958 125.734 131.933 125.711C131.902 125.677 131.871 125.646 131.842 125.612C131.822 125.593 131.803 125.572 131.787 125.549L131.735 125.481C131.701 125.438 131.671 125.393 131.644 125.346C131.618 125.304 131.594 125.262 131.573 125.218C131.55 125.176 131.532 125.132 131.511 125.085C131.509 125.077 131.509 125.069 131.511 125.061C131.489 125.008 131.47 124.954 131.454 124.899C131.443 124.874 131.436 124.848 131.43 124.821L131.414 124.758C131.403 124.721 131.395 124.682 131.388 124.644C131.388 124.586 131.368 124.524 131.36 124.464C131.352 124.404 131.36 124.338 131.347 124.273C131.343 124.21 131.343 124.146 131.347 124.083C131.347 123.999 131.347 123.918 131.365 123.835C131.383 123.751 131.391 123.67 131.407 123.589C131.422 123.508 131.446 123.428 131.469 123.349C131.493 123.271 131.495 123.268 131.511 123.229C131.54 123.151 131.568 123.075 131.605 123C131.62 122.963 131.636 122.929 131.654 122.893C131.673 122.856 131.693 122.812 131.714 122.773C131.735 122.733 131.756 122.699 131.779 122.666L131.829 122.579C131.936 122.417 132.056 122.265 132.189 122.123C132.225 122.084 132.264 122.047 132.301 122.013C132.338 121.974 132.377 121.936 132.418 121.901L132.554 121.789C132.58 121.767 132.608 121.747 132.637 121.729C132.679 121.696 132.724 121.665 132.77 121.637C132.798 121.617 132.828 121.598 132.859 121.582C132.892 121.561 132.927 121.542 132.963 121.525C133.003 121.5 133.046 121.478 133.091 121.46C133.128 121.441 133.166 121.424 133.205 121.41L133.32 121.369C133.348 121.355 133.378 121.345 133.409 121.34C133.452 121.324 133.496 121.311 133.541 121.301L133.617 121.285L133.693 121.269C133.873 121.238 134.057 121.231 134.24 121.246H134.31C134.35 121.246 134.389 121.246 134.425 121.262C134.463 121.267 134.5 121.274 134.537 121.285L134.61 121.303L134.748 121.345C134.821 121.374 134.889 121.402 134.957 121.436L135.322 121.684L135.366 121.726C135.388 121.747 135.409 121.77 135.429 121.794L135.457 121.823C135.482 121.849 135.506 121.877 135.528 121.906L135.569 121.997Z" fill="#F8ED2E" stroke="#231F20" stroke-width="0.58454" stroke-miterlimit="10"/>
<path d="M141.705 118.051C141.697 118.72 141.464 119.366 141.044 119.887C140.624 120.407 140.042 120.772 139.391 120.921C139.035 121 138.664 120.972 138.324 120.842C137.984 120.711 137.69 120.484 137.477 120.188C137.224 119.823 137.093 119.387 137.102 118.943C137.102 117.565 138.129 116.281 139.417 116.041C139.716 115.981 140.026 115.99 140.321 116.067C141.14 116.279 141.708 117.038 141.705 118.051Z" fill="#F8ED2E" stroke="#231F20" stroke-width="0.58454" stroke-miterlimit="10"/>
<path d="M136.946 124.044C136.91 125.378 135.843 126.654 134.6 126.868C134.335 126.921 134.061 126.918 133.797 126.858C133.532 126.799 133.284 126.683 133.067 126.521L133.036 126.497C132.907 126.395 132.793 126.273 132.7 126.137C132.428 125.734 132.295 125.255 132.319 124.769C132.356 123.446 133.43 122.16 134.665 121.959C134.968 121.904 135.278 121.917 135.575 121.998C135.761 122.047 135.937 122.128 136.096 122.235C136.382 122.438 136.61 122.711 136.758 123.028C136.907 123.345 136.972 123.695 136.946 124.044Z" fill="#F8ED2E" stroke="#231F20" stroke-width="0.58454" stroke-miterlimit="10"/>
</svg>
