<svg width="146" height="168" viewBox="0 0 146 168" fill="none" xmlns="http://www.w3.org/2000/svg">
<path d="M60.5027 150.124H60.499L53.6228 161.386L50.0722 153.115L0 36.5863L6.87621 25.3208L60.5027 150.124Z" fill="#1E194D"/>
<path d="M91.6097 1L6.87695 25.3245L60.5034 150.124L145.225 125.799L91.6097 1ZM63.898 141.679C48.0471 104.19 32.1938 66.7004 16.3381 29.2092L87.8594 8.68945C103.984 45.9628 120.109 83.2362 136.236 120.51L63.898 141.679Z" fill="#53379E" stroke="#1A074E" stroke-width="0.281264" stroke-miterlimit="10"/>
<path d="M136.275 120.51L63.8973 141.679C48.0464 104.19 32.1931 66.7004 16.3374 29.2092L87.8587 8.68945C104.007 45.9628 120.146 83.2362 136.275 120.51Z" fill="#E0F1EB" stroke="#1A074E" stroke-width="0.281264" stroke-miterlimit="10"/>
<path d="M145.225 125.806L138.349 137.068L53.623 161.386L60.4993 150.124H60.5029L145.225 125.806Z" fill="#53379E" stroke="#1A074E" stroke-width="0.281264" stroke-miterlimit="10"/>
<path d="M107.58 139.621L105.144 143.614L94.0161 146.805L96.4522 142.815L107.58 139.621Z" fill="#1E194D"/>
<path d="M76.055 148.653L73.6371 152.611L73.6153 152.647L69.3604 153.867L71.7964 149.877L76.055 148.653Z" fill="#1E194D"/>
<path d="M122.076 136.611L121.245 137.972L121.238 137.983L119.774 138.404L120.613 137.032L122.076 136.611Z" fill="#1E194D"/>
<path d="M124.533 135.947L123.702 137.304L123.695 137.319L122.231 137.736L123.07 136.364L124.533 135.947Z" fill="#1E194D"/>
<path d="M127.039 135.202L126.211 136.564L126.204 136.575L124.737 136.996L125.575 135.624L127.039 135.202Z" fill="#1E194D"/>
<path d="M129.635 134.462L128.803 135.823L128.796 135.834L127.333 136.255L128.172 134.883V134.879L129.635 134.462Z" fill="#1E194D"/>
<path d="M132.209 133.71L131.378 135.071L131.37 135.082L129.907 135.503L130.746 134.131L132.209 133.71Z" fill="#1E194D"/>
<path d="M134.801 132.969L133.969 134.331L133.962 134.342L132.499 134.763L133.338 133.391L134.801 132.969Z" fill="#1E194D"/>
<path d="M78.687 58.4276L62.8325 62.9657C61.655 63.3027 60.3949 63.1971 59.29 62.6687C58.185 62.1403 57.3117 61.2257 56.8349 60.0976C54.7994 55.2884 52.7651 50.4767 50.732 45.6627C50.2135 44.4403 50.2018 43.062 50.6995 41.831C51.1972 40.6 52.1635 39.6172 53.3859 39.0987C53.5737 39.0185 53.7665 38.9506 53.9631 38.8954L69.7051 34.379C70.8757 34.0434 72.1285 34.1453 73.2295 34.6657C74.3305 35.1862 75.2045 36.0895 75.6882 37.2072C77.7503 42.0067 79.8221 46.8063 81.9036 51.6058C82.4309 52.8254 82.4526 54.2044 81.9638 55.4399C81.4751 56.6755 80.5159 57.6665 79.2969 58.1952C79.0986 58.2851 78.8949 58.3627 78.687 58.4276Z" fill="#E0F1EB" stroke="#1A074E" stroke-width="0.281264" stroke-miterlimit="10"/>
<path d="M106.086 30.6361C109.053 30.6143 111.278 30.4618 112.084 30.273L112.919 30.0806C113.976 29.841 114.11 29.8301 114.299 29.7176C114.526 29.5582 114.719 29.3551 114.867 29.12C115.015 28.885 115.114 28.6228 115.159 28.3488C115.715 26.3266 116.125 21.4146 115.932 21.4146C115.74 21.4146 116.212 27.1544 116.727 28.2545C116.982 28.7884 117.364 29.2521 117.838 29.605C118.236 29.8555 118.679 30.0268 119.142 30.1097C119.672 30.1968 122.525 30.4219 126.446 30.5707C122.587 30.9338 119.766 31.2678 118.982 31.3876C118.463 31.4714 117.975 31.6891 117.566 32.0193C117.482 32.0982 117.407 32.1872 117.345 32.2843C117.217 32.4854 117.127 32.7081 117.08 32.9415C117 33.3444 116.717 35.8858 116.375 39.3784C116.219 38.3292 116.114 37.4905 116.049 36.9568C115.784 34.7785 115.755 33.9544 115.159 33.0032C114.911 32.6096 114.607 32.2548 114.255 31.9503C113.856 31.7392 113.439 31.563 113.01 31.4239C112.164 31.1555 111.283 31.0172 110.396 31.0137C108.953 30.9697 107.515 30.8436 106.086 30.6361Z" fill="#F0E266" stroke="#1A074E" stroke-width="0.0926516" stroke-miterlimit="10"/>
<path d="M8.11084 148.483C14.5623 148.432 19.4018 148.12 21.1589 147.724C21.3949 147.673 21.7907 147.572 22.9742 147.307C25.2723 146.787 25.5664 146.758 25.9766 146.526C27.0658 145.923 27.5232 144.711 27.8464 143.549C29.0444 139.138 29.6702 128.464 29.5237 128.464C29.3772 128.464 30.1372 140.953 31.259 143.349C31.8081 144.514 32.6377 145.525 33.6733 146.29C34.5409 146.82 35.5023 147.179 36.5051 147.346C37.6633 147.535 43.8606 148.025 52.3923 148.348C44.0022 149.118 37.8702 149.866 36.1602 150.124C36.1602 150.124 34.1816 150.429 33.0779 151.5C32.8949 151.671 32.7329 151.864 32.5951 152.073C32.32 152.512 32.1257 152.997 32.0215 153.504C31.8508 154.386 31.2227 159.901 30.4966 167.496C30.1626 165.216 29.9303 163.386 29.7705 162.232C29.1933 157.512 29.1279 155.697 27.8355 153.631C27.2967 152.775 26.6349 152.003 25.8714 151.34C25.001 150.883 24.0938 150.499 23.1593 150.193C21.324 149.61 19.4105 149.31 17.4848 149.303C15.3646 149.234 12.315 149.035 8.11084 148.483Z" fill="#F0E266" stroke="#1A074E" stroke-width="0.0926516" stroke-miterlimit="10"/>
<path d="M136.276 120.52L63.9122 141.679L16.3633 29.209L87.8955 8.6748L136.276 120.52Z" fill="#E9DFEE"/>
<path opacity="0.54" d="M103.703 45.2124L90.103 74.1513L88.0082 78.6024L81.662 92.1224L77.8863 100.157L74.1033 108.209L70.3566 116.178L68.0839 121.014L61.2911 135.474L48.8457 106.038L56.7312 89.2507L58.5683 85.3406L66.7224 67.9794C66.8749 68.0303 67.031 68.0738 67.1871 68.1174C67.1036 67.8923 67.0346 67.6709 66.9729 67.4494L70.6506 59.6292L74.764 50.8724L81.2082 37.1563L84.5555 30.0332L91.0905 16.0884L103.703 45.2124Z" fill="white"/>
<path d="M86.21 35.7186L38.8462 49.3694C38.0433 49.5823 37.1909 49.5027 36.4413 49.1449C35.6918 48.7871 35.0939 48.1743 34.7546 47.4162V47.4162C34.6105 47.1039 34.5293 46.7663 34.5157 46.4227C34.5021 46.079 34.5564 45.7361 34.6754 45.4134C34.7944 45.0907 34.9759 44.7947 35.2093 44.5422C35.4428 44.2897 35.7238 44.0856 36.0362 43.9418C36.1789 43.8768 36.3271 43.8246 36.4791 43.7856L83.8138 30.1567C84.6163 29.9475 85.4668 30.028 86.2158 30.3839C86.9648 30.7398 87.5644 31.3484 87.9091 32.1026V32.1026C88.2016 32.7256 88.2348 33.4393 88.0013 34.0868C87.7678 34.7342 87.2867 35.2624 86.6638 35.5552C86.5181 35.6242 86.3662 35.6789 86.21 35.7186V35.7186Z" stroke="#1A074E" stroke-width="0.281264" stroke-miterlimit="10"/>
<path d="M78.9715 55.8499C79.505 57.0269 79.7809 58.3043 79.7809 59.5966C79.7809 60.8888 79.505 62.1662 78.9715 63.3433C78.7643 63.7742 78.5214 64.1871 78.2454 64.5776C76.1397 60.7874 72.03 59.0847 69.7718 59.7745C67.5136 60.4643 65.6947 64.0512 67.1796 68.1247C65.4675 67.6749 63.8782 66.8468 62.5285 65.7013C61.1789 64.5559 60.1034 63.1224 59.3812 61.5062C58.8518 60.3274 58.5801 59.049 58.5845 57.7568C58.5889 56.4645 58.8692 55.188 59.4066 54.0128C59.9654 52.8541 60.7673 51.8295 61.7578 51.0088C62.7483 50.188 63.9042 49.5905 65.1465 49.2568C67.8574 48.547 70.732 48.8196 73.2611 50.0264C75.7902 51.2331 77.8106 53.2961 78.9643 55.8499H78.9715Z" stroke="#1A074E" stroke-width="0.281264" stroke-miterlimit="10"/>
<path d="M71.0169 54.4341C71.1669 54.7561 71.252 55.1046 71.2673 55.4595C71.2826 55.8144 71.2278 56.1689 71.1061 56.5027C70.9844 56.8365 70.7981 57.143 70.5579 57.4047C70.3178 57.6665 70.0283 57.8784 69.7062 58.0283C69.5591 58.0967 69.406 58.1513 69.2488 58.1917C68.416 58.4125 67.5319 58.3299 66.7544 57.9588C65.9769 57.5877 65.3567 56.9522 65.0047 56.1658C64.8548 55.8436 64.7699 55.4949 64.7549 55.1398C64.7398 54.7847 64.7949 54.4301 64.9169 54.0963C65.039 53.7625 65.2256 53.4561 65.4662 53.1945C65.7068 52.9328 65.9965 52.7212 66.319 52.5716C66.4659 52.5027 66.6191 52.448 66.7764 52.4082C67.6087 52.1884 68.4919 52.2714 69.2687 52.6425C70.0454 53.0135 70.6649 53.6485 71.0169 54.4341V54.4341Z" stroke="#1A074E" stroke-width="0.281264" stroke-miterlimit="10"/>
<path d="M78.253 64.5777C77.0898 66.2328 75.4069 67.4518 73.4717 68.0412L73.2175 68.1138C71.2453 68.6657 69.1594 68.6657 67.1872 68.1138C65.7023 64.0403 67.4922 60.4607 69.7794 59.7636C72.0666 59.0665 76.1473 60.7874 78.253 64.5777Z" stroke="#1A074E" stroke-width="0.281264" stroke-miterlimit="10"/>
<path d="M86.294 17.7948C86.9148 19.247 86.1488 20.7573 84.5876 21.2075C83.8238 21.4224 83.0086 21.3611 82.2855 21.0344C81.5624 20.7077 80.9776 20.1365 80.634 19.4213C80.0168 17.9691 80.7829 16.4588 82.344 16.0086C83.1073 15.7924 83.9225 15.8531 84.6453 16.18C85.3682 16.5069 85.9522 17.0789 86.294 17.7948V17.7948Z" stroke="#1A074E" stroke-width="0.281264" stroke-miterlimit="10"/>
<path d="M30.2859 31.4348L24.2157 33.1774C24.0141 33.2309 23.8001 33.211 23.6118 33.1212C23.4236 33.0315 23.2735 32.8776 23.1882 32.6873V32.6873C23.1524 32.6081 23.1325 32.5227 23.1297 32.4359C23.1269 32.3491 23.1413 32.2626 23.172 32.1813C23.2027 32.1 23.2491 32.0256 23.3086 31.9623C23.368 31.899 23.4394 31.848 23.5186 31.8123L23.6239 31.776L29.6905 30.0334C29.8926 29.9804 30.1069 30.0005 30.2955 30.0902C30.4842 30.1799 30.6351 30.3333 30.7216 30.5235V30.5235C30.7574 30.6026 30.7773 30.688 30.7801 30.7749C30.7829 30.8617 30.7685 30.9482 30.7378 31.0295C30.7071 31.1107 30.6607 31.1852 30.6012 31.2485C30.5418 31.3118 30.4704 31.3627 30.3912 31.3984L30.2859 31.4348Z" stroke="#1A074E" stroke-width="0.281264" stroke-miterlimit="10"/>
<path d="M31.2222 33.6239L25.1519 35.3666C24.9499 35.4203 24.7353 35.4006 24.5464 35.3108C24.3576 35.221 24.2068 35.0671 24.1209 34.8765V34.8765C24.085 34.7973 24.0651 34.7119 24.0624 34.6251C24.0596 34.5383 24.0739 34.4518 24.1046 34.3705C24.1353 34.2892 24.1817 34.2148 24.2412 34.1515C24.3007 34.0882 24.372 34.0372 24.4512 34.0015L24.5565 33.9652L30.6267 32.2226C30.8283 32.169 31.0423 32.1889 31.2306 32.2787C31.4188 32.3685 31.569 32.5223 31.6542 32.7127V32.7127C31.7272 32.8697 31.735 33.0492 31.6757 33.2119C31.6165 33.3745 31.4952 33.5071 31.3383 33.5804C31.3011 33.5987 31.2622 33.6132 31.2222 33.6239Z" stroke="#1A074E" stroke-width="0.281264" stroke-miterlimit="10"/>
<path d="M32.1447 35.8132L26.0708 37.5594C25.8698 37.6108 25.6572 37.5894 25.4704 37.4991C25.2837 37.4087 25.135 37.2552 25.0506 37.0657V37.0657C24.9779 36.9073 24.9711 36.7265 25.0317 36.5631C25.0923 36.3997 25.2154 36.2671 25.3737 36.1944C25.4098 36.1773 25.4475 36.1639 25.4863 36.1544L31.5565 34.4118C31.7581 34.3582 31.9721 34.3781 32.1603 34.4679C32.3486 34.5577 32.4987 34.7115 32.584 34.9019C32.657 35.0589 32.6647 35.2384 32.6055 35.4011C32.5463 35.5638 32.4249 35.6963 32.2681 35.7696C32.2284 35.7878 32.187 35.8024 32.1447 35.8132V35.8132Z" stroke="#1A074E" stroke-width="0.281264" stroke-miterlimit="10"/>
<path d="M121.477 114.908L71.6624 129.451L57.398 95.8219C54.8566 89.8243 57.8192 83.5144 64.0165 81.7173L91.1909 73.8391C97.3628 72.0492 104.464 75.4329 107.038 81.4087L121.477 114.908Z" stroke="#1A074E" stroke-width="0.281264" stroke-miterlimit="10"/>
<path d="M58.6577 98.8025L74.9842 94.0574L108.316 84.3748" fill="#F0E266"/>
<path d="M58.6577 98.8025L74.9842 94.0574L108.316 84.3748" stroke="#1A074E" stroke-width="0.281264" stroke-miterlimit="10"/>
<path d="M61.2905 104.982L77.6279 100.229L110.978 90.5322" fill="#F0E266"/>
<path d="M61.2905 104.982L77.6279 100.229L110.978 90.5322" stroke="#1A074E" stroke-width="0.281264" stroke-miterlimit="10"/>
<path d="M63.686 111.241L80.0343 106.481L113.41 96.7659" fill="#F0E266"/>
<path d="M63.686 111.241L80.0343 106.481L113.41 96.7659" stroke="#1A074E" stroke-width="0.281264" stroke-miterlimit="10"/>
<path d="M66.5151 117.297L82.8743 112.53L116.268 102.8" fill="#F0E266"/>
<path d="M66.5151 117.297L82.8743 112.53L116.268 102.8" stroke="#1A074E" stroke-width="0.281264" stroke-miterlimit="10"/>
<path d="M69.1177 123.428L85.4841 118.651L118.899 108.906" fill="#F0E266"/>
<path d="M69.1177 123.428L85.4841 118.651L118.899 108.906" stroke="#1A074E" stroke-width="0.281264" stroke-miterlimit="10"/>
<path d="M68.7695 80.3416L74.6619 94.1521" stroke="#1A074E" stroke-width="0.281264" stroke-miterlimit="10"/>
<path d="M86.5552 75.1863L92.4185 88.9823L86.5552 75.1863Z" fill="#F0E266"/>
<path d="M86.5552 75.1863L92.4185 88.9823" stroke="#1A074E" stroke-width="0.281264" stroke-miterlimit="10"/>
<path d="M67.6946 89.821C67.8267 90.1275 67.8972 90.4571 67.9019 90.7909C67.9066 91.1247 67.8456 91.4561 67.7222 91.7663C67.5988 92.0765 67.4155 92.3593 67.1827 92.5986C66.95 92.8379 66.6724 93.0291 66.3658 93.1611C66.2353 93.2167 66.1006 93.2616 65.9628 93.2954C65.1901 93.5172 64.3635 93.4563 63.6316 93.1236C62.8996 92.7909 62.3103 92.2082 61.9693 91.4801C61.8371 91.1736 61.7667 90.844 61.762 90.5102C61.7572 90.1764 61.8183 89.845 61.9417 89.5348C62.0651 89.2247 62.2484 88.9418 62.4811 88.7025C62.7138 88.4632 62.9914 88.2721 63.298 88.1401C63.4285 88.0845 63.5633 88.0395 63.701 88.0057C64.4738 87.7839 65.3004 87.8448 66.0323 88.1775C66.7642 88.5102 67.3536 89.0929 67.6946 89.821V89.821Z" stroke="#1A074E" stroke-width="0.281264" stroke-miterlimit="10"/>
<path d="M83.9781 85.0938C84.1102 85.4004 84.1806 85.7299 84.1853 86.0637C84.1901 86.3975 84.129 86.7289 84.0056 87.0391C83.8822 87.3493 83.6989 87.6321 83.4662 87.8714C83.2335 88.1107 82.9559 88.3019 82.6493 88.4339C82.5225 88.4883 82.3913 88.532 82.2572 88.5646C81.4844 88.7841 80.6587 88.7222 79.9273 88.3897C79.1959 88.0573 78.6063 87.4759 78.2636 86.7493C78.1316 86.4425 78.0613 86.1128 78.0569 85.7788C78.0524 85.4449 78.1138 85.1133 78.2375 84.8031C78.3613 84.4929 78.5449 84.2101 78.778 83.971C79.0111 83.7318 79.2891 83.5409 79.596 83.4092C79.7228 83.3549 79.854 83.3111 79.9881 83.2785C80.7604 83.0592 81.5855 83.1213 82.3163 83.4538C83.0471 83.7862 83.636 84.3675 83.9781 85.0938V85.0938Z" stroke="#1A074E" stroke-width="0.281264" stroke-miterlimit="10"/>
<path d="M100.768 80.2107C101.038 80.8217 101.054 81.5148 100.813 82.1377C100.572 82.7606 100.094 83.2623 99.483 83.5326C99.3447 83.5934 99.2013 83.642 99.0546 83.6778C98.2817 83.8966 97.4564 83.8343 96.7251 83.502C95.9939 83.1696 95.4043 82.5887 95.061 81.8626C94.9268 81.5611 94.8534 81.2361 94.845 80.9062C94.8367 80.5763 94.8935 80.248 95.0122 79.9401C95.1309 79.6322 95.3092 79.3507 95.5368 79.1118C95.7645 78.8729 96.0371 78.6813 96.3389 78.5479C96.4787 78.4837 96.6247 78.4339 96.7746 78.399C97.547 78.1792 98.3723 78.2407 99.1036 78.5724C99.835 78.9042 100.425 79.4847 100.768 80.2107V80.2107Z" stroke="#1A074E" stroke-width="0.281264" stroke-miterlimit="10"/>
<path d="M67.1869 68.1246C67.0308 68.081 66.8746 68.0374 66.7222 67.9866L66.9727 67.4565C67.0344 67.678 67.1034 67.8995 67.1869 68.1246Z" fill="white"/>
</svg>
