<svg width="160" height="184" viewBox="0 0 160 184" fill="none" xmlns="http://www.w3.org/2000/svg">
<path d="M152.595 124.008L65.4548 103.609C64.6009 107.55 63.7461 111.492 62.8903 115.434L65.3729 103.258C62.94 95.6549 60.5032 88.0521 58.0625 80.4492L145.241 100.866C147.687 108.576 150.139 116.29 152.595 124.008Z" fill="#8D1062" stroke="#231F20" stroke-width="0.188612" stroke-miterlimit="10"/>
<path d="M159.34 125.586L156.858 137.409L62.8867 115.419C63.7406 111.477 64.5954 107.536 65.4512 103.594L152.591 124.007L159.262 125.569C159.288 125.572 159.315 125.578 159.34 125.586Z" fill="#C82D93"/>
<path d="M138.411 108.877V108.886L89.5039 124.72V78.2812L138.411 108.877Z" fill="#E757B5" stroke="#231F20" stroke-width="0.188612" stroke-miterlimit="10"/>
<path d="M65.3679 103.243L62.8853 115.419C59.0137 103.232 55.1431 91.0475 51.2734 78.8674L53.7561 67.0566C53.7736 67.1064 53.7911 67.159 53.8058 67.2087C55.2211 71.6261 56.6383 76.0446 58.0575 80.464C60.4846 88.0532 62.9214 95.6462 65.3679 103.243Z" fill="#5F0640" stroke="#231F20" stroke-width="0.188612" stroke-miterlimit="10"/>
<path d="M89.5009 124.635L67.5455 131.741L18.2958 100.928L88.9449 78.0562L89.5009 78.4051V124.635Z" fill="#C82D93" stroke="black" stroke-width="0.330898"/>
<path d="M147.728 89.0288L145.246 100.851L58.0585 80.4464L51.2656 78.8615C52.1078 74.9626 52.9519 71.0725 53.798 67.1911C53.803 67.1394 53.8138 67.0884 53.8301 67.0391L147.728 89.0288Z" fill="#FC97D9" stroke="#231F20" stroke-width="0.188612" stroke-miterlimit="10"/>
<path d="M138.41 108.887V159.127L67.3613 182.125L67.3438 182.117V131.894L67.3554 131.891L138.41 108.887Z" fill="#E757B5" stroke="#231F20" stroke-width="0.188612" stroke-miterlimit="10"/>
<path d="M67.342 131.883V182.117L17.7422 151.086V100.852L67.342 131.883Z" fill="#FC97D9" stroke="#231F20" stroke-width="0.188612" stroke-miterlimit="10"/>
<path d="M83.165 91.7713C81.7215 92.7055 80.1739 93.4681 78.5536 94.0434L77.9688 94.2364V94.1808C78.0767 93.9913 78.1743 93.796 78.2612 93.596C78.2612 93.596 78.3694 93.3474 78.4542 93.0784C78.5842 92.6123 78.6665 92.1341 78.6998 91.6514V91.6192C78.6998 91.5373 78.7144 91.4555 78.7173 91.3677C80.9192 90.6045 82.8112 89.3413 84.0452 87.5663C84.1443 87.5636 84.2426 87.5479 84.3376 87.5195C84.6943 89.1483 83.7645 90.4057 83.165 91.7713Z" fill="#229486" stroke="#010101" stroke-width="0.0926516" stroke-miterlimit="10"/>
<path d="M78.7006 91.3649C78.7031 91.449 78.6982 91.5331 78.686 91.6163V91.6631C78.6527 92.1459 78.5704 92.624 78.4404 93.0901C78.3556 93.3591 78.2474 93.6077 78.2474 93.6077C78.1605 93.8078 78.0629 94.003 77.955 94.1925V94.251C73.1184 95.7423 68.2789 94.9791 63.4452 91.7801C62.8604 90.4262 61.9247 89.1483 62.3019 87.543C62.3968 87.5718 62.4952 87.5875 62.5943 87.5898C65.6501 92.0228 73.1272 93.2977 78.7006 91.3649Z" fill="#43C6B6" stroke="#010101" stroke-width="0.0926516" stroke-miterlimit="10"/>
<path d="M78.7055 91.3652C78.7086 91.4494 78.7027 91.5337 78.6879 91.6167C78.6822 91.533 78.6822 91.449 78.6879 91.3652H78.7055Z" fill="#43C6B6" stroke="#010101" stroke-width="0.0926516" stroke-miterlimit="10"/>
<path d="M83.1688 95.1895C82.1337 96.8065 80.3646 97.9616 78.2884 98.6488L77.9375 98.7599V96.4936C78.0954 96.4527 78.2504 96.4088 78.4054 96.3591C80.2944 95.7889 81.9582 94.8795 83.1425 93.6367C83.1601 94.1543 83.163 94.6719 83.1688 95.1895Z" fill="#229486" stroke="#010101" stroke-width="0.0926516" stroke-miterlimit="10"/>
<path d="M77.9453 96.4927V98.7589C72.8076 100.309 65.9562 99.1127 63.4648 95.1885V93.6387C66.5732 96.8962 72.9392 97.8378 77.9453 96.4927Z" fill="#43C6B6" stroke="#010101" stroke-width="0.0926516" stroke-miterlimit="10"/>
<path d="M83.165 91.7715V93.6371C81.9953 94.8799 80.3168 95.7893 78.4249 96.3595C78.2699 96.4092 78.112 96.4531 77.957 96.494V94.2512L78.5419 94.0582C80.1671 93.4796 81.7188 92.7121 83.165 91.7715Z" fill="#229486" stroke="#010101" stroke-width="0.0926516" stroke-miterlimit="10"/>
<path d="M77.96 94.2512V96.5086C72.9567 97.8537 66.5879 96.9122 63.4766 93.6546V91.7656C68.2868 94.9647 73.1263 95.7279 77.96 94.2512Z" fill="#43C6B6" stroke="#010101" stroke-width="0.0926516" stroke-miterlimit="10"/>
<path d="M83.0976 96.7617C83.0976 97.2676 83.0976 97.7706 83.083 98.2764C83.045 98.5284 82.9863 98.7768 82.9076 99.0192C81.7379 100.92 80.0126 101.929 78.0564 102.502L77.9102 102.543V100.458C77.9979 100.432 78.0856 100.402 78.1704 100.37C80.3021 99.6508 82.0946 98.4343 83.0976 96.7617Z" fill="#229486" stroke="#010101" stroke-width="0.0926516" stroke-miterlimit="10"/>
<path d="M77.9229 100.461V102.546C77.2413 102.733 76.5489 102.879 75.8496 102.982C72.1213 103.566 65.9074 103.063 63.5359 98.7064C63.4978 98.5651 63.4685 98.4215 63.4482 98.2766L63.4336 96.3145H63.4541V96.6858C65.9835 100.952 72.8319 102.101 77.9229 100.461Z" fill="#43C6B6" stroke="#010101" stroke-width="0.0926516" stroke-miterlimit="10"/>
<path d="M82.9076 99.0234C82.5216 100.193 81.6589 100.991 80.5244 101.556C79.7262 101.953 78.9004 102.292 78.0534 102.57C78.0066 102.589 77.9587 102.604 77.9102 102.617V102.547L78.0564 102.506C80.0156 101.933 81.732 100.933 82.9076 99.0234Z" fill="#43C6B6" stroke="#010101" stroke-width="0.0926516" stroke-miterlimit="10"/>
<path d="M76.7853 105.044C75.8554 107.185 75.4373 107.857 75.2355 107.969C75.0841 108.055 74.9494 108.168 74.8378 108.302C74.747 108.407 74.6721 108.526 74.6156 108.653C74.5103 108.852 74.2471 109.077 73.5366 109.191C72.538 109.231 71.5451 109.022 70.6475 108.583C69.5363 108.091 68.3812 107.673 67.3168 107.094C65.9805 106.366 65.1383 105.273 65.3167 103.629C65.7817 103.457 66.1706 103.688 66.5653 103.872C69.9086 105.472 73.248 105.878 76.5835 105.088L76.7853 105.044Z" fill="#43C6B6" stroke="#010101" stroke-width="0.0926516" stroke-miterlimit="10"/>
<path d="M78.0745 107.72C77.3639 108.059 76.6124 108.305 75.8784 108.597C75.1464 108.953 74.3514 109.159 73.5391 109.206C74.2467 109.092 74.5128 108.866 74.6181 108.668C74.7482 108.382 74.9666 108.147 75.2409 107.995C75.4427 107.875 75.8638 107.203 76.7878 105.071C77.8873 104.79 78.9553 104.398 79.9752 103.901C80.367 103.717 80.7588 103.486 81.2238 103.658C81.4139 105.948 79.8114 106.898 78.0745 107.72Z" fill="#229486" stroke="#010101" stroke-width="0.0926516" stroke-miterlimit="10"/>
<path d="M83.1649 95.1895L83.1503 96.6749L83.0977 96.7627C82.0947 98.4353 80.3021 99.6517 78.1821 100.374C78.0973 100.406 78.0096 100.435 77.9219 100.462V98.7599L78.2728 98.6488C80.3606 97.9616 82.1298 96.8065 83.1649 95.1895Z" fill="#229486" stroke="#010101" stroke-width="0.0926516" stroke-miterlimit="10"/>
<path d="M77.9346 98.7599V100.462C72.8407 102.088 65.9952 100.953 63.4804 96.6779V95.1895C65.9543 99.1137 72.8114 100.31 77.9346 98.7599Z" fill="#43C6B6" stroke="#010101" stroke-width="0.0926516" stroke-miterlimit="10"/>
<path d="M83.1347 100.471L83.0908 100.533V100.196C82.1434 101.161 81.3948 102.275 80.0877 102.942C79.4127 103.291 78.7106 103.584 77.9881 103.819L77.9062 103.843V102.559L78.0525 102.518C80.0117 101.933 81.7281 100.936 82.9037 99.0354C82.9826 98.9126 83.0557 98.7898 83.1259 98.6582C83.1317 99.2586 83.1347 99.863 83.1347 100.471Z" fill="#229486" stroke="#010101" stroke-width="0.0926516" stroke-miterlimit="10"/>
<path d="M77.9103 102.546V103.83C75.5847 104.511 73.137 104.669 70.7431 104.292C67.9038 103.9 65.1872 102.912 63.4883 100.257V98.6367C63.4981 98.6597 63.5109 98.6813 63.5263 98.7011C65.8861 103.058 72.1117 103.549 75.84 102.976C76.5382 102.875 77.2296 102.732 77.9103 102.546Z" fill="#43C6B6" stroke="#010101" stroke-width="0.0926516" stroke-miterlimit="10"/>
<path d="M83.0908 100.532C83.0557 101.885 82.4094 102.906 81.2193 103.634C80.1963 104.342 79.0765 104.898 77.8945 105.286V103.824L77.9764 103.801C78.6993 103.567 79.4015 103.273 80.076 102.924C81.3831 102.257 82.1229 101.143 83.0791 100.178C83.0916 100.295 83.0955 100.413 83.0908 100.532Z" fill="#229486" stroke="#010101" stroke-width="0.0926516" stroke-miterlimit="10"/>
<path d="M77.9039 103.831V105.293C73.7603 106.67 68.8857 106.121 65.3299 103.641C64.0462 102.851 63.3971 101.723 63.4614 100.199L63.4994 100.258C65.1867 102.913 67.9149 103.901 70.7543 104.293C73.1425 104.666 75.5835 104.508 77.9039 103.831Z" fill="#43C6B6" stroke="#010101" stroke-width="0.0926516" stroke-miterlimit="10"/>
<path d="M89.3056 78.4606C88.3757 79.4899 87.3318 80.4169 86.4312 81.4667C84.9428 83.1978 84.1211 85.2038 84.2585 87.5373C84.1316 87.6737 84.0125 87.8172 83.9018 87.9671C82.9777 90.4 80.7524 91.3124 78.5213 91.9528C73.7432 93.3271 69.0557 93.1224 64.7192 90.3532C63.8156 89.7684 63.0554 89.0637 62.7103 88.0373L62.684 88.0139C62.5582 87.8501 62.4296 87.6893 62.2921 87.5373C62.4237 85.1833 61.5845 83.3001 60.3008 81.6538C71.9975 82.9141 83.0245 76.6827 86.9663 66.9189C90.101 59.1523 88.4752 49.8038 82.8724 42.584C85.6162 43.8399 88.0651 45.659 90.06 47.923C92.055 50.1869 93.5514 52.8452 94.4522 55.7252C97.2009 64.3076 95.2709 71.8403 89.3056 78.4606Z" fill="#F0E266" stroke="#231F20" stroke-width="0.188612" stroke-miterlimit="10"/>
<path d="M86.9644 66.9098C83.0227 76.6619 71.9868 82.905 60.2989 81.633C59.6917 80.8734 59.028 80.1608 58.3134 79.5013C57.3024 78.5577 56.3695 77.5338 55.5238 76.4396C53.1139 73.3362 51.58 69.6435 51.082 65.746C50.6229 62.3305 50.8305 58.956 52.1083 55.7073C54.8629 46.6716 63.4951 40.4431 73.2735 40.4431C76.5891 40.4566 79.8627 41.1857 82.8706 42.5807C88.4733 49.8034 90.0991 59.1432 86.9644 66.9098Z" fill="#F5EA87" stroke="#231F20" stroke-width="0.188612" stroke-miterlimit="10"/>
<path d="M55.0891 59.6642C53.6621 67.2348 57.8788 73.2089 58.7589 74.4049C57.972 69.4937 58.3966 64.4646 59.9959 59.7548C63.113 50.6431 69.6924 45.7685 72.0464 44.1836C63.306 45.6661 56.5453 51.9209 55.0891 59.6642Z" fill="white" stroke="#FFF200" stroke-width="0.330898" stroke-miterlimit="10"/>
<path d="M159.336 125.247L159.266 125.583C158.464 129.531 157.66 133.478 156.853 137.423C155.436 132.955 154.017 128.488 152.595 124.022C150.145 116.302 147.693 108.583 145.238 100.865L147.721 89.043L159.336 125.247Z" fill="#FC97D9" stroke="#231F20" stroke-width="0.188612" stroke-miterlimit="10"/>
<path d="M107.57 45.8212L129.01 45.7539H151.705L150.535 46.2335L132.405 53.7047L123.34 57.433L114.275 61.1409V60.6409L127.659 66.612L141.014 72.6124L142.005 73.0598L140.923 72.9867C136.107 72.665 131.274 72.3639 126.472 72.0247L112.027 71.0217L126.487 71.7907C131.309 72.0393 136.137 72.3288 140.947 72.5978L140.856 72.9692L127.446 67.074L114.042 61.1438L113.457 60.8865L114.042 60.6438L123.106 56.9096L132.171 53.1959L150.328 45.7773L150.421 46.2569L128.981 46.0756L107.57 45.8212Z" fill="#FFCC42"/>
<path d="M42.5437 85.1204L21.8874 90.8635L1.21061 96.5452L0 96.8668L0.994216 96.0978L16.4923 84.0911L24.256 78.0937L32.0284 72.1137L32.1542 72.5991L17.6708 70.3856L3.18734 68.1398L2.11125 67.9731L3.17857 67.7567C7.90695 66.7917 12.6324 65.8034 17.3666 64.8589L31.5664 62.002L17.4105 65.0869C12.6938 66.125 7.97129 67.1339 3.25168 68.1369V67.7538L17.7497 69.8914L32.2565 72.0611L32.8881 72.1547L32.3823 72.5465L24.6157 78.5498L16.8461 84.5327L1.29833 96.4925L1.08194 96.0539L21.8026 90.5535L42.5437 85.1204Z" fill="#FFCC42"/>
<path d="M44.79 44.1831L23.9845 24.3484L23.5312 23.9186L24.1336 24.0882L49.3575 31.1647L49.0622 31.3372L60.2851 -13.2096L60.6273 -14.5723L60.8495 -13.1833L67.847 30.5623L67.385 30.5389L74.1428 5.64252L74.2744 5.15711L74.4381 5.63083L83.4826 32.1881L74.1457 5.73317L74.4411 5.72148L67.8412 30.6617L67.5576 31.732L67.3792 30.6354L60.2793 -13.0926L60.8437 -13.0663L49.5242 31.4542L49.4628 31.691L49.2289 31.6238L24.0488 24.3865L24.198 24.1262L44.79 44.1831Z" fill="#FFCC42"/>
<path d="M77.8975 105.289L77.8945 105.316V105.289H77.8975Z" fill="#EF4570" stroke="#231F20" stroke-width="0.330898" stroke-miterlimit="10"/>
<path d="M55.2745 174.382L44.9638 167.949L34.0742 111.252L44.3878 117.685L55.2745 174.382Z" fill="white"/>
<path d="M130.416 97.2359C126.517 96.3294 122.627 95.4171 118.745 94.4989L110.613 80.4629L122.269 83.1941L130.416 97.2359Z" fill="white"/>
<path d="M13.0195 48.4076C17.6309 48.3725 21.0932 48.1385 22.3506 47.8637C22.5172 47.8286 22.8009 47.7584 23.646 47.5713C25.2864 47.2028 25.497 47.1794 25.7894 47.0157C26.5555 46.5829 26.8947 45.729 27.1257 44.8839C28.003 41.7405 28.6317 34.1025 28.3276 34.0996C28.0234 34.0967 28.7662 43.03 29.5674 44.7377C29.9594 45.5682 30.5512 46.2886 31.2897 46.8344C31.9089 47.2154 32.5961 47.4726 33.3133 47.5917C34.1408 47.7262 38.5768 48.0742 44.6707 48.3052C38.6733 48.855 34.2841 49.3901 33.0676 49.5743C33.0676 49.5743 31.6523 49.7907 30.8628 50.5598C30.7324 50.6817 30.6175 50.8192 30.5207 50.9691C30.3217 51.2811 30.182 51.6271 30.1084 51.9897C29.9856 52.6213 29.5235 56.5719 29.0118 62.002C28.772 60.3704 28.6054 59.0632 28.503 58.2357C28.0907 54.8612 28.0468 53.557 27.1199 52.0949C26.7338 51.4831 26.2599 50.9314 25.7133 50.4574C25.0922 50.1307 24.4446 49.8568 23.7776 49.6386C22.4633 49.2238 21.094 49.0099 19.7159 49.0041C18.2216 48.9456 16.0256 48.8023 13.0195 48.4076Z" fill="white" stroke="#231F20" stroke-width="0.188612" stroke-miterlimit="10"/>
<path d="M105.328 169.402C109.939 169.367 113.402 169.13 114.659 168.858C114.826 168.82 115.109 168.75 115.954 168.566C117.595 168.194 117.805 168.174 118.098 168.007C118.864 167.577 119.203 166.72 119.434 165.878C120.311 162.735 120.94 155.097 120.636 155.094C120.332 155.091 121.075 164.021 121.873 165.732C122.267 166.565 122.861 167.287 123.601 167.835C124.223 168.213 124.91 168.469 125.628 168.589C126.452 168.724 130.891 169.074 136.985 169.305C130.985 169.855 126.598 170.39 125.382 170.575C125.382 170.575 123.967 170.791 123.177 171.557C123.047 171.68 122.932 171.818 122.832 171.966C122.636 172.281 122.496 172.627 122.42 172.99C122.297 173.619 121.835 177.569 121.323 182.999C121.083 181.368 120.917 180.075 120.814 179.236C120.402 175.861 120.358 174.557 119.431 173.095C119.047 172.483 118.574 171.931 118.028 171.458C117.406 171.129 116.758 170.855 116.089 170.639C114.775 170.221 113.406 170.007 112.027 170.004C110.515 169.943 108.334 169.8 105.328 169.402Z" fill="white" stroke="#231F20" stroke-width="0.188612" stroke-miterlimit="10"/>
</svg>
