<svg width="162" height="136" viewBox="0 0 162 136" fill="none" xmlns="http://www.w3.org/2000/svg">
<path d="M61.3153 39.4665L47.0123 31.2809L61.1903 23.0686H45.1987L53.3554 9.17272L39.1418 17.3136V1.02291L31.0209 15.0438L22.7662 0.996094V17.3136L8.74913 9.19954L16.7449 23.0686H0.601562L14.8688 31.2809L0.726639 39.4665H16.7449L8.56153 53.3624L22.7662 45.284V61.5211L31.0209 47.661L39.1418 61.539V45.284L53.4178 53.6483L45.1987 39.4665H61.3153Z" fill="#43C6B6" stroke="#0D0D0D" stroke-width="0.330898" stroke-linejoin="round"/>
<path d="M141.791 88.5451L58.3142 100.368L41.7422 20.889L125.228 9.06641L141.791 88.5451Z" fill="white" stroke="#0D0D0D" stroke-width="0.330898" stroke-linecap="round" stroke-linejoin="round"/>
<path d="M130.052 65.9422L60.2353 75.8345L49.9883 26.6763L119.805 16.793L130.052 65.9422Z" fill="#0D0D0D" stroke="#0D0D0D" stroke-width="0.330898" stroke-linecap="round" stroke-linejoin="round"/>
<g style="mix-blend-mode:screen">
<g style="mix-blend-mode:screen">
<path d="M108.023 18.464L90.7539 71.5093L118.97 67.5469L125.67 44.7668L119.806 16.793L108.023 18.464Z" fill="white"/>
</g>
</g>
<path d="M141.798 88.5352L120.169 115.996L36.7188 127.855L58.3295 100.394L141.798 88.5352Z" fill="#43C6B6" stroke="#0D0D0D" stroke-width="0.330898" stroke-linejoin="round"/>
<path d="M60.7088 104.536L131.402 94.5273L117.769 111.837L47.0938 121.845L60.7088 104.536Z" fill="#43C6B6" stroke="#0D0D0D" stroke-width="0.330898" stroke-linejoin="round"/>
<path d="M41.7396 20.8789L20.1289 48.3399L36.701 127.828L58.3028 100.367L41.7396 20.8789Z" fill="#FC97D9" stroke="#0D0D0D" stroke-width="0.330898" stroke-linejoin="round"/>
<path d="M46.1171 59.3326L30.2693 79.4658L25.5078 56.5892L41.3467 36.4648L46.1171 59.3326Z" fill="#FC97D9" stroke="#0D0D0D" stroke-width="0.330898" stroke-linejoin="round"/>
<path d="M132.606 78.2148L62.7891 88.0982" stroke="#0D0D0D" stroke-width="0.330898" stroke-linecap="round" stroke-linejoin="round"/>
<path d="M70.2587 84.2655L62.2276 85.4093L61.3164 81.0217L69.3386 79.8867L70.2587 84.2655Z" fill="#FC97D9" stroke="#0D0D0D" stroke-width="0.330898" stroke-linecap="round" stroke-linejoin="round"/>
<path d="M80.9608 82.751L72.9385 83.8948L72.0273 79.4981L80.0406 78.3633H80.0585L80.9608 82.751Z" fill="#FC97D9" stroke="#0D0D0D" stroke-width="0.330898" stroke-linecap="round" stroke-linejoin="round"/>
<path d="M130.052 65.9422L60.2353 75.8345L49.9883 26.6763L119.805 16.793L130.052 65.9422Z" stroke="#0D0D0D" stroke-width="0.330898" stroke-linecap="round" stroke-linejoin="round"/>
<path d="M131.274 35.3252C137.654 31.9062 142.29 28.133 141.628 26.8975C140.966 25.662 135.257 27.4321 128.878 30.8512C122.498 34.2701 117.862 38.0433 118.524 39.2787C119.186 40.5142 124.894 38.7442 131.274 35.3252Z" fill="white" stroke="#0D0D0D" stroke-width="0.330898" stroke-linecap="round" stroke-linejoin="round"/>
<path d="M126.3 47.3834C130.91 44.913 134.26 42.1874 133.783 41.2955C133.304 40.4037 129.181 41.6836 124.571 44.154C119.961 46.6245 116.611 49.35 117.088 50.2419C117.566 51.1337 121.69 49.8539 126.3 47.3834Z" fill="white" stroke="#0D0D0D" stroke-width="0.330898" stroke-linecap="round" stroke-linejoin="round"/>
<path d="M107.915 56.4114C107.849 56.0503 107.692 55.7119 107.459 55.4284L88.6981 32.9449C88.4778 32.6695 88.1898 32.4563 87.8621 32.3264C87.5343 32.1964 87.1784 32.1542 86.8293 32.2038C86.4803 32.2535 86.1502 32.3931 85.8716 32.6094C85.593 32.8255 85.3757 33.1105 85.2409 33.4364C85.2409 33.4364 76.4857 59.7893 76.4679 59.8339C76.3715 60.1823 76.3608 60.5489 76.4366 60.9023C76.5125 61.2558 76.6727 61.5857 76.9035 61.8639C77.1342 62.1421 77.4286 62.3604 77.7619 62.5001C78.0952 62.6399 78.4575 62.6971 78.8176 62.6667L106.351 58.7526C106.611 58.7094 106.86 58.6133 107.082 58.4702C107.303 58.3271 107.493 58.14 107.64 57.9206C107.786 57.7011 107.886 57.454 107.934 57.1945C107.981 56.9349 107.974 56.6684 107.915 56.4114Z" fill="#F0E266" stroke="#0D0D0D" stroke-width="0.330898" stroke-linejoin="round"/>
<path d="M90.3234 55.905H90.2429V55.8336L89.707 53.2064V53.126L89.7783 53.0812L92.3423 52.7148H92.4228L92.4673 52.7863L93.0034 55.4136V55.494H92.9319L90.3234 55.905Z" fill="#0D0D0D" stroke="#0D0D0D" stroke-width="0.330898" stroke-linecap="round" stroke-linejoin="round"/>
<path d="M89.4273 51.5945H89.3467L89.3023 51.5231L87.5156 42.6852V42.6046H87.5869L90.1509 42.2383H90.2312V42.3098L92.0179 51.1567V51.2281H91.9465L89.4273 51.5945Z" fill="#0D0D0D" stroke="#0D0D0D" stroke-width="0.330898" stroke-linecap="round" stroke-linejoin="round"/>
<path d="M107.915 56.4114C107.849 56.0503 107.692 55.7119 107.459 55.4284L88.6981 32.9449C88.4778 32.6695 88.1898 32.4563 87.8621 32.3264C87.5343 32.1964 87.1784 32.1542 86.8293 32.2038C86.4803 32.2535 86.1502 32.3931 85.8716 32.6094C85.593 32.8255 85.3757 33.1105 85.2409 33.4364C85.2409 33.4364 76.4857 59.7893 76.4679 59.8339C76.3715 60.1823 76.3608 60.5489 76.4366 60.9023C76.5125 61.2558 76.6727 61.5857 76.9035 61.8639C77.1342 62.1421 77.4286 62.3604 77.7619 62.5001C78.0952 62.6399 78.4575 62.6971 78.8176 62.6667L106.351 58.7526C106.611 58.7094 106.86 58.6133 107.082 58.4702C107.303 58.3271 107.493 58.14 107.64 57.9206C107.786 57.7011 107.886 57.454 107.934 57.1945C107.981 56.9349 107.974 56.6684 107.915 56.4114Z" stroke="#020203" stroke-width="0.330898" stroke-linecap="round" stroke-linejoin="round"/>
<path d="M160.784 95.3201C161.506 97.9194 161.597 100.653 161.052 103.295C160.507 105.937 159.341 108.411 157.648 110.512C151.932 117.464 141.211 116.338 136.056 115.793C114.41 113.514 95.8541 120.869 80.6221 128.366C71.6258 132.834 63.4337 134.996 56.108 134.996C51.5402 135.047 47.0189 134.073 42.877 132.146C29.2978 125.73 25.3134 110.842 24.9562 109.422L17.9609 88.8145L21.3647 87.6618L28.3776 108.385C28.3827 108.441 28.3827 108.498 28.3776 108.555C28.3776 108.698 31.9513 123.121 44.3869 128.956C53.5084 133.254 65.149 131.985 78.9874 125.185C94.7108 117.455 113.829 109.877 136.377 112.263C143.623 113.023 150.877 113.067 154.825 108.269C156.35 106.345 157.281 104.019 157.506 101.576C157.884 98.0229 157 94.4503 155.006 91.4855C153.013 88.5209 150.039 86.3538 146.607 85.3652C144.788 84.8615 142.91 84.6089 141.023 84.6145L140.238 80.8256C140.238 80.8256 156.335 79.5477 160.784 95.3201Z" fill="#F0E266" stroke="#0D0D0D" stroke-width="0.330898" stroke-linejoin="round"/>
<path d="M136.431 112.258C128.233 111.407 119.956 111.787 111.871 113.384C112.034 114.583 112.355 115.755 112.827 116.869C120.476 115.381 128.303 115.032 136.054 115.833L138.19 116.047C138.593 114.894 138.843 113.692 138.931 112.473C138.1 112.419 137.269 112.347 136.431 112.258Z" fill="#0D0D0D" stroke="#0D0D0D" stroke-width="0.330898" stroke-linecap="round" stroke-linejoin="round"/>
<path d="M128.255 125.227C135.734 125.227 141.798 119.142 141.798 111.635C141.798 104.128 135.734 98.043 128.255 98.043C120.775 98.043 114.711 104.128 114.711 111.635C114.711 119.142 120.775 125.227 128.255 125.227Z" fill="#FC97D9" stroke="#0D0D0D" stroke-width="0.330898" stroke-linejoin="round"/>
<path d="M124.028 107.635C125.513 106.14 125.905 104.122 124.904 103.127C123.903 102.132 121.887 102.538 120.403 104.033C118.918 105.528 118.526 107.546 119.527 108.541C120.528 109.536 122.543 109.13 124.028 107.635Z" fill="white" stroke="#0D0D0D" stroke-width="0.330898" stroke-linecap="round" stroke-linejoin="round"/>
<path d="M28.3657 108.712C28.3657 108.658 28.3658 108.605 28.3212 108.551L21.9784 89.7852L18.6016 90.929L24.9086 109.588C24.9712 109.847 25.1586 110.535 25.4892 111.536C26.6246 111.104 27.7068 110.544 28.7142 109.865C28.482 109.177 28.3657 108.739 28.3657 108.712Z" fill="#0D0D0D" stroke="#0D0D0D" stroke-width="0.330898" stroke-linecap="round" stroke-linejoin="round"/>
<path d="M33.5833 101.992L28.0622 85.6836L11.2578 91.3759L16.7788 107.693C17.5739 110.053 21.9871 110.696 26.6059 109.123C31.2247 107.55 34.3783 104.36 33.5833 101.992Z" fill="#F0E266" stroke="#0D0D0D" stroke-width="0.330898" stroke-linejoin="round"/>
<path d="M21.0531 92.7197C25.6926 91.1452 28.8035 87.9517 28.0015 85.5869C27.1994 83.222 22.788 82.5812 18.1485 84.1557C13.509 85.7301 10.3981 88.9236 11.2002 91.2885C12.0023 93.6533 16.4136 94.2941 21.0531 92.7197Z" fill="white" stroke="#0D0D0D" stroke-width="0.330898" stroke-linejoin="round"/>
<path d="M17.0629 90.4583C18.1889 90.0762 18.9437 89.3006 18.7488 88.7258C18.5539 88.1511 17.483 87.995 16.357 88.3772C15.231 88.7592 14.4764 89.5349 14.6713 90.1095C14.8662 90.6843 15.9369 90.8404 17.0629 90.4583Z" fill="#0D0D0D" stroke="#0D0D0D" stroke-width="0.330898" stroke-linecap="round" stroke-linejoin="round"/>
<path d="M22.8481 88.5051C23.9741 88.1231 24.7289 87.3473 24.5341 86.7726C24.3391 86.198 23.2682 86.0419 22.1422 86.4239C21.0163 86.8061 20.2616 87.5817 20.4564 88.1564C20.6514 88.7312 21.7221 88.8873 22.8481 88.5051Z" fill="#0D0D0D" stroke="#0D0D0D" stroke-width="0.330898" stroke-linecap="round" stroke-linejoin="round"/>
</svg>
