<svg width="338" height="336" viewBox="0 0 338 336" fill="none" xmlns="http://www.w3.org/2000/svg">
<path d="M303.304 215.41C303.597 218.035 302.867 220.673 301.266 222.77C300.415 223.827 299.357 224.698 298.157 225.33C296.957 225.962 295.641 226.341 294.289 226.443L76.3162 244.355C74.9417 244.467 73.5582 244.307 72.2452 243.883C70.9322 243.459 69.7154 242.78 68.6643 241.883C66.6596 240.134 65.3612 237.711 65.0135 235.069C64.7901 233.284 65.0696 231.472 65.8202 229.841L152.816 31.4943C153.522 29.8612 154.663 28.4546 156.112 27.4279C157.563 26.4012 159.267 25.794 161.037 25.6727C162.839 25.5231 164.65 25.8447 166.292 26.6063C167.933 27.3681 169.351 28.5435 170.404 30.018L276.467 176.183L301.332 210.41C301.925 211.233 302.406 212.131 302.757 213.083C303.025 213.836 303.208 214.616 303.304 215.41Z" fill="#F0E266" stroke="#020203" stroke-width="0.4" stroke-linecap="round" stroke-linejoin="round"/>
<g style="mix-blend-mode:screen">
<g style="mix-blend-mode:screen">
<path d="M253.739 144.833L176.526 236.167L76.3354 244.4C74.044 244.574 71.7586 243.988 69.8315 242.733L207.004 80.4868L253.739 144.833Z" fill="white"/>
</g>
</g>
<path d="M76.3348 244.4C74.9623 244.514 73.5808 244.355 72.2699 243.931C70.9592 243.507 69.7451 242.825 68.6983 241.927C66.6817 240.18 65.3808 237.748 65.0463 235.097C64.8299 233.321 65.0986 231.521 65.8236 229.887L152.819 31.5401C153.52 29.9024 154.659 28.4908 156.109 27.4608C157.56 26.4308 159.266 25.8226 161.039 25.703C162.84 25.5532 164.648 25.8751 166.287 26.6371C167.926 27.3992 169.341 28.5751 170.391 30.0497L301.348 210.409C302.409 211.867 303.081 213.573 303.3 215.364C303.596 217.987 302.859 220.624 301.246 222.709C300.401 223.771 299.348 224.645 298.15 225.276C296.951 225.91 295.635 226.286 294.284 226.382L76.3106 244.293L76.3348 244.4Z" stroke="#020203" stroke-width="0.4" stroke-linecap="round" stroke-linejoin="round"/>
<path d="M300.127 223.948L283.336 242.285C281.594 244.161 279.211 245.311 276.661 245.5L59.3786 263.355C57.9518 263.477 56.5149 263.311 55.1519 262.87C53.789 262.428 52.5272 261.718 51.4403 260.783L68.6829 241.928C69.7313 242.829 70.9479 243.511 72.2617 243.936C73.5753 244.36 74.9599 244.517 76.3348 244.399L294.308 226.488C296.472 226.299 298.514 225.408 300.127 223.948Z" fill="#B8A70E" stroke="#020203" stroke-width="0.4" stroke-linecap="round" stroke-linejoin="round"/>
<path d="M65.8369 229.855C65.0918 231.489 64.8125 233.298 65.0301 235.083C65.3873 237.721 66.6841 240.142 68.6809 241.897L51.4715 260.78C49.3749 258.964 48.0178 256.439 47.6586 253.685C47.441 251.859 47.7215 250.009 48.4705 248.332L135.188 50.5508C135.632 49.5316 136.238 48.5917 136.984 47.7683L154.202 28.9929C153.285 30.6184 152.437 32.3465 151.685 34.0979L65.8369 229.855Z" fill="#B8A70E" stroke="#020203" stroke-width="0.4" stroke-linecap="round" stroke-linejoin="round"/>
<path d="M188.521 170.761L179.987 97.1845L179.825 96.9031L179.523 96.8041L159.201 98.4741L158.934 98.6198L158.851 98.9213L167.386 172.498L167.531 172.78L167.833 172.88L188.156 171.209L188.423 171.064L188.521 170.761Z" fill="#0D0D0D" stroke="#0D0D0D" stroke-width="0.4" stroke-linecap="round" stroke-linejoin="round"/>
<path d="M191.782 199.153L189.256 177.443L189.128 177.206L188.843 177.121L168.519 178.791L168.283 178.919L168.211 179.173L170.721 200.884L170.865 201.136L171.12 201.223L191.444 199.553L191.696 199.424L191.782 199.153Z" fill="#0D0D0D" stroke="#0D0D0D" stroke-width="0.4" stroke-linecap="round" stroke-linejoin="round"/>
<path d="M254.475 91.6121C254.1 88.5368 252.582 85.7158 250.226 83.7113C247.87 81.7068 244.847 80.6665 241.762 80.7972L226.398 81.4119L241.734 79.5488C244.787 79.1874 247.592 77.6862 249.591 75.3438C251.589 73.0015 252.635 69.99 252.519 66.9084L251.951 51.4037L253.683 66.632C254.035 69.7263 255.542 72.5725 257.903 74.5965C260.264 76.6203 263.302 77.671 266.403 77.5367L281.659 76.8709L266.41 78.7115C263.342 79.0828 260.529 80.6018 258.53 82.9648C256.533 85.3278 255.498 88.3605 255.633 91.4566L256.312 106.847L254.475 91.6121Z" fill="white"/>
<path d="M151.587 295.447C151.331 293.31 150.283 291.348 148.651 289.956C147.019 288.561 144.924 287.838 142.785 287.928L132.138 288.4L142.841 287.102C144.953 286.845 146.892 285.8 148.274 284.176C149.656 282.551 150.38 280.462 150.304 278.325L149.908 267.495L151.101 278.073C151.347 280.222 152.394 282.197 154.031 283.6C155.668 285.003 157.773 285.731 159.922 285.636L170.509 285.185L159.928 286.458C157.803 286.72 155.855 287.777 154.47 289.417C153.086 291.058 152.367 293.163 152.456 295.313L152.933 305.997L151.587 295.447Z" fill="white"/>
</svg>
