<svg width="145" height="165" viewBox="0 0 145 165" fill="none" xmlns="http://www.w3.org/2000/svg">
<path d="M33.3882 9.60117C35.2603 9.62866 37.132 9.51895 38.9881 9.27291L39.7697 9.09315C40.7545 8.8704 40.8834 8.85868 41.0593 8.76098C41.2676 8.60941 41.4439 8.41814 41.5781 8.19816C41.7122 7.97818 41.8015 7.73384 41.8409 7.47921C42.3567 5.58 42.7396 1.00391 42.5599 1C42.3801 0.996094 42.8217 6.36157 43.3024 7.39324C43.5384 7.89394 43.8957 8.3278 44.3419 8.65547C44.715 8.87915 45.1276 9.02906 45.5572 9.09706C46.0535 9.17912 48.7147 9.39015 52.3764 9.53083C48.7734 9.863 46.1239 10.1834 45.4087 10.2929C44.9221 10.3668 44.4644 10.5706 44.084 10.8829C44.008 10.9579 43.9399 11.0404 43.8807 11.1291C43.7631 11.3165 43.6784 11.5227 43.6306 11.7388C43.5564 12.1295 43.2867 14.4743 42.9741 17.749C42.8295 16.7721 42.7279 15.9866 42.6693 15.4942C42.4192 13.466 42.3919 12.6845 41.8369 11.7974C41.6038 11.4319 41.321 11.1004 40.9967 10.8126C39.8853 10.2312 38.648 9.93192 37.3937 9.94115C36.0536 9.89662 34.7166 9.78314 33.3882 9.60117Z" fill="white" stroke="#231F20" stroke-width="0.188612" stroke-miterlimit="10"/>
<path d="M130.955 59.2505L120.177 60.9387L130.955 59.2505Z" fill="#3578BD" stroke="#231F20" stroke-width="0.281264" stroke-linejoin="round"/>
<path d="M114.011 130.783V130.796L113.999 130.8V130.788H114.003L114.007 130.783H114.011Z" fill="#EF4570" stroke="#231F20" stroke-width="0.281264" stroke-linejoin="round"/>
<path d="M131.045 145.352H131.034L131.026 136.172L131.002 128.134H131.006L131.045 145.352Z" fill="#EF4570" stroke="#231F20" stroke-width="0.281264" stroke-linejoin="round"/>
<path d="M114 130.787V130.799L103.21 132.483V132.479L113.988 130.787H114Z" fill="#3578BD" stroke="#231F20" stroke-width="0.281264" stroke-linejoin="round"/>
<path d="M131.003 128.134L120.217 129.818L117.52 130.24L114.011 130.783L114.003 123.456L120.217 122.483H120.229L131.003 128.134Z" fill="#CB409B" stroke="#231F20" stroke-width="0.281264" stroke-linejoin="round"/>
<path d="M114.011 130.783V130.787L114.007 130.783H114.011Z" fill="#3578BD" stroke="#231F20" stroke-width="0.281264" stroke-linejoin="round"/>
<path d="M114.026 113.562L114.003 113.565L113.979 106.234L114.011 106.23L114.026 113.562Z" fill="#4B8CCA" stroke="#231F20" stroke-width="0.281264" stroke-linejoin="round"/>
<path d="M113.96 96.3516V96.3555L103.182 98.0398V98.0358L113.96 96.3516Z" fill="#3578BD" stroke="#231F20" stroke-width="0.281264" stroke-linejoin="round"/>
<path d="M114.003 113.565V113.573L113.999 113.565H114.003Z" fill="#3578BD" stroke="#231F20" stroke-width="0.281264" stroke-linejoin="round"/>
<path d="M113.977 79.1296L113.96 79.1337V79.1296H113.977Z" fill="#FEDB7C" stroke="#231F20" stroke-width="0.281264" stroke-linejoin="round"/>
<path d="M113.98 79.1218V79.1336V79.1297H113.976L113.98 79.1218Z" fill="#FEDB7C" stroke="#231F20" stroke-width="0.281264" stroke-linejoin="round"/>
<path d="M131.002 93.6901V93.5182L130.982 84.3348L130.975 76.48V76.4722H130.979V76.48L131.006 93.6901H131.002Z" fill="#FEDB7C" stroke="#231F20" stroke-width="0.281264" stroke-linejoin="round"/>
<path d="M113.96 79.1334L103.182 73.4905V73.4827L113.96 79.1334Z" fill="#3578BD" stroke="#231F20" stroke-width="0.281264" stroke-linejoin="round"/>
<path d="M113.976 79.1298L113.96 79.1337L103.182 73.4829L103.202 73.479L113.976 79.1298Z" fill="#4B8CCA" stroke="#231F20" stroke-width="0.281264" stroke-linejoin="round"/>
<path d="M113.98 79.1219V79.1297H113.977L113.98 79.1219L113.965 71.7947L113.98 79.1219Z" fill="#4B8CCA"/>
<path d="M113.98 79.1219V79.1297H113.977L113.98 79.1219ZM113.98 79.1219L113.965 71.7947L113.98 79.1219Z" stroke="#231F20" stroke-width="0.281264" stroke-linejoin="round"/>
<path d="M130.979 76.4724H130.975V76.4685L130.979 76.4724Z" fill="#4B8CCA" stroke="#231F20" stroke-width="0.281264" stroke-linejoin="round"/>
<path d="M114.027 113.566V113.562L114.011 106.231L114.007 104.39L114.004 96.3516H113.988H113.961L103.183 98.0359L100.475 98.4618L96.981 99.005V98.8331L96.9692 91.6739V89.6496L96.9458 81.787L100.475 81.236L103.183 80.8179L113.961 79.1336L113.976 79.1297H113.98V79.1336V79.1219L113.964 71.7947L113.961 69.9502L113.953 61.9117L117.474 61.3646L120.178 60.9387L130.956 59.2505L130.975 67.2889L130.987 76.4724L130.975 76.4606V76.4802L130.983 84.3349L131.003 93.5184V93.6903H131.007L131.05 110.912L114.027 113.566Z" fill="#44C6B6" stroke="#231F20" stroke-width="0.281264" stroke-linejoin="round"/>
<path d="M113.98 79.1219V79.1336V79.1297V79.1219L113.965 71.7947L113.98 79.1219Z" fill="#FEDB7C"/>
<path d="M113.98 79.1219V79.1336V79.1297V79.1219ZM113.98 79.1219L113.965 71.7947L113.98 79.1219Z" stroke="#231F20" stroke-width="0.281264" stroke-linejoin="round"/>
<path d="M130.955 59.2505L120.177 60.9387L117.473 61.3646L113.952 61.9117L117.473 61.3607L120.177 60.9387L130.955 59.2505Z" fill="#FEDB7C" stroke="#231F20" stroke-width="0.281264" stroke-linejoin="round"/>
<path d="M130.999 76.4724L130.979 76.4802H130.975V76.4606L130.987 76.4724L130.975 67.2889L130.956 59.2505H130.959L130.999 76.4724Z" fill="#FEDB7C" stroke="#231F20" stroke-width="0.281264" stroke-linejoin="round"/>
<path d="M113.979 79.1216L113.975 79.1295L103.201 73.4787L103.158 73.467V56.2607L113.952 61.9115L113.959 69.9499L113.963 71.7944L113.979 79.1216Z" fill="#208A7D" stroke="#231F20" stroke-width="0.281264" stroke-linejoin="round"/>
<path d="M113.98 79.1219V79.1336V79.1297H113.977L113.98 79.1219L113.965 71.7947L113.98 79.1219Z" fill="#FFCC42"/>
<path d="M113.98 79.1219V79.1336V79.1297H113.977L113.98 79.1219ZM113.98 79.1219L113.965 71.7947L113.98 79.1219Z" stroke="#231F20" stroke-width="0.281264" stroke-linejoin="round"/>
<path d="M130.955 59.2506L120.177 60.9388L117.473 61.3608L113.952 61.9118L103.158 56.2611L120.177 53.6077H120.181L130.955 59.2506Z" fill="#208A7D" stroke="#231F20" stroke-width="0.281264" stroke-linejoin="round"/>
<path d="M130.955 59.2505L120.177 60.9387L117.473 61.3646L113.952 61.9117L117.473 61.3607L120.177 60.9387L130.955 59.2505Z" fill="#FFCC42" stroke="#231F20" stroke-width="0.281264" stroke-linejoin="round"/>
<path d="M130.959 59.2506H130.956L120.182 53.6077L130.959 59.2506Z" fill="#FFCC42" stroke="#231F20" stroke-width="0.281264" stroke-linejoin="round"/>
<path d="M114 130.795V130.799L103.21 132.483V132.479L113.988 130.787L114 130.795Z" fill="#3578BD" stroke="#231F20" stroke-width="0.281264" stroke-linejoin="round"/>
<path d="M113.999 130.787V130.799L103.209 132.483L97.0034 133.449H96.9917V133.456H96.98V133.445H96.9917L97.0034 133.441L100.509 132.901L103.209 132.479L113.987 130.787H113.999Z" fill="#EF4570" stroke="#231F20" stroke-width="0.281264" stroke-linejoin="round"/>
<path d="M96.98 133.448V133.456L86.1943 135.141V135.133L96.98 133.445V133.448Z" fill="#3578BD" stroke="#231F20" stroke-width="0.281264" stroke-linejoin="round"/>
<path d="M100.509 132.902L97.0034 133.445V133.449H96.98V133.445H96.9917L97.0034 133.441L100.509 132.902Z" fill="#4B8CCA" stroke="#231F20" stroke-width="0.281264" stroke-linejoin="round"/>
<path d="M96.9806 116.223V116.227H96.9688L96.9806 116.223Z" fill="#A37DB8" stroke="#231F20" stroke-width="0.281264" stroke-linejoin="round"/>
<path d="M114.011 130.783V130.795L113.999 130.799L103.21 132.483L97.0039 133.449V133.441L100.509 132.901L103.21 132.479L113.987 130.787H114.003L114.007 130.783H114.011Z" fill="#A37DB8" stroke="#231F20" stroke-width="0.281264" stroke-linejoin="round"/>
<path d="M86.4523 127.767L86.21 127.798L86.1943 127.794V127.626L86.4523 127.767Z" fill="#3578BD" stroke="#231F20" stroke-width="0.281264" stroke-linejoin="round"/>
<path d="M97.0045 133.441V133.449H96.9927V133.445L97.0045 133.441Z" fill="#3578BD" stroke="#231F20" stroke-width="0.281264" stroke-linejoin="round"/>
<path d="M96.9805 116.223V116.227H96.9688L86.1831 110.58H86.1948L96.9805 116.223Z" fill="#4B8CCA" stroke="#231F20" stroke-width="0.281264" stroke-linejoin="round"/>
<path d="M113.96 96.3516V96.3555L103.182 98.0398L96.98 99.0128V99.005L100.474 98.4618L103.182 98.0358L113.96 96.3516Z" fill="#A37DB8" stroke="#231F20" stroke-width="0.281264" stroke-linejoin="round"/>
<path d="M114.002 113.565V113.573L113.979 113.577V113.573L113.998 113.565H114.002Z" fill="#A37DB8" stroke="#231F20" stroke-width="0.281264" stroke-linejoin="round"/>
<path d="M96.981 116.223L86.1953 110.58L86.1641 110.564V93.3621L96.9458 99.0128L96.9693 107.047V108.896L96.981 116.223Z" fill="#B9AB2B" stroke="#231F20" stroke-width="0.281264" stroke-linejoin="round"/>
<path d="M96.9883 116.227H96.9844V116.231H96.9883V116.227Z" fill="#855AA5" stroke="#231F20" stroke-width="0.281264" stroke-linejoin="round"/>
<path d="M96.981 98.8331V99.005L96.9458 99.0128L86.1641 93.3621H86.1953L86.4532 93.323L96.981 98.8331Z" fill="#4B8CCA" stroke="#231F20" stroke-width="0.281264" stroke-linejoin="round"/>
<path d="M113.96 79.1334L103.182 73.4905V73.4827L113.96 79.1334Z" fill="#3578BD" stroke="#231F20" stroke-width="0.281264" stroke-linejoin="round"/>
<path d="M114.003 96.3516H113.999V96.3555H114.003V96.3516Z" fill="#3578BD" stroke="#231F20" stroke-width="0.281264" stroke-linejoin="round"/>
<path d="M113.999 96.3516L113.96 96.3555L103.182 98.0398L96.98 99.0128V99.005L100.474 98.4618L103.182 98.0358L113.96 96.3516H113.987H113.999Z" fill="#FEDB7C" stroke="#231F20" stroke-width="0.281264" stroke-linejoin="round"/>
<path d="M96.981 98.8331V99.0129V99.0051L86.1953 93.3621L86.1641 93.3465V93.1667L86.4532 93.3231L96.981 98.8331Z" fill="#3578BD" stroke="#231F20" stroke-width="0.281264" stroke-linejoin="round"/>
<path d="M113.961 79.1334L103.183 80.8177L100.475 81.2358L96.9462 81.7868V81.6149L86.4185 76.1048L103.183 73.4827V73.4905L113.961 79.1334Z" fill="#208A7D" stroke="#231F20" stroke-width="0.281264" stroke-linejoin="round"/>
<path d="M96.9458 81.615V81.787L86.1641 76.1401L86.4181 76.105L96.9458 81.615Z" fill="#FFCC42" stroke="#231F20" stroke-width="0.281264" stroke-linejoin="round"/>
<path d="M86.4523 127.767L86.21 127.798L86.1982 127.802H86.1943V127.626L86.4523 127.767Z" fill="#3578BD" stroke="#231F20" stroke-width="0.281264" stroke-linejoin="round"/>
<path d="M96.98 133.445V133.456L86.1943 135.141V135.133L96.98 133.445Z" fill="#3578BD" stroke="#231F20" stroke-width="0.281264" stroke-linejoin="round"/>
<path d="M80.0167 153.324H80.0049V153.32L80.0167 153.324Z" fill="#EF4570" stroke="#231F20" stroke-width="0.281264" stroke-linejoin="round"/>
<path d="M96.9928 133.449V133.457H96.9811L86.1954 135.141L79.9937 136.106L79.9702 136.11V136.106L79.9819 136.102H79.9937L83.499 135.559L86.1954 135.133L96.9811 133.449H96.9928Z" fill="#EF4570" stroke="#231F20" stroke-width="0.281264" stroke-linejoin="round"/>
<path d="M79.9815 136.102L79.9697 136.106L69.2114 130.467L69.188 130.459H69.1997H69.2114L77.7462 134.93L78.5043 135.32L79.833 136.028L79.9815 136.102Z" fill="#4B8CCA" stroke="#231F20" stroke-width="0.281264" stroke-linejoin="round"/>
<path d="M114.011 130.784H114.007L114.003 130.787H113.988L103.21 132.48L100.509 132.902L97.004 133.441L96.9923 133.445H96.9806L86.1949 135.133L83.4985 135.559L79.9932 136.102L79.9815 128.775L79.9697 126.923L79.958 118.888L83.4751 118.341H83.4868L86.1832 117.915L96.9689 116.227H96.9806V116.223L96.9689 108.896V107.047L96.9454 99.0128L96.9806 99.005V99.0128L103.182 98.0398L113.96 96.3555L113.98 106.235L114.003 113.566H113.999L113.98 113.573V113.577L114.003 123.456L114.011 130.784Z" fill="#F0E266" stroke="#231F20" stroke-width="0.281264" stroke-linejoin="round"/>
<path d="M83.4751 118.341L79.958 118.888V118.884L83.4751 118.341Z" fill="#A37DB8" stroke="#231F20" stroke-width="0.281264" stroke-linejoin="round"/>
<path d="M97.004 133.441V133.448H96.9923V133.456H96.9806L86.1949 135.141L79.9932 136.106V136.102L83.4985 135.559L86.1949 135.133L96.9806 133.445H96.9923L97.004 133.441Z" fill="#A37DB8" stroke="#231F20" stroke-width="0.281264" stroke-linejoin="round"/>
<path d="M79.9942 136.102H79.9824L79.8339 136.028L78.5053 135.321L77.7472 134.93L69.2124 130.459L69.1733 130.44V113.241L79.959 118.888L79.9707 126.923L79.9824 128.775L79.9942 136.102Z" fill="#B9AB2B" stroke="#231F20" stroke-width="0.281264" stroke-linejoin="round"/>
<path d="M78.5039 135.321L79.9811 136.102L79.8326 136.028L78.5039 135.321Z" fill="#855AA5" stroke="#231F20" stroke-width="0.281264" stroke-linejoin="round"/>
<path d="M79.9932 136.102V136.106V136.102Z" fill="#855AA5" stroke="#231F20" stroke-width="0.281264" stroke-linejoin="round"/>
<path d="M96.9698 116.227L86.1842 117.915L83.4878 118.341H83.4761L79.959 118.884V118.888L69.1733 113.241L86.1842 110.58L96.9698 116.227Z" fill="#FFCC42" stroke="#231F20" stroke-width="0.281264" stroke-linejoin="round"/>
<path d="M83.4751 118.341L79.958 118.888V118.884L83.4751 118.341Z" fill="#855AA5" stroke="#231F20" stroke-width="0.281264" stroke-linejoin="round"/>
<path d="M96.981 98.833L86.4532 93.3229L86.1641 93.1666V76.1401L96.9458 81.787L96.9693 89.6496V91.6738L96.981 98.833Z" fill="#208A7D" stroke="#231F20" stroke-width="0.281264" stroke-linejoin="round"/>
<path d="M96.9458 81.6151V81.787L86.1641 76.1402V75.9722L86.4181 76.105L96.9458 81.6151Z" fill="#FFCC42" stroke="#231F20" stroke-width="0.281264" stroke-linejoin="round"/>
<path d="M79.9702 136.11V136.106L69.2119 130.467V130.463L77.7466 134.93L79.8334 136.028L79.9819 136.102H79.9937V136.106L79.9702 136.11Z" fill="#3578BD" stroke="#231F20" stroke-width="0.281264" stroke-linejoin="round"/>
<path d="M80.0197 153.32V153.327L80.0161 153.324L80.0197 153.32Z" fill="#3578BD" stroke="#231F20" stroke-width="0.281264" stroke-linejoin="round"/>
<path d="M131.034 145.352L114.027 148.005V148.013L97.0158 150.667L80.0206 153.32L80.0167 153.324L80.005 153.32V153.324H80.0167L80.0206 153.328L63.0176 155.985L62.9824 138.771L62.9941 138.767H63.0059V138.763L66.4995 138.22L69.1881 137.794H69.2115L79.9698 136.11L79.9933 136.106L86.195 135.141L96.9807 133.457H96.9924V133.449H97.0041L103.21 132.483L113.999 130.799L114.011 130.795V130.784L117.52 130.24L120.217 129.818L131.002 128.134L131.026 136.172L131.034 145.352Z" fill="#FC97D9" stroke="#231F20" stroke-width="0.281264" stroke-linejoin="round"/>
<path d="M62.9824 138.771L63.0176 155.985H63.0059V155.813L62.9941 146.806L62.9824 138.783V138.763H62.9941H63.0059L66.4995 138.22L63.0059 138.763V138.767H62.9941L62.9824 138.771Z" fill="#EF4570" stroke="#231F20" stroke-width="0.281264" stroke-linejoin="round"/>
<path d="M80.0167 153.324H80.0049V153.32L80.0167 153.324Z" fill="#EF4570" stroke="#231F20" stroke-width="0.281264" stroke-linejoin="round"/>
<path d="M80.0197 153.32V153.327L80.0161 153.324L80.0197 153.32Z" fill="#EF4570" stroke="#231F20" stroke-width="0.281264" stroke-linejoin="round"/>
<path d="M63.0059 155.813L62.9941 146.806L62.9824 138.783L62.9941 146.63L63.0059 155.813Z" fill="#3578BD" stroke="#231F20" stroke-width="0.281264" stroke-linejoin="round"/>
<path d="M79.9698 136.106V136.11L69.2115 137.794H69.1881L66.4995 138.22L63.0059 138.763L62.9824 131.436L69.1881 130.459L69.2115 130.467L79.9698 136.106Z" fill="#CB409B" stroke="#231F20" stroke-width="0.281264" stroke-linejoin="round"/>
<path d="M66.499 138.22L63.0054 138.763H62.9937V138.767H62.9819L62.9702 138.763H62.9819H62.9937L62.9819 131.436L63.0054 138.763L66.499 138.22Z" fill="#821F38" stroke="#231F20" stroke-width="0.281264" stroke-linejoin="round"/>
<path d="M79.9697 136.11V136.106L69.2114 130.467L69.188 130.459H69.1997L69.2114 130.463L77.7462 134.93L78.5043 135.32L79.833 136.028L79.9815 136.102H79.9932V136.106L79.9697 136.11Z" fill="#821F38" stroke="#231F20" stroke-width="0.281264" stroke-linejoin="round"/>
<path d="M52.1895 132.948L52.4552 133.081L52.2129 133.12L52.1895 133.113V132.948Z" fill="#3578BD" stroke="#231F20" stroke-width="0.281264" stroke-linejoin="round"/>
<path d="M62.9942 138.763V138.767L62.9824 138.763H62.9942Z" fill="#3578BD" stroke="#231F20" stroke-width="0.281264" stroke-linejoin="round"/>
<path d="M62.9434 87.1096L52.1616 88.7939L62.9434 87.1096Z" fill="#3578BD" stroke="#231F20" stroke-width="0.281264" stroke-linejoin="round"/>
<path d="M52.1895 132.948L52.4552 133.081L52.2129 133.12L52.1973 133.124H52.1895V132.948Z" fill="#3578BD" stroke="#231F20" stroke-width="0.281264" stroke-linejoin="round"/>
<path d="M62.982 138.767L62.9702 138.763H62.982V138.767Z" fill="#3578BD" stroke="#231F20" stroke-width="0.281264" stroke-linejoin="round"/>
<path d="M63.0059 155.813L62.9941 146.806L62.9824 138.783L62.9941 146.63L63.0059 155.813Z" fill="#3578BD" stroke="#231F20" stroke-width="0.281264" stroke-linejoin="round"/>
<path d="M45.9986 158.623L45.9829 149.463L45.9634 141.428H45.9751L45.9829 141.425V141.428H45.9751L45.9986 158.623Z" fill="#A37DB8" stroke="#231F20" stroke-width="0.281264" stroke-linejoin="round"/>
<path d="M63.0059 155.985V155.813L62.9941 146.806L62.9824 138.783V138.767V138.771L63.0176 155.985H63.0059Z" fill="#A37DB8" stroke="#231F20" stroke-width="0.281264" stroke-linejoin="round"/>
<path d="M45.9829 149.463L45.9634 141.428H45.9751L45.9829 149.463Z" fill="#3578BD" stroke="#231F20" stroke-width="0.281264" stroke-linejoin="round"/>
<path d="M45.9823 141.425V141.428H45.9751L45.9823 141.425Z" fill="#4B8CCA" stroke="#231F20" stroke-width="0.281264" stroke-linejoin="round"/>
<path d="M52.1967 133.124H52.1895V133.12H52.1967V133.124Z" fill="#4B8CCA" stroke="#231F20" stroke-width="0.281264" stroke-linejoin="round"/>
<path d="M45.9743 124.207L45.9521 124.21V124.207H45.9743Z" fill="#A37DB8" stroke="#231F20" stroke-width="0.281264" stroke-linejoin="round"/>
<path d="M52.1895 132.948L52.4552 133.081L52.2129 133.12L52.1973 133.124H52.1895V132.948Z" fill="#A37DB8" stroke="#231F20" stroke-width="0.281264" stroke-linejoin="round"/>
<path d="M63.0054 138.763V138.767H62.9937L62.9819 138.771V138.767L62.9702 138.763H62.9819H62.9937L62.9819 131.436V129.584L62.9585 121.553V121.545H62.9702V121.553L62.9819 131.436L63.0054 138.763Z" fill="#A37DB8" stroke="#231F20" stroke-width="0.281264" stroke-linejoin="round"/>
<path d="M45.9902 141.421H45.9863V141.425H45.9902V141.421Z" fill="#3578BD" stroke="#231F20" stroke-width="0.281264" stroke-linejoin="round"/>
<path d="M45.9639 124.207H45.9521H45.9639Z" fill="#4B8CCA" stroke="#231F20" stroke-width="0.281264" stroke-linejoin="round"/>
<path d="M45.9634 106.985H45.9752V106.989L45.9634 106.985Z" fill="#A37DB8" stroke="#231F20" stroke-width="0.281264" stroke-linejoin="round"/>
<path d="M62.9541 104.331H62.9502V104.335H62.9541V104.331Z" fill="#A37DB8" stroke="#231F20" stroke-width="0.281264" stroke-linejoin="round"/>
<path d="M62.9675 121.549H62.9639V121.557H62.9675V121.549Z" fill="#A37DB8" stroke="#231F20" stroke-width="0.281264" stroke-linejoin="round"/>
<path d="M38.8555 103.28L35.1509 101.346V101.342L38.8555 103.28Z" fill="#3578BD" stroke="#231F20" stroke-width="0.281264" stroke-linejoin="round"/>
<path d="M45.9326 106.989L35.1509 108.673L45.9326 106.989Z" fill="#3578BD" stroke="#231F20" stroke-width="0.281264" stroke-linejoin="round"/>
<path d="M45.9752 124.207H45.9634H45.9752Z" fill="#3578BD" stroke="#231F20" stroke-width="0.281264" stroke-linejoin="round"/>
<path d="M45.9639 106.985L45.9404 106.989H45.9326L38.8555 103.28L35.1509 101.342L35.1743 101.338H35.186L45.9639 106.985Z" fill="#4B8CCA" stroke="#231F20" stroke-width="0.281264" stroke-linejoin="round"/>
<path d="M45.9756 106.985H45.9639L45.9521 99.6497L45.9756 106.985Z" fill="#4B8CCA" stroke="#231F20" stroke-width="0.281264" stroke-linejoin="round"/>
<path d="M62.9434 87.1096L52.1616 88.7939L62.9434 87.1096Z" fill="#3578BD" stroke="#231F20" stroke-width="0.281264" stroke-linejoin="round"/>
<path d="M63.0055 155.813V155.985L45.9986 158.647V158.623L45.9751 141.429H45.9829V141.425L45.9751 134.094L45.9517 124.211L45.9751 124.207V124.203L45.9517 116.876L45.9321 106.989H45.9399L45.9634 106.985L45.9751 106.989V106.985L45.9517 99.6499V97.8054L45.9321 89.7709L49.457 89.2199L52.1612 88.7939L62.943 87.1096L62.9586 94.9722L62.9821 104.156V104.328L62.9469 104.331V104.328H62.943V104.331H62.9469L62.9821 121.549L62.9703 121.553V121.546H62.9586V121.553L62.9821 129.584V131.436L62.9938 138.764H62.9821H62.9703L62.9821 138.767V138.783L62.9938 146.806L63.0055 155.813Z" fill="#44C6B6" stroke="#231F20" stroke-width="0.281264" stroke-linejoin="round"/>
<path d="M45.9756 106.985V106.989L45.9639 106.985L45.9521 99.6497L45.9756 106.985Z" fill="#A37DB8" stroke="#231F20" stroke-width="0.281264" stroke-linejoin="round"/>
<path d="M52.1612 88.7939L62.943 87.1096L52.1612 88.7939L49.457 89.2199L45.9321 89.7709V89.7669L49.457 89.212L52.1612 88.7939Z" fill="#A37DB8"/>
<path d="M52.1612 88.7939L62.943 87.1096L52.1612 88.7939ZM52.1612 88.7939L49.457 89.2199L45.9321 89.7709V89.7669L49.457 89.212L52.1612 88.7939Z" stroke="#231F20" stroke-width="0.281264" stroke-linejoin="round"/>
<path d="M62.9541 104.331H62.9502V104.335H62.9541V104.331Z" fill="#A37DB8" stroke="#231F20" stroke-width="0.281264" stroke-linejoin="round"/>
<path d="M62.9829 104.328V104.156L62.9595 94.9722L62.9438 87.1096H62.9478L62.9829 104.328Z" fill="#A37DB8" stroke="#231F20" stroke-width="0.281264" stroke-linejoin="round"/>
<path d="M45.9756 106.985V106.989L45.9639 106.985L45.9521 99.6497L45.9756 106.985Z" fill="#3578BD" stroke="#231F20" stroke-width="0.281264" stroke-linejoin="round"/>
<path d="M62.9435 87.1092L52.1617 88.7935L49.4575 89.2117L45.9326 89.7666V89.7705L35.1509 84.1236L52.1617 81.4624L62.9435 87.1092Z" fill="#208A7D" stroke="#231F20" stroke-width="0.281264" stroke-linejoin="round"/>
<path d="M62.943 87.1096L52.1612 88.7939L49.457 89.2199L45.9321 89.7709V89.7669L49.457 89.212L52.1612 88.7939L62.943 87.1096Z" fill="#855AA5" stroke="#231F20" stroke-width="0.281264" stroke-linejoin="round"/>
<path d="M45.9829 149.463L45.9634 141.428H45.9751L45.9829 149.463Z" fill="#3578BD" stroke="#231F20" stroke-width="0.281264" stroke-linejoin="round"/>
<path d="M45.9986 158.623L45.9829 149.463L45.9634 141.428H45.9751L45.9986 158.623Z" fill="#FEDB7C" stroke="#231F20" stroke-width="0.281264" stroke-linejoin="round"/>
<path d="M28.9531 144.086V144.09L18.1714 145.774L28.9531 144.086Z" fill="#3578BD" stroke="#231F20" stroke-width="0.281264" stroke-linejoin="round"/>
<path d="M28.9531 144.074L28.9649 144.086H28.9531L18.1714 138.443H18.1753L18.1831 138.439L18.4254 138.4L28.9531 143.914V144.074Z" fill="#4B8CCA" stroke="#231F20" stroke-width="0.281264" stroke-linejoin="round"/>
<path d="M28.9761 144.066L28.9526 136.755H28.9644L28.9761 144.066Z" fill="#4B8CCA" stroke="#231F20" stroke-width="0.281264" stroke-linejoin="round"/>
<path d="M28.9766 144.066L28.9531 136.755V134.906L28.9414 126.868L28.9531 134.906L28.9649 136.755L28.9766 144.066Z" fill="#FEDB7C" stroke="#231F20" stroke-width="0.281264" stroke-linejoin="round"/>
<path d="M45.9824 141.425V141.428H45.9748H45.9634H45.9748L45.9824 141.425Z" fill="#FEDB7C" stroke="#231F20" stroke-width="0.281264" stroke-linejoin="round"/>
<path d="M28.9766 144.066V144.086H28.9649L28.9531 144.074V143.914L18.4254 138.4L18.1714 138.267V138.427L18.1558 138.423V121.221H18.1714L18.144 121.206V104.003L28.9219 109.65L28.9336 117.688L28.9414 119.537L28.9531 126.77V126.868H28.9414L28.9531 134.906V136.755L28.9766 144.066Z" fill="#B9AB2B" stroke="#231F20" stroke-width="0.281264" stroke-linejoin="round"/>
<path d="M18.4254 138.4L28.9531 143.914V144.074L18.1831 138.439L18.1714 138.427V138.267L18.4254 138.4Z" fill="#FFCC42" stroke="#231F20" stroke-width="0.281264" stroke-linejoin="round"/>
<path d="M28.9766 144.066L28.9531 136.755V134.906L28.9414 126.868L28.9531 134.906L28.9649 136.755L28.9766 144.066Z" fill="#FFCC42" stroke="#231F20" stroke-width="0.281264" stroke-linejoin="round"/>
<path d="M28.9531 126.77L28.9414 119.537L28.9531 126.77Z" fill="#4B8CCA" stroke="#231F20" stroke-width="0.281264" stroke-linejoin="round"/>
<path d="M45.9993 158.623V158.646L28.9962 161.308H28.9845L11.9815 163.965L11.9658 154.785L11.9463 146.747L15.4673 146.192L18.1715 145.774L28.9532 144.09V144.086H28.9767V144.066L28.965 136.755L28.9532 134.906L28.9415 126.868H28.9532V126.77L28.9415 119.537V117.688L28.922 109.65L32.4508 109.095L35.1511 108.673L45.9328 106.989L45.9524 116.875L45.9758 124.203V124.206H45.9524V124.21L45.9758 134.093L45.9836 141.424L45.9758 141.428H45.9641L45.9836 149.463L45.9993 158.623Z" fill="#F0E266" stroke="#231F20" stroke-width="0.281264" stroke-linejoin="round"/>
<path d="M28.9527 126.77L28.9409 119.537L28.9331 117.688L28.9214 109.65L28.9409 117.688V119.537L28.9527 126.77Z" fill="#FEDB7C" stroke="#231F20" stroke-width="0.281264" stroke-linejoin="round"/>
<path d="M45.9743 124.207L45.9521 124.21V124.207H45.9743Z" fill="#FEDB7C" stroke="#231F20" stroke-width="0.281264" stroke-linejoin="round"/>
<path d="M28.9527 126.77L28.9409 119.537L28.9331 117.688L28.9214 109.65L28.9409 117.688V119.537L28.9527 126.77Z" fill="#FFCC42" stroke="#231F20" stroke-width="0.281264" stroke-linejoin="round"/>
<path d="M45.9327 106.989L35.151 108.673L32.4507 109.095L28.9219 109.65L18.144 104.003L28.8867 102.323L35.151 101.342V101.346L38.8556 103.28L45.9327 106.989Z" fill="#B9AB2B" stroke="#231F20" stroke-width="0.281264" stroke-linejoin="round"/>
<path d="M45.9639 106.985L35.186 101.338H35.1743L35.1509 101.322V84.1238L45.9326 89.7706L45.9522 97.8051V99.6496L45.9639 106.985Z" fill="#208A7D" stroke="#231F20" stroke-width="0.281264" stroke-linejoin="round"/>
<path d="M35.173 101.337L35.1509 101.322L35.173 101.337Z" fill="#855AA5" stroke="#231F20" stroke-width="0.281264" stroke-linejoin="round"/>
<path d="M45.9756 106.985V106.989L45.9639 106.985L45.9521 99.6497L45.9756 106.985Z" fill="#855AA5" stroke="#231F20" stroke-width="0.281264" stroke-linejoin="round"/>
<path d="M18.1286 36.4755L18.1016 36.4832V36.4639L18.1286 36.4755Z" fill="#3578BD" stroke="#231F20" stroke-width="0.281264" stroke-linejoin="round"/>
<path d="M28.8791 42.1067V42.1302H28.8673L28.8359 42.1185H28.8438L28.8791 42.1067Z" fill="#3578BD" stroke="#231F20" stroke-width="0.281264" stroke-linejoin="round"/>
<path d="M28.8662 34.7795V34.8017V34.7795Z" fill="#4B8CCA" stroke="#231F20" stroke-width="0.281264" stroke-linejoin="round"/>
<path d="M28.8861 42.1067H28.8789H28.8861Z" fill="#4B8CCA" stroke="#231F20" stroke-width="0.281264" stroke-linejoin="round"/>
<path d="M28.9531 143.914V144.086L18.1714 138.443V138.267L18.4254 138.4L28.9531 143.914Z" fill="#3578BD" stroke="#231F20" stroke-width="0.281264" stroke-linejoin="round"/>
<path d="M18.1714 145.774L28.9531 144.086V144.09L18.1714 145.774Z" fill="#3578BD" stroke="#231F20" stroke-width="0.281264" stroke-linejoin="round"/>
<path d="M11.9658 154.785L11.9463 146.747L11.9658 154.785Z" fill="#FEDB7C" stroke="#231F20" stroke-width="0.281264" stroke-linejoin="round"/>
<path d="M11.9815 163.965L1.16064 158.303V141.1L11.9463 146.747L11.9658 154.786L11.9815 163.965Z" fill="#B9AB2B" stroke="#231F20" stroke-width="0.281264" stroke-linejoin="round"/>
<path d="M28.9532 144.086L18.1715 145.774L15.4673 146.192L11.9463 146.747L1.16064 141.1L18.1715 138.439V138.443L28.9532 144.086Z" fill="#B9AB2B" stroke="#231F20" stroke-width="0.281264" stroke-linejoin="round"/>
<path d="M28.9531 144.086L18.1714 138.443V138.439L18.1753 138.443L28.9531 144.086Z" fill="#FFCC42" stroke="#231F20" stroke-width="0.281264" stroke-linejoin="round"/>
<path d="M1.12452 56.3352L11.9024 61.9859H11.8828L1.10107 56.343L1.12452 56.3352Z" fill="#4B8CCA" stroke="#231F20" stroke-width="0.281264" stroke-linejoin="round"/>
<path d="M11.9038 61.9861L11.8921 54.6589L11.9038 61.9861Z" fill="#4B8CCA" stroke="#231F20" stroke-width="0.281264" stroke-linejoin="round"/>
<path d="M28.9108 59.3288L11.9038 61.9861L11.8921 54.6589L11.9038 61.9861L15.4092 61.439L28.899 59.3249L28.9108 59.3288Z" fill="#EF4570" stroke="#231F20" stroke-width="0.281264" stroke-linejoin="round"/>
<path d="M28.9219 59.3286H28.9102L28.8906 50.149L28.8789 42.138V42.1301H28.8672L28.8359 42.1184H28.8438L28.8789 42.1067H28.8867V42.138L28.9219 59.3286Z" fill="#EF4570" stroke="#231F20" stroke-width="0.281264" stroke-linejoin="round"/>
<path d="M11.9038 61.9861L11.8921 54.6589L11.9038 61.9861Z" fill="#821F38" stroke="#231F20" stroke-width="0.281264" stroke-linejoin="round"/>
<path d="M11.8682 44.7679L11.8564 37.4407L11.8682 44.7679Z" fill="#4B8CCA" stroke="#231F20" stroke-width="0.281264" stroke-linejoin="round"/>
<path d="M18.1262 36.4753L18.0995 36.4829V36.4943L18.0729 36.4829H18.0843L18.0576 36.4715L18.0995 36.4639L18.1262 36.4753Z" fill="#4B8CCA" stroke="#231F20" stroke-width="0.281264" stroke-linejoin="round"/>
<path d="M28.8861 42.1067H28.8789H28.8861Z" fill="#4B8CCA" stroke="#231F20" stroke-width="0.281264" stroke-linejoin="round"/>
<path d="M45.8658 22.2508L35.0763 23.939L32.3642 24.3611L28.8667 24.9121L28.855 17.5771L35.0763 16.6079V16.6118L45.8658 22.2508Z" fill="#CB409B" stroke="#231F20" stroke-width="0.281264" stroke-linejoin="round"/>
<path d="M35.0767 16.6079L45.8662 22.2508L35.0767 16.6118V16.6079Z" fill="#3578BD" stroke="#231F20" stroke-width="0.281264" stroke-linejoin="round"/>
<path d="M45.8662 22.251V22.2549L35.0767 23.9392L45.8662 22.251Z" fill="#3578BD" stroke="#231F20" stroke-width="0.281264" stroke-linejoin="round"/>
<path d="M45.8905 39.4492V39.4735L45.854 39.4573L45.8905 39.4492Z" fill="#3578BD" stroke="#231F20" stroke-width="0.281264" stroke-linejoin="round"/>
<path d="M18.1003 36.4834V36.495L18.0732 36.4834H18.0848H18.1003Z" fill="#4B8CCA" stroke="#231F20" stroke-width="0.281264" stroke-linejoin="round"/>
<path d="M45.8781 39.4729L34.1115 41.3135L31.927 41.6535L28.8867 42.1302H28.8789H28.8672L28.8359 42.1185H28.8438L28.8789 42.1068H28.8867L32.4038 41.5636L45.8429 39.4573L45.8781 39.4729Z" fill="#4B8CCA" stroke="#231F20" stroke-width="0.281264" stroke-linejoin="round"/>
<path d="M28.8551 24.916H28.8472H28.8433H28.8551Z" fill="#EF4570" stroke="#231F20" stroke-width="0.281264" stroke-linejoin="round"/>
<path d="M28.8705 24.9124H28.8633V24.916H28.8705V24.9124Z" fill="#EF4570" stroke="#231F20" stroke-width="0.281264" stroke-linejoin="round"/>
<path d="M28.8662 34.7795V34.8017V34.7795Z" fill="#EF4570" stroke="#231F20" stroke-width="0.281264" stroke-linejoin="round"/>
<path d="M45.8898 39.4492V39.4727L34.1115 41.3133L31.927 41.6532L28.8867 42.13H28.8789V42.1066H28.8867L32.4038 41.5634L45.8429 39.457H45.8546L45.8898 39.4492Z" fill="#EF4570" stroke="#231F20" stroke-width="0.281264" stroke-linejoin="round"/>
<path d="M18.1262 36.4753L18.0995 36.4829V36.4867L18.0843 36.4829L18.0576 36.4715L18.0995 36.4639L18.1262 36.4753Z" fill="#3578BD" stroke="#231F20" stroke-width="0.281264" stroke-linejoin="round"/>
<path d="M28.8797 42.1067V42.131L28.8433 42.1188L28.8797 42.1067Z" fill="#3578BD" stroke="#231F20" stroke-width="0.281264" stroke-linejoin="round"/>
<path d="M28.8672 24.9122L28.8477 17.5771H28.8555L28.8672 24.9122Z" fill="#821F38" stroke="#231F20" stroke-width="0.281264" stroke-linejoin="round"/>
<path d="M28.8359 7.69434L18.0464 9.38253L28.8242 7.69434H28.8359Z" fill="#3578BD" stroke="#231F20" stroke-width="0.281264" stroke-linejoin="round"/>
<path d="M11.8561 27.5696V27.5737H11.8398L11.848 27.5696H11.8561Z" fill="#EF4570" stroke="#231F20" stroke-width="0.281264" stroke-linejoin="round"/>
<path d="M11.8677 44.768L11.856 37.4408L11.8482 35.608L11.8325 27.5735H11.8403L11.856 35.608V37.4408L11.8677 44.768Z" fill="#EF4570" stroke="#231F20" stroke-width="0.281264" stroke-linejoin="round"/>
<path d="M18.1262 36.4753L18.0995 36.4829V36.4943L18.0729 36.4829H18.0843L18.0576 36.4715L18.0995 36.4639L18.1262 36.4753Z" fill="#EF4570" stroke="#231F20" stroke-width="0.281264" stroke-linejoin="round"/>
<path d="M28.8516 24.916H28.8477V24.9199H28.8516V24.916Z" fill="#EF4570" stroke="#231F20" stroke-width="0.281264" stroke-linejoin="round"/>
<path d="M28.8662 34.7795V34.8017V34.7795Z" fill="#EF4570" stroke="#231F20" stroke-width="0.281264" stroke-linejoin="round"/>
<path d="M28.8855 42.1067V42.1372H28.8778V42.1295H28.8664L28.8359 42.1181H28.8436L28.8778 42.1067H28.8855Z" fill="#EF4570" stroke="#231F20" stroke-width="0.281264" stroke-linejoin="round"/>
<path d="M11.8677 44.768L11.856 37.4408L11.8482 35.608L11.8325 27.5735H11.8403L11.856 35.608V37.4408L11.8677 44.768Z" fill="#821F38" stroke="#231F20" stroke-width="0.281264" stroke-linejoin="round"/>
<path d="M11.8471 27.5696V27.5732H11.8398L11.8471 27.5696Z" fill="#4B8CCA" stroke="#231F20" stroke-width="0.281264" stroke-linejoin="round"/>
<path d="M45.866 22.255L35.0803 23.9471L32.3722 24.3652L28.8551 24.9123V7.71777L18.0694 9.37861L15.334 9.80066L11.8169 10.3517V27.5657V61.9782L15.334 61.4311L28.8238 59.3248L28.8981 50.1296V42.1185L32.4152 41.5714L45.8581 39.4729H45.905L45.866 22.255Z" fill="#FC97D9" stroke="#231F20" stroke-width="0.281264" stroke-linejoin="round"/>
<path d="M96.9698 116.227L86.1842 117.915L83.4878 118.341H83.4761L79.959 118.884V118.888L69.1733 113.241L86.1842 110.58L96.9698 116.227Z" fill="#B9AB2B" stroke="#231F20" stroke-width="0.281264" stroke-linejoin="round"/>
<path d="M11.832 18.39L11.8203 10.3516L11.832 18.39Z" fill="#EF4570" stroke="#231F20" stroke-width="0.281264" stroke-linejoin="round"/>
<path d="M28.8551 24.916H28.8472H28.8433H28.8551Z" fill="#EF4570" stroke="#231F20" stroke-width="0.281264" stroke-linejoin="round"/>
<path d="M28.8672 24.9123V24.9162V24.9123L28.8477 17.5773L28.8438 15.7328L28.8359 7.69434L28.8555 17.5773L28.8672 24.9123Z" fill="#EF4570"/>
<path d="M28.8672 24.9123V24.9162V24.9123ZM28.8672 24.9123L28.8477 17.5773L28.8438 15.7328L28.8359 7.69434L28.8555 17.5773L28.8672 24.9123Z" stroke="#231F20" stroke-width="0.281264" stroke-linejoin="round"/>
<path d="M11.9019 61.9858L1.12406 56.335L1.08889 56.3194V39.1444L1.05372 39.1249V21.9265H1.06153L1.03418 21.9069V4.7085L11.8198 10.3514L11.8316 18.3899L11.8394 20.2422L11.855 27.5694H11.8472L11.8394 27.5733H11.8316L11.8472 35.6078L11.855 37.4406L11.8667 44.7678V44.7913L11.8824 52.8023L11.8902 54.6586L11.9019 61.9858Z" fill="#CB409B" stroke="#231F20" stroke-width="0.281264" stroke-linejoin="round"/>
<path d="M11.832 18.39L11.8203 10.3516L11.832 18.39Z" fill="#821F38" stroke="#231F20" stroke-width="0.281264" stroke-linejoin="round"/>
<path d="M11.8604 27.5696H11.8564V27.5735H11.8604V27.5696Z" fill="#821F38" stroke="#231F20" stroke-width="0.281264" stroke-linejoin="round"/>
<path d="M28.8229 7.6942L18.045 9.38239L15.3408 9.80053L11.8198 10.3515L1.03418 4.70861L18.045 2.04736L28.8229 7.6942Z" fill="#CB409B" stroke="#231F20" stroke-width="0.281264" stroke-linejoin="round"/>
<path d="M28.8359 7.6942H28.8242L18.0464 2.04736L28.8359 7.6942Z" fill="#821F38" stroke="#231F20" stroke-width="0.281264" stroke-linejoin="round"/>
<path d="M1.16022 72.791L1.24229 79.0318L1.28918 85.2727L1.33217 97.7543L1.28918 110.236L1.24229 116.473L1.16022 122.718L1.08597 116.473L1.03517 110.236L1 97.7543L1.03517 85.2727L1.08597 79.0318L1.16022 72.791Z" fill="#EC008C"/>
<path d="M11.982 73.4907L12.0641 80.1341L12.1071 86.7774L12.15 100.064L12.1071 113.347L12.0641 119.998L11.982 126.641L11.9038 119.998L11.857 113.347L11.814 100.064L11.857 86.7774L11.9038 80.1341L11.982 73.4907Z" fill="#EC008C"/>
<path d="M28.8863 70.8293L28.9645 75.2608L29.0153 79.6962L29.0504 88.5592L29.0153 97.4261L28.9645 101.862L28.8863 106.289L28.8003 101.862L28.7573 97.4261L28.7222 88.5592L28.7573 79.6962L28.8003 75.2608L28.8863 70.8293Z" fill="#EC008C"/>
<path d="M18.1715 63.6975L18.2535 67.41L18.2965 71.1185L18.3395 78.5356L18.2965 85.9488L18.2535 89.6612L18.1715 93.362L18.0894 89.6612L18.0464 85.9488L18.0034 78.5356L18.0464 71.1185L18.0894 67.41L18.1715 63.6975Z" fill="#EC008C"/>
<path d="M93.5146 151.026L83.6082 152.57L76.8281 136.802L80.0912 136.29L80.1068 136.282L86.1757 135.336L86.7345 135.246L93.5146 151.026Z" fill="white"/>
<path d="M62.8065 103.304V103.472H62.7752V103.894L56.1045 88.3522L62.7752 87.3127L62.7869 94.6908L62.8065 103.304Z" fill="white"/>
<path d="M62.9541 104.331H62.9502V104.335H62.9541V104.331Z" fill="#855AA5" stroke="#231F20" stroke-width="0.281264" stroke-linejoin="round"/>
<path d="M38.504 23.5836L34.8736 24.1463L32.2124 24.5605L28.754 25.1194V16.0688L28.6602 7.8623L24.9555 8.47584L21.4775 9.01512L35.3699 40.9852L45.3467 39.4221L38.504 23.5836Z" fill="white"/>
<path d="M28.8433 24.916H28.8551H28.8472H28.8433Z" fill="#855AA5" stroke="#231F20" stroke-width="0.281264" stroke-linejoin="round"/>
<path d="M86.6013 134.891L86.0581 134.981L83.4945 135.375L80.1651 135.899L80.1494 128.939L80.1416 127.181L80.126 119.838L86.6013 134.891Z" fill="white"/>
<path d="M130.85 102.201L114.167 63.377L114.16 62.0874L117.599 61.5559L120.24 61.1456L121.94 60.876L130.807 81.4899V83.9948L130.827 92.9672V93.1391H130.831L130.85 102.201Z" fill="white"/>
<path d="M5.3457 137.048C7.21924 137.079 9.0925 136.97 10.9496 136.72L11.7311 136.54C12.7159 136.317 12.8449 136.305 13.0207 136.208C13.4387 135.901 13.7194 135.442 13.8023 134.93C14.3181 133.042 14.705 128.455 14.5252 128.455C14.3455 128.455 14.7871 133.816 15.2677 134.84C15.5073 135.343 15.8703 135.777 16.3229 136.102C16.694 136.333 17.107 136.488 17.5382 136.559C18.0345 136.638 20.6957 136.853 24.3574 136.989C20.7543 137.322 18.1048 137.642 17.3897 137.751C16.9043 137.83 16.4477 138.033 16.0649 138.341C15.9876 138.416 15.9182 138.499 15.8578 138.588C15.7407 138.778 15.6574 138.987 15.6116 139.205C15.5374 139.596 15.2677 141.941 14.9512 145.215C14.8105 144.234 14.7089 143.449 14.6464 142.953C14.4002 140.928 14.3728 140.151 13.8179 139.26C13.5931 138.89 13.3138 138.557 12.9894 138.271C12.6128 138.075 12.2207 137.91 11.8171 137.779C11.0282 137.528 10.2063 137.396 9.3786 137.388C8.02941 137.343 6.68337 137.23 5.3457 137.048Z" fill="white" stroke="#231F20" stroke-width="0.188612" stroke-miterlimit="10"/>
<path d="M125.574 102.522C127.446 102.557 129.319 102.448 131.174 102.198C131.276 102.178 131.444 102.131 131.956 102.022C132.941 101.799 133.069 101.783 133.245 101.686C133.663 101.379 133.944 100.92 134.027 100.408C134.547 98.5204 134.93 93.9326 134.75 93.9326C134.57 93.9326 135.012 99.2942 135.492 100.318C135.728 100.819 136.086 101.253 136.532 101.58C136.905 101.808 137.317 101.963 137.747 102.037C138.243 102.116 140.905 102.327 144.566 102.463C140.963 102.796 138.314 103.116 137.599 103.245C137.112 103.319 136.654 103.523 136.274 103.835C136.196 103.907 136.128 103.988 136.071 104.077C135.95 104.266 135.865 104.475 135.821 104.695C135.746 105.086 135.477 107.43 135.164 110.705C135.019 109.724 134.918 108.939 134.859 108.442C134.609 106.418 134.582 105.641 134.027 104.75C133.798 104.382 133.515 104.051 133.187 103.769C132.811 103.57 132.418 103.404 132.014 103.272C131.226 103.02 130.404 102.888 129.576 102.882C128.685 102.854 127.38 102.768 125.574 102.522Z" fill="white" stroke="#231F20" stroke-width="0.188612" stroke-miterlimit="10"/>
</svg>
