<svg width="153" height="167" viewBox="0 0 153 167" fill="none" xmlns="http://www.w3.org/2000/svg">
<path d="M4.74363 49.8289L58.7043 31.302C62.45 46.6828 66.0536 62.0963 69.5151 77.5424C71.8498 87.9861 74.1192 98.4459 76.3233 108.922L23.9369 127.186C21.9288 119.29 19.9351 111.393 17.9556 103.495C13.4706 85.6234 9.06659 67.7348 4.74363 49.8289Z" fill="#FAFBE8" stroke="#231F20" stroke-width="0.471202" stroke-miterlimit="10"/>
<path d="M37.2849 73.5825L16.3072 80.8787L9.80375 54.9912L31.3933 47.537C33.3614 56.2182 35.3253 64.9 37.2849 73.5825Z" fill="white" stroke="#231F20" stroke-width="0.471202" stroke-miterlimit="10"/>
<path d="M27.2238 54.776L24.8309 55.7509C26.02 55.7357 27.0787 55.6631 28.1724 56.1928L26.5934 56.9994C28.323 58.6959 27.8563 60.75 28.3638 62.9359C27.7833 62.4724 27.5767 61.8539 27.2451 61.2118C26.4931 59.7508 25.365 59.6868 24.2082 60.778C23.1256 61.8184 21.9397 61.9633 20.5748 61.963C18.9897 61.9673 18.7016 62.4993 18.7646 63.9873C18.8444 64.8521 18.8536 65.722 18.7921 66.5882C17.9662 65.3169 16.8909 64.5758 17.0255 62.9132C17.0145 62.1789 16.9374 61.4471 16.7952 60.7266C16.5959 58.8174 17.1991 57.8141 19.0676 57.3567C19.7885 57.2135 20.465 56.9007 21.0414 56.444C22.9412 54.8744 24.8135 54.6595 27.2238 54.776Z" fill="#231F20"/>
<path d="M25.7124 77.1859C25.6886 75.9175 25.9339 74.5977 25.2843 73.4808C25.0606 73.0821 25.1443 72.5998 25.4759 72.4777C26.0163 72.279 26.2635 72.7173 26.1938 73.206C26.1724 73.6948 26.2705 74.1816 26.4797 74.6239C27.349 76.9868 27.3526 77.0644 24.9957 77.9381C22.4913 78.8656 19.8444 79.7419 17.3796 80.6457C16.5613 80.9494 16.2586 80.6805 16.0819 79.9227C15.4693 77.2932 16.0175 76.2161 18.2067 74.6136C19.0958 73.9643 20.2555 73.055 21.1078 72.3378C21.9601 71.6206 22.5792 71.7264 23.1214 72.6302C24.0067 74.1396 24.8236 75.6815 25.7124 77.1859Z" fill="#231F20"/>
<path d="M27.4464 77.1225C27.5749 74.9311 27.6348 72.6073 27.7589 70.4426C27.7996 69.6894 27.9439 69.4797 28.726 69.5205C30.4997 69.6122 32.1055 69.3832 34.0118 69.519C35.7206 69.6383 37.1898 71.741 36.9683 73.4565C36.9099 73.9347 36.5622 73.9552 36.2598 74.0423C33.3041 75.1023 30.3898 76.0949 27.4464 77.1225Z" fill="#231F20"/>
<path d="M59.5387 46.8629L40.3591 53.5044L39.9175 51.5424L59.1387 44.89C59.2774 45.5453 59.4041 46.2069 59.5387 46.8629Z" fill="#DDF1F4" stroke="#231F20" stroke-width="0.471202" stroke-miterlimit="10"/>
<path d="M65.2377 75.9309L23.5737 90.503C23.4623 90.0474 23.3461 89.5883 23.2347 89.1327L64.9825 74.5429L65.2377 75.9309Z" fill="#DDF1F4" stroke="#231F20" stroke-width="0.471202" stroke-miterlimit="10"/>
<path d="M65.9717 79.6863L24.4656 94.216L24.1329 92.8577L65.7017 78.3137L65.9717 79.6863Z" fill="#DDF1F4" stroke="#231F20" stroke-width="0.471202" stroke-miterlimit="10"/>
<path d="M66.7014 83.4086L25.3709 97.8974L25.0395 96.5476L66.423 82.0373L66.7014 83.4086Z" fill="#DDF1F4" stroke="#231F20" stroke-width="0.471202" stroke-miterlimit="10"/>
<path d="M67.428 87.0887L26.27 101.546C26.1607 101.103 26.0549 100.655 25.9449 100.208L67.1676 85.7493C67.2529 86.2047 67.3438 86.6679 67.428 87.0887Z" fill="#DDF1F4" stroke="#231F20" stroke-width="0.471202" stroke-miterlimit="10"/>
<path d="M68.1475 90.7707L27.1581 105.171L26.8301 103.842C40.5108 99.0435 54.1906 94.2394 67.8696 89.4297L68.1475 90.7707Z" fill="#DDF1F4" stroke="#231F20" stroke-width="0.471202" stroke-miterlimit="10"/>
<path d="M68.8601 94.4024L28.0413 108.758C27.9326 108.319 27.8282 107.88 27.7195 107.441L68.6095 93.0701C68.6801 93.5148 68.7719 93.9561 68.8601 94.4024Z" fill="#DDF1F4" stroke="#231F20" stroke-width="0.471202" stroke-miterlimit="10"/>
<path d="M69.5709 98.0065L28.9213 112.309L28.5966 111.001L69.3111 96.6713C69.4007 97.126 69.4833 97.5644 69.5709 98.0065Z" fill="#DDF1F4" stroke="#231F20" stroke-width="0.471202" stroke-miterlimit="10"/>
<path d="M71.0652 105.643L52.2416 112.288L51.9584 110.996L70.834 104.351C70.9013 104.774 70.9685 105.198 71.0652 105.643Z" fill="#DDF1F4" stroke="#231F20" stroke-width="0.471202" stroke-miterlimit="10"/>
<path d="M60.5441 52.0223L41.4787 58.6457L41.0525 56.6987L60.17 50.0757C60.2891 50.7168 60.4187 51.3692 60.5441 52.0223Z" fill="#DDF1F4" stroke="#231F20" stroke-width="0.471202" stroke-miterlimit="10"/>
<path d="M61.4719 56.7141L42.4968 63.3058C42.3558 62.6638 42.2149 62.0219 42.0782 61.3793L61.0907 54.7773C61.2196 55.4255 61.3437 56.0701 61.4719 56.7141Z" fill="#DDF1F4" stroke="#231F20" stroke-width="0.471202" stroke-miterlimit="10"/>
<path d="M62.4777 61.8665L43.611 68.4323C43.4714 67.7988 43.3374 67.1731 43.1964 66.5312L62.1046 59.9545C62.2273 60.5907 62.355 61.2304 62.4777 61.8665Z" fill="#DDF1F4" stroke="#231F20" stroke-width="0.471202" stroke-miterlimit="10"/>
<path d="M51.6316 75.933L32.9122 82.471C32.7704 81.8509 32.6217 81.2146 32.4783 80.6121L51.2357 74.068C51.3691 74.6895 51.494 75.3122 51.6316 75.933Z" fill="#DDF1F4" stroke="#231F20" stroke-width="0.471202" stroke-miterlimit="10"/>
<path d="M21.5729 90.3563C21.6362 90.6159 21.5997 90.8898 21.4707 91.1235C21.3416 91.3572 21.1294 91.5336 20.8764 91.6176C20.7608 91.6653 20.6361 91.6871 20.5111 91.6814C20.3862 91.6757 20.264 91.6426 20.1531 91.5844C20.0423 91.5263 19.9455 91.4445 19.8695 91.3449C19.7936 91.2452 19.7404 91.1301 19.7136 91.0077C19.6504 90.7462 19.6884 90.4704 19.82 90.236C19.9516 90.0016 20.167 89.8259 20.4229 89.7444C20.5379 89.6989 20.6615 89.6789 20.7851 89.6859C20.9086 89.6929 21.0292 89.7266 21.1385 89.7848C21.2478 89.8429 21.3433 89.9241 21.4183 90.0228C21.4933 90.1215 21.5461 90.2353 21.5729 90.3563Z" fill="#DDF1F4" stroke="#231F20" stroke-width="0.471202" stroke-miterlimit="10"/>
<path d="M22.4736 94.1389C22.5443 94.3966 22.5152 94.6715 22.3921 94.9084C22.269 95.1454 22.0611 95.3269 21.81 95.4167C21.6969 95.4681 21.5739 95.4942 21.4497 95.4932C21.3254 95.4922 21.2029 95.4642 21.0905 95.4109C20.9782 95.3577 20.8787 95.2806 20.7991 95.185C20.7194 95.0894 20.6615 94.9776 20.6293 94.8574C20.5575 94.5997 20.5862 94.3243 20.7094 94.0871C20.8326 93.8499 21.0411 93.6685 21.2929 93.5796C21.406 93.5282 21.5289 93.5021 21.6532 93.5031C21.7774 93.504 21.9 93.5321 22.0123 93.5853C22.1247 93.6386 22.2242 93.7157 22.3038 93.8113C22.3835 93.9068 22.4414 94.0187 22.4736 94.1389Z" fill="#DDF1F4" stroke="#231F20" stroke-width="0.471202" stroke-miterlimit="10"/>
<path d="M23.4012 97.855C23.4609 98.1124 23.4229 98.3827 23.2945 98.6134C23.1662 98.8441 22.9567 99.0186 22.7069 99.1029C22.5928 99.1482 22.4703 99.1683 22.3477 99.1619C22.2251 99.1556 22.1053 99.1229 21.9964 99.066C21.8875 99.0092 21.7921 98.9296 21.7166 98.8325C21.6411 98.7355 21.5873 98.6233 21.5588 98.5037C21.4971 98.2469 21.5337 97.9762 21.6615 97.7453C21.7893 97.5144 21.9989 97.3399 22.2489 97.2565C22.3632 97.2105 22.4861 97.1897 22.6092 97.1957C22.7322 97.2016 22.8525 97.2341 22.9619 97.291C23.0713 97.3478 23.1672 97.4276 23.243 97.5249C23.3189 97.6223 23.3728 97.7349 23.4012 97.855Z" fill="#DDF1F4" stroke="#231F20" stroke-width="0.471202" stroke-miterlimit="10"/>
<path d="M24.2988 101.477C24.3654 101.729 24.3361 101.996 24.2165 102.227C24.097 102.458 23.8958 102.636 23.6523 102.726C23.5408 102.776 23.4199 102.801 23.2978 102.8C23.1757 102.799 23.0553 102.772 22.9445 102.72C22.8337 102.669 22.7352 102.594 22.6555 102.501C22.5759 102.409 22.517 102.3 22.4827 102.182C22.4125 101.929 22.4397 101.659 22.5591 101.425C22.6785 101.192 22.8813 101.011 23.1272 100.921C23.2397 100.871 23.3616 100.846 23.4846 100.848C23.6076 100.849 23.7288 100.877 23.84 100.93C23.9512 100.983 24.0498 101.059 24.1289 101.154C24.2081 101.248 24.2661 101.358 24.2988 101.477Z" fill="#DDF1F4" stroke="#231F20" stroke-width="0.471202" stroke-miterlimit="10"/>
<path d="M25.2029 105.138C25.2618 105.389 25.2257 105.653 25.1015 105.879C24.9773 106.105 24.7738 106.276 24.5306 106.36C24.4179 106.405 24.2972 106.424 24.1763 106.418C24.0554 106.413 23.9372 106.381 23.8293 106.326C23.7215 106.271 23.6265 106.193 23.5507 106.099C23.4749 106.004 23.4199 105.895 23.3894 105.777C23.3303 105.526 23.3662 105.261 23.4903 105.035C23.6143 104.808 23.8176 104.636 24.0611 104.55C24.1741 104.506 24.2951 104.486 24.4163 104.493C24.5375 104.499 24.656 104.531 24.764 104.586C24.872 104.642 24.9669 104.72 25.0426 104.815C25.1183 104.91 25.1729 105.02 25.2029 105.138Z" fill="#DDF1F4" stroke="#231F20" stroke-width="0.471202" stroke-miterlimit="10"/>
<path d="M26.0842 108.696C26.1514 108.946 26.1226 109.212 26.0034 109.442C25.8842 109.671 25.6834 109.848 25.4405 109.936C25.3308 109.988 25.211 110.016 25.0894 110.017C24.9678 110.018 24.8474 109.992 24.7369 109.941C24.6263 109.891 24.5282 109.816 24.4495 109.723C24.3708 109.63 24.3134 109.521 24.2814 109.404C24.2144 109.155 24.2429 108.89 24.3614 108.661C24.48 108.432 24.6798 108.257 24.9215 108.169C25.0317 108.12 25.1508 108.095 25.2713 108.096C25.3917 108.096 25.5107 108.122 25.6204 108.172C25.7301 108.222 25.8282 108.294 25.9081 108.385C25.988 108.475 26.048 108.581 26.0842 108.696Z" fill="#DDF1F4" stroke="#231F20" stroke-width="0.471202" stroke-miterlimit="10"/>
<path d="M27.029 112.52C27.0948 112.768 27.0656 113.032 26.947 113.26C26.8284 113.488 26.6291 113.663 26.3882 113.751C26.2787 113.798 26.1606 113.822 26.0414 113.82C25.9221 113.819 25.8044 113.793 25.6958 113.744C25.5872 113.694 25.4901 113.623 25.4107 113.534C25.3313 113.444 25.2713 113.34 25.2347 113.226C25.1686 112.977 25.1976 112.713 25.316 112.484C25.4344 112.256 25.6337 112.08 25.8748 111.991C25.984 111.939 26.1032 111.912 26.224 111.912C26.3448 111.911 26.4644 111.937 26.5743 111.987C26.6842 112.037 26.7818 112.111 26.8603 112.203C26.9389 112.295 26.9964 112.403 27.029 112.52Z" fill="#DDF1F4" stroke="#231F20" stroke-width="0.471202" stroke-miterlimit="10"/>
<path d="M110.565 13.4843C112.596 13.1946 114.603 12.7539 116.569 12.1659L117.384 11.8411C118.41 11.4305 118.547 11.3914 118.72 11.2554C119.129 10.8538 119.361 10.3062 119.367 9.73285C119.595 7.59509 119.228 2.56012 119.034 2.59099C118.84 2.62187 120.24 8.35667 120.936 9.38372C121.277 9.88593 121.739 10.2948 122.278 10.5731C122.719 10.7581 123.192 10.8541 123.67 10.8556C124.221 10.8593 127.135 10.6309 131.119 10.1502C127.279 11.1291 124.469 11.9315 123.715 12.1729C123.203 12.3418 122.745 12.6405 122.383 13.0399C122.313 13.1346 122.252 13.2358 122.202 13.3423C122.108 13.567 122.054 13.8063 122.041 14.0495C122.028 14.4858 122.14 17.0732 122.362 20.6809C122.041 19.6421 121.796 18.8082 121.643 18.2811C121.028 16.1296 120.865 15.2915 120.111 14.4212C119.799 14.0623 119.434 13.7527 119.03 13.5031C118.589 13.3526 118.137 13.2415 117.677 13.1709C116.781 13.0327 115.869 13.0311 114.973 13.1662C114.001 13.2946 112.562 13.4318 110.565 13.4843Z" fill="white" stroke="#231F20" stroke-width="0.315983" stroke-miterlimit="10"/>
<path d="M20.6247 149.832C24.4236 149.198 27.2454 148.55 28.2451 148.161L29.2754 147.746C30.5793 147.226 30.7492 147.178 30.9686 147.004C31.546 146.547 31.7126 145.796 31.7925 145.071C32.0902 142.362 31.6224 135.98 31.373 136.019C31.1237 136.059 32.9041 143.34 33.7874 144.646C34.2208 145.282 34.8049 145.801 35.4874 146.156C36.0486 146.389 36.6491 146.511 37.2563 146.517C37.9585 146.519 41.6557 146.227 46.7152 145.619C41.8431 146.861 38.2954 147.876 37.3138 148.189C36.6643 148.401 36.0822 148.781 35.6257 149.29C35.5356 149.41 35.4587 149.538 35.3963 149.674C35.2748 149.96 35.2058 150.265 35.1928 150.575C35.1741 151.112 35.3208 154.436 35.6021 158.99C35.1895 157.675 34.8828 156.616 34.6857 155.948C33.9001 153.212 33.6968 152.15 32.7374 151.047C32.3392 150.592 31.8765 150.197 31.3642 149.876C30.8086 149.689 30.2385 149.549 29.6597 149.456C28.5223 149.285 27.3656 149.287 26.2291 149.463C24.9723 149.597 23.1573 149.764 20.6247 149.832Z" fill="white" stroke="#231F20" stroke-width="0.315983" stroke-miterlimit="10"/>
<path d="M52.3976 111.847L69.8163 154.789L62.0139 151.304L44.5959 108.366L52.3976 111.847Z" fill="#821F38" stroke="#231F20" stroke-width="0.471202" stroke-linejoin="round"/>
<path d="M121.014 79.5685L110.698 85.6314L106.938 87.8439L60.1935 115.333L44.5936 108.367L105.413 72.5981L113.071 76.0191L113.412 76.1734L121.014 79.5685Z" fill="#B42F50" stroke="#231F20" stroke-width="0.471202" stroke-miterlimit="10"/>
<path d="M121.015 79.5656L106.94 87.8411L110.7 85.6286L121.015 79.5656Z" fill="white" stroke="#231F20" stroke-width="0.471202" stroke-miterlimit="10"/>
<path d="M121.017 79.5654L138.415 122.454L77.6159 158.271L60.1972 115.33L74.4739 129.023L100.905 119.589L124.078 103.143L121.017 79.5654Z" fill="#EF4570" stroke="#231F20" stroke-width="0.471202" stroke-linejoin="round"/>
<path d="M60.1963 115.332L77.615 158.273L69.8169 154.788L52.3982 111.846L60.1963 115.332Z" fill="#821F38" stroke="#231F20" stroke-width="0.471202" stroke-linejoin="round"/>
<path d="M113.714 75.6472L113.42 76.1715L113.079 76.0172L113.714 75.6472Z" fill="white" stroke="#231F20" stroke-width="0.471202" stroke-miterlimit="10"/>
<path d="M121.017 79.5654L124.078 103.143L100.905 119.589L74.4739 129.023L60.1972 115.33L106.941 87.8408L121.017 79.5654Z" fill="#EF4570" stroke="#231F20" stroke-width="0.471202" stroke-linejoin="round"/>
<path d="M58.3691 100.264L58.5441 100.105L58.5864 100.125L58.3691 100.264Z" fill="white" stroke="#231F20" stroke-width="0.471202" stroke-miterlimit="10"/>
<path d="M58.6382 100.158L58.5806 100.128L58.6192 100.122L58.6382 100.158Z" fill="white" stroke="#231F20" stroke-width="0.471202" stroke-miterlimit="10"/>
<path d="M93.3415 81.7784C92.926 81.5113 92.4827 81.2905 92.0194 81.12C91.8523 80.9685 91.6621 80.8077 91.4543 80.6453C92.122 80.9542 92.7547 81.3341 93.3415 81.7784Z" fill="white" stroke="#231F20" stroke-width="0.471202" stroke-miterlimit="10"/>
<path d="M93.6182 80.0892C93.3598 79.9942 93.0967 79.9128 92.8299 79.8453C92.5377 79.7751 92.2405 79.7279 91.9409 79.7043C89.5529 79.5365 86.9461 80.9926 82.3312 83.6361C76.167 87.1639 73.0816 88.9348 71.835 92.2982C71.4037 93.4565 70.4098 96.8014 72.4623 101.703L72.3971 101.757L69.8378 100.375C67.9106 95.5788 68.885 92.3021 69.3098 91.1578C70.5564 87.7945 73.6382 86.0285 79.8067 82.5C86.7531 78.5222 89.0755 78.5224 90.3096 78.7085C91.2371 78.8593 92.1378 79.1448 92.9833 79.5561C93.2142 79.7278 93.4309 79.9192 93.6182 80.0892Z" fill="white" stroke="#231F20" stroke-width="0.471202" stroke-miterlimit="10"/>
<path d="M99.4098 86.4111L96.0236 88.3341C95.8203 87.8453 94.8934 85.7738 93.4113 84.572C92.7373 84.0455 91.9735 83.646 91.1572 83.3929C91.0263 83.3597 90.8935 83.3344 90.7596 83.3171L90.5037 83.2883C90.1018 83.2631 89.6984 83.2936 89.3049 83.3788L89.2584 83.3862C87.804 83.6954 86.0781 84.6686 83.4852 86.1572L81.8171 87.1125C78.4101 89.0952 76.6118 90.3491 75.8196 92.481C74.6033 95.7353 76.1698 99.1598 76.2619 99.3579L76.3549 99.5342L76.2829 99.5717L72.4445 101.758C72.4401 101.739 72.4372 101.721 72.4358 101.702C70.4029 96.8149 71.3941 93.4531 71.8085 92.2974C73.0551 88.9341 76.1411 87.1674 82.309 83.6346C86.9203 80.9961 89.5264 79.5357 91.9144 79.7035C92.214 79.7272 92.5112 79.7743 92.8034 79.8445C93.0705 79.9135 93.3339 79.9963 93.5924 80.0926C94.1176 80.2914 94.619 80.5482 95.0875 80.8582C97.5971 82.5003 98.9455 85.3429 99.4098 86.4111Z" fill="white" stroke="#231F20" stroke-width="0.471202" stroke-miterlimit="10"/>
<path d="M93.069 87.2277C92.9437 86.6631 92.7233 86.124 92.4171 85.6335C92.1985 85.2841 91.9407 84.9608 91.6488 84.67C91 84.0429 90.1986 83.5968 89.3246 83.3762C89.7181 83.2908 90.1215 83.2603 90.5234 83.2857C90.6037 83.2729 90.6949 83.3018 90.7793 83.3145C90.9132 83.3318 91.046 83.3571 91.1769 83.3903C92.0089 83.6038 92.7804 84.0073 93.431 84.5693C94.5486 85.5696 95.428 86.8084 96.0042 88.1943L93.069 87.2277Z" fill="white" stroke="#231F20" stroke-width="0.471202" stroke-miterlimit="10"/>
<path d="M111.748 85.1221L109.869 113.123L100.94 119.46L100.071 119.772L102.011 90.8499L106.933 87.9537L111.748 85.1221Z" fill="white" stroke="#231F20" stroke-width="0.471202" stroke-miterlimit="10"/>
<path d="M96.8288 118.187L103.064 114.449L101.711 111.116L95.5744 115.091L96.8288 118.187Z" fill="#FFF200" stroke="#231F20" stroke-width="0.471202" stroke-miterlimit="10"/>
<path d="M74.9521 18.9019L68.7944 38.3204C68.4554 39.2229 68.3031 40.1852 68.3467 41.1487C68.7295 48.4693 81.381 52.886 85.3658 54.2678C87.8381 55.13 102.013 60.0559 105.935 54.7393C106.367 54.1381 106.663 53.4495 106.802 52.7215L112.157 35.8055" fill="#4F409A"/>
<path d="M74.9521 18.9019L68.7944 38.3204C68.4554 39.2229 68.3031 40.1852 68.3467 41.1487C68.7295 48.4693 81.381 52.886 85.3658 54.2678C87.8381 55.13 102.013 60.0559 105.935 54.7392C106.367 54.1381 106.663 53.4495 106.802 52.7215L112.157 35.8055" stroke="#231F20" stroke-width="0.471202" stroke-miterlimit="10"/>
<path d="M128.315 48.8601L126.472 48.4972L76.9166 38.7569L59.3678 13.3819L58.1995 11.7004L105.636 20.2663C113.198 29.7985 120.758 39.3298 128.315 48.8601Z" fill="#4F409A" stroke="#231F20" stroke-width="0.471202" stroke-miterlimit="10"/>
<path d="M76.9183 38.7584L76.4733 40.1577L57.7541 13.0885L58.1985 11.685L59.3695 13.3834L76.9183 38.7584Z" fill="#352E7E" stroke="#231F20" stroke-width="0.471202" stroke-miterlimit="10"/>
<path d="M128.318 48.8562L127.877 50.2549L76.4759 40.1566L76.9209 38.7572L126.48 48.4968L128.318 48.8562Z" fill="#4F409A" stroke="#231F20" stroke-width="0.471202" stroke-miterlimit="10"/>
<path d="M99.715 19.4335C103.736 28.1071 107.758 36.7818 111.782 45.4578L105.984 44.2511C102.341 35.7 98.6956 27.1462 95.0488 18.5898L99.715 19.4335Z" fill="white"/>
<path d="M93.4651 31.606L102.775 43.8438L99.4092 60.3005C98.1347 62.357 97.2947 64.6539 96.9411 67.0492L100.241 67.8538C100.823 65.396 100.895 62.8439 100.449 60.3567C101.794 54.9645 103.137 49.5712 104.478 44.1767L94.7781 31.3888L93.4651 31.606Z" fill="#FFF200" stroke="#231F20" stroke-width="0.471202" stroke-miterlimit="10"/>
<path d="M100.488 59.9003L99.6829 59.6479L99.4009 60.5523L100.206 60.8047L100.488 59.9003Z" fill="#231F20" stroke="#231F20" stroke-width="0.471202" stroke-miterlimit="10"/>
</svg>
