<svg width="144" height="152" viewBox="0 0 144 152" fill="none" xmlns="http://www.w3.org/2000/svg">
<path d="M43.3211 39.8008C48.4838 44.1263 54.3108 47.5902 60.5774 50.0586C72.7015 54.7706 79.839 52.9441 87.8567 58.758C93.5217 62.8644 96.4369 68.4731 97.9723 72.2917L63.6581 98.661L18.957 85.8982L43.3211 39.8008Z" fill="#B38F2F" stroke="#231F20" stroke-width="0.281264" stroke-miterlimit="10"/>
<path d="M31.7305 50.4789C39.9226 52.5734 48.2839 53.9398 56.7166 54.5622C62.5702 54.9858 63.5199 54.6813 68.222 55.3564C80.9847 57.1862 89.0322 62.6163 91.4874 64.2906C92.862 65.2323 94.1874 66.244 95.4582 67.3216C96.2167 64.7602 97.4965 62.3831 99.2172 60.3397C101.007 58.2385 103.016 56.8322 105.683 55.4225C113.151 51.4749 116.934 52.1797 123.77 49.3539C127.506 47.7942 130.993 45.6949 134.12 43.123L138.167 45.4724L106.573 80.7925L38.8316 77.5828C36.4623 68.5449 34.0953 59.5102 31.7305 50.4789Z" fill="#F0E266" stroke="#231F20" stroke-width="0.0926516" stroke-miterlimit="10"/>
<path d="M87.7266 62.093L70.4901 78.9986L43.2969 77.7081L66.2579 55.207C66.8171 55.2699 67.4359 55.346 68.1341 55.4453C75.027 56.4006 81.6756 58.6565 87.7266 62.093Z" fill="#E9DFEE"/>
<path d="M36.0157 54.8507L31.6776 50.4961L1 109.28L5.3811 112.417L36.0157 54.8507Z" fill="#B38F2F" stroke="#231F20" stroke-width="0.0926516" stroke-miterlimit="10"/>
<path d="M38.576 56.3895L34.2114 52.0117L3.375 111.107L7.77595 114.26L38.576 56.3895Z" fill="#B38F2F" stroke="#231F20" stroke-width="0.0926516" stroke-miterlimit="10"/>
<path d="M37.5266 53.4314L5.07872 114.165L4.53274 115.187L1.31641 112.838L34.307 51.082L37.5266 53.4314Z" fill="#1A074E" stroke="#231F20" stroke-width="0.281264" stroke-miterlimit="10"/>
<path d="M142.938 45.4863L109.947 107.242L71.5234 134.902L104.736 73.1031L135.648 50.7575L142.938 45.4863Z" fill="#1A074E" stroke="#231F20" stroke-width="0.281264" stroke-miterlimit="10"/>
<path d="M95.8327 73.9785L62.6734 135.675L4.53125 115.185L5.07723 114.163L37.5251 53.4297L89.3769 71.7019L95.8327 73.9785Z" fill="#53379E" stroke="#231F20" stroke-width="0.281264" stroke-miterlimit="10"/>
<path d="M142.939 45.4861L135.649 50.754L104.736 73.1029L98.188 73.7481L95.8319 73.9798L89.3761 71.7032L37.5243 53.431L34.3047 51.0816L92.0696 71.4385L101.904 70.4722H101.907L139.719 43.1367L142.939 45.4861Z" fill="#1A074E" stroke="#231F20" stroke-width="0.281264" stroke-miterlimit="10"/>
<path d="M104.736 73.1016L71.5234 134.9L69.3163 135.115L62.8803 135.747L62.6719 135.674L95.8312 73.9784L98.1872 73.7468L104.736 73.1016Z" fill="#53379E" stroke="#231F20" stroke-width="0.281264" stroke-miterlimit="10"/>
<path d="M62.675 135.676L62.6221 135.775L62.5625 135.884" stroke="#231F20" stroke-width="0.0926516" stroke-miterlimit="10"/>
<path d="M95.8752 73.8965L95.832 73.9795" stroke="#231F20" stroke-width="0.0926516" stroke-miterlimit="10"/>
<path d="M110.485 11.1886C110.485 11.0463 110.458 10.8974 110.442 10.7386C110.45 10.6815 110.45 10.6236 110.442 10.5665C110.434 10.4268 110.418 10.2877 110.395 10.1496C110.388 10.0507 110.375 9.95237 110.355 9.85511C110.326 9.65326 110.296 9.44149 110.25 9.2231C110.23 9.08743 110.2 8.94845 110.17 8.80616C110.097 8.47526 110.008 8.12451 109.899 7.77376C109.826 7.5322 109.743 7.28734 109.647 7.04247C109.618 6.96637 109.588 6.89026 109.551 6.81746C109.422 6.49378 109.274 6.17781 109.108 5.87109H108.407L107.904 5.90749H107.884C107.735 5.91363 107.587 5.92799 107.44 5.95051H107.298L106.828 6.01007L106.689 6.03654C106.358 6.0928 106.027 6.16559 105.696 6.2417L105.306 6.34097C105.2 6.36744 105.098 6.40053 104.995 6.43031L104.664 6.52958C105.416 7.74982 106.013 9.05929 106.441 10.4276C106.53 10.6757 106.593 10.8908 106.636 11.0397C108.651 10.7121 110.19 10.8346 110.485 11.1886Z" fill="#198678" stroke="#231F20" stroke-width="0.188612" stroke-miterlimit="10"/>
<path d="M123.87 47.26C123.942 47.2409 124.015 47.2266 124.088 47.217L124.284 47.1905C124.43 47.1701 124.579 47.1612 124.727 47.1641H124.859L125.011 47.1839C125.058 47.1887 125.103 47.1987 125.147 47.2137C125.238 47.2317 125.325 47.2679 125.402 47.3202C125.478 47.3725 125.544 47.4399 125.594 47.5181L110.551 14.9908C110.531 14.9385 110.503 14.8894 110.468 14.8452C110.435 14.7956 110.396 14.7501 110.353 14.7095L110.323 14.6831C110.097 14.5039 109.828 14.3895 109.542 14.3522H109.185C108.518 14.3197 107.849 14.381 107.199 14.5342C107.226 14.5613 107.252 14.59 107.275 14.6202C107.309 14.6667 107.34 14.7153 107.368 14.7658L123.87 47.26Z" fill="#C82D93" stroke="#231F20" stroke-width="0.188612" stroke-miterlimit="10"/>
<path d="M118.611 51.3433C118.564 51.2214 118.546 51.0899 118.56 50.9598C118.574 50.8297 118.619 50.7048 118.691 50.5955C118.981 50.0952 119.367 49.6567 119.826 49.305C119.948 49.1991 120.08 49.0932 120.226 48.9741L120.428 48.8285C120.474 48.7954 120.521 48.7623 120.57 48.7325L120.775 48.5969C120.855 48.5472 120.938 48.491 121.024 48.4413C121.11 48.3917 121.295 48.2792 121.44 48.2031C121.858 47.9741 122.29 47.774 122.734 47.6042C122.803 47.5733 122.872 47.5468 122.943 47.5247C123.035 47.4883 123.135 47.4586 123.224 47.4321C123.313 47.4056 123.406 47.3725 123.499 47.3494C123.591 47.3262 123.677 47.2997 123.76 47.2832L123.869 47.26L107.371 14.7062C107.343 14.6558 107.312 14.6071 107.278 14.5606C107.254 14.5304 107.229 14.5017 107.202 14.4746C106.391 14.6475 105.596 14.8843 104.823 15.1827L104.598 15.2721L104.376 15.3581L104.158 15.4508C103.866 15.5765 103.588 15.7022 103.324 15.8346C102.947 16.0232 102.54 16.2449 102.126 16.4964L101.848 16.6618C101.544 16.8571 101.239 17.0622 100.941 17.274C100.493 17.5957 100.068 17.9496 99.6707 18.3329C99.3601 18.6304 99.0857 18.9636 98.8534 19.3256C98.8269 19.3653 98.8037 19.4116 98.7805 19.4513C98.7574 19.491 98.7408 19.5274 98.721 19.5638L98.6515 19.716C98.5304 19.9834 98.4968 20.2822 98.5555 20.5698C98.5817 20.6734 98.6229 20.7726 98.678 20.8643L98.711 20.9205L117.681 49.9072L118.611 51.3433Z" fill="#FC97D9" stroke="#231F20" stroke-width="0.188612" stroke-miterlimit="10"/>
<path d="M103.354 4.87776C104.769 4.38142 106.252 4.10359 107.751 4.05383C107.602 3.89499 107.44 3.74278 107.275 3.59388C107.028 3.37195 106.768 3.16425 106.497 2.97179L106.279 2.81296C106.13 2.71369 105.981 2.61442 105.829 2.51846L105.63 2.40264C105.385 2.25705 105.131 2.12469 104.873 2.00225L104.624 1.89968C104.528 1.85666 104.429 1.81364 104.327 1.77393C103.406 1.39364 102.435 1.14845 101.444 1.04596C101.193 1.02279 100.941 1.00956 100.693 1.00294C100.445 0.996323 100.22 1.00294 99.9851 1.00294C99.8455 0.99817 99.7057 1.00815 99.5682 1.03272C99.1796 1.06698 98.7937 1.12779 98.4134 1.21472C97.7947 1.35164 97.1915 1.55121 96.6133 1.81033C98.631 1.93268 100.57 2.63724 102.196 3.83874C102.609 4.15316 102.996 4.50064 103.354 4.87776Z" fill="#198678" stroke="#231F20" stroke-width="0.188612" stroke-miterlimit="10"/>
<path d="M104.672 6.57457C104.785 6.54148 104.891 6.50508 105.003 6.4753C105.116 6.44552 105.208 6.41243 105.314 6.38596L105.688 6.29C106.019 6.21389 106.35 6.14109 106.681 6.08484L106.82 6.05837L107.29 5.98888H107.432C107.581 5.98888 107.727 5.95579 107.876 5.94586H107.895L108.398 5.90946H109.1C109.044 5.81019 108.987 5.71092 108.924 5.61496C108.892 5.55572 108.857 5.49828 108.819 5.4429C108.766 5.35466 108.709 5.26862 108.65 5.1848C108.617 5.13847 108.587 5.08883 108.551 5.04251L108.408 4.85059C108.302 4.71161 108.19 4.57594 108.077 4.44027C107.982 4.32486 107.88 4.21442 107.773 4.10938C106.27 4.13894 104.78 4.39782 103.355 4.87706C103.847 5.40047 104.287 5.96879 104.672 6.57457Z" fill="#08665A" stroke="#231F20" stroke-width="0.188612" stroke-miterlimit="10"/>
<path d="M107.188 14.4735C107.838 14.3203 108.506 14.2591 109.173 14.2915H109.53C109.816 14.3288 110.086 14.4432 110.311 14.6224L110.401 14.5728C110.473 14.024 110.516 13.4717 110.53 12.9183V12.8521C110.533 12.8391 110.533 12.8254 110.53 12.8124V12.7164C110.53 12.4782 110.51 12.1804 110.51 11.6973V11.6741C110.509 11.5412 110.499 11.4085 110.48 11.277V11.1182C110.185 10.7608 108.64 10.6417 106.625 11.0189C106.642 11.0719 106.655 11.1215 106.668 11.1745C106.701 11.3035 106.734 11.4326 106.764 11.5583V11.5815C106.85 12.0546 106.91 12.3491 106.963 12.5742C106.963 12.6072 106.963 12.6403 106.979 12.6734V12.7727C107.081 13.3351 107.151 13.903 107.188 14.4735Z" fill="#C82D93" stroke="#231F20" stroke-width="0.188612" stroke-miterlimit="10"/>
<path d="M98.6928 20.9002V20.8837C98.6378 20.7921 98.5965 20.6928 98.5704 20.5892C98.5077 20.2977 98.5402 19.9939 98.663 19.7222L98.7325 19.57C98.7524 19.5336 98.7689 19.4939 98.7921 19.4575C98.8152 19.4211 98.8384 19.3715 98.8649 19.3318C99.0973 18.9698 99.3716 18.6366 99.6822 18.3391C100.08 17.9558 100.504 17.6019 100.953 17.2802C101.251 17.0684 101.555 16.8633 101.86 16.668L102.137 16.5026C102.551 16.2511 102.958 16.0294 103.335 15.8408C103.6 15.7084 103.878 15.5827 104.169 15.4569L104.388 15.3643L104.609 15.2783L104.834 15.1889C105.549 14.919 106.281 14.6979 107.025 14.5271L107.2 14.4874C107.176 13.9466 107.122 13.4075 107.038 12.8726V12.7601C107.038 12.727 107.038 12.6939 107.038 12.6609C106.985 12.4292 106.926 12.1347 106.84 11.6682V11.6351C106.81 11.5093 106.777 11.3803 106.744 11.2512C106.737 11.1975 106.723 11.1451 106.701 11.0957C104.758 11.4596 102.896 12.1666 101.201 13.1837C98.1402 15.0367 95.2779 18.2762 95.8769 19.2887C95.8988 19.3271 95.9267 19.3617 95.9596 19.3913H95.9827L96.1184 19.4542L97.2302 20.0995L98.6928 20.9002Z" fill="#FC97D9" stroke="#231F20" stroke-width="0.188612" stroke-miterlimit="10"/>
<path d="M118.408 49.9997C118.689 49.5167 119.061 49.0929 119.503 48.7522C113.417 38.4745 107.334 28.1879 101.254 17.8926C101.049 18.0382 100.831 18.2036 100.593 18.3889C100.391 18.5512 100.201 18.727 100.023 18.9151L118.408 49.9997Z" fill="white" stroke="#FC97D9" stroke-width="0.281264" stroke-miterlimit="10"/>
<path d="M122.78 50.6542C124.679 49.6152 125.933 48.2386 125.616 47.5537V47.5206C125.566 47.4423 125.5 47.375 125.423 47.3227C125.347 47.2704 125.26 47.2341 125.169 47.2162C125.123 47.2091 125.078 47.1991 125.033 47.1864L124.881 47.1665H124.749C124.6 47.1637 124.452 47.1726 124.305 47.193L124.11 47.2195L123.892 47.2625L123.782 47.2857L123.521 47.3518C123.428 47.375 123.342 47.4048 123.246 47.4346C123.15 47.4643 123.058 47.4908 122.965 47.5272L122.757 47.6066C122.312 47.7765 121.88 47.9766 121.463 48.2055C121.317 48.2817 121.182 48.3644 121.046 48.4438C120.91 48.5232 120.877 48.5497 120.798 48.5993L120.593 48.735C120.543 48.7648 120.497 48.7979 120.45 48.8309L120.248 48.9765C120.106 49.0751 119.972 49.1858 119.848 49.3074C119.389 49.6592 119.003 50.0976 118.713 50.5979C118.641 50.7072 118.597 50.8321 118.583 50.9622C118.569 51.0923 118.586 51.2238 118.634 51.3458C118.651 51.3754 118.671 51.4031 118.693 51.4285C118.723 51.4627 118.756 51.4938 118.793 51.5212C119.365 51.9414 121.059 51.6006 122.78 50.6542Z" fill="#C82D93" stroke="#231F20" stroke-width="0.0926516" stroke-miterlimit="10"/>
<path d="M95.9069 19.3753C95.874 19.3457 95.8461 19.3111 95.8241 19.2727C95.2252 18.2602 98.0875 15.0207 101.148 13.1677C102.843 12.1518 104.705 11.4469 106.648 11.0863C106.605 10.9374 106.542 10.7223 106.453 10.4742C106.025 9.10588 105.428 7.79641 104.676 6.57617C104.285 6.70191 103.901 6.83758 103.531 6.98318L103.107 7.15194L102.611 7.36371L102.485 7.42327L102.028 7.62843C101.439 7.90638 100.88 8.19096 100.374 8.46229C98.0279 9.66345 94.4575 11.4999 91.8633 15.4112C91.9595 15.614 92.0701 15.8098 92.1942 15.9969C92.2372 16.0763 92.2868 16.1524 92.3365 16.2318C92.4949 16.4828 92.6673 16.7247 92.8527 16.9565C92.899 17.016 92.9453 17.0723 92.9983 17.1285C93.0512 17.1848 93.0942 17.2443 93.1405 17.2973C93.2398 17.4065 93.3391 17.5091 93.4383 17.6083C93.5376 17.7076 93.5542 17.7274 93.617 17.7837L93.7924 17.9458L93.9711 18.1014C94.1568 18.2668 94.3536 18.4194 94.5601 18.558L94.7487 18.6871C94.8976 18.7863 95.0432 18.879 95.1822 18.9584L95.3543 19.0577H95.3774C95.5065 19.1305 95.6322 19.1966 95.7513 19.2529L95.9069 19.3753Z" fill="#44C6B6" stroke="#231F20" stroke-width="0.188612" stroke-miterlimit="10"/>
<path d="M91.8422 15.4197C94.4364 11.4985 98.0068 9.66202 100.353 8.47079C100.876 8.19945 101.435 7.91488 102.024 7.63692L102.481 7.43176L102.606 7.3722L103.103 7.16043L103.52 7.0016C103.89 6.856 104.274 6.72033 104.664 6.59459C104.277 5.98974 103.834 5.42252 103.341 4.90039C102.531 5.18451 101.739 5.51598 100.968 5.89309C100.419 6.15119 99.9029 6.4126 99.4098 6.66739C97.1233 7.84208 93.672 9.61569 91.0977 13.335C91.1307 13.4872 91.1671 13.6361 91.2102 13.7883C91.23 13.8611 91.2465 13.9306 91.2697 14.0001C91.2929 14.0696 91.3094 14.1424 91.3359 14.2119C91.3624 14.2814 91.3922 14.3939 91.4252 14.4832C91.5461 14.8031 91.6853 15.1158 91.8422 15.4197Z" fill="#27A797" stroke="#231F20" stroke-width="0.188612" stroke-miterlimit="10"/>
<path d="M91.1105 13.2899C93.6849 9.58379 97.1362 7.81017 99.4227 6.63548C99.9157 6.38069 100.415 6.11928 100.981 5.86118C101.752 5.48407 102.544 5.1526 103.354 4.86848C102.996 4.49449 102.609 4.15032 102.196 3.83939C100.568 2.64083 98.6278 1.94075 96.6101 1.82422C95.2997 2.39889 94.1375 3.26459 93.2117 4.35559L93.0033 4.61369C92.9338 4.70304 92.8676 4.78907 92.8047 4.88172C92.7832 4.90368 92.7643 4.92812 92.7485 4.95452C92.6724 5.06041 92.6029 5.16629 92.5301 5.28542C92.4573 5.40454 92.3878 5.50712 92.3216 5.61632C92.2554 5.72551 92.2058 5.81816 92.1529 5.91743C92.1496 5.92709 92.1496 5.93756 92.1529 5.94721C92.1032 6.03325 92.0602 6.11597 92.0172 6.20201C91.9742 6.28804 91.908 6.41378 91.8617 6.5329C91.8153 6.65203 91.7392 6.80424 91.683 6.94322C91.5804 7.18477 91.491 7.42964 91.4116 7.68112L91.3719 7.80024C91.3124 7.99217 91.2561 8.19071 91.2098 8.38594L91.1635 8.57786C91.1304 8.70691 91.1039 8.83927 91.0807 8.97163C91.0609 9.04773 91.051 9.12715 91.0377 9.20656C91.0245 9.28598 90.998 9.44812 90.9815 9.56724C90.9649 9.68637 90.9451 9.81211 90.9451 9.93454C90.9416 9.96201 90.9416 9.9898 90.9451 10.0173C90.9451 10.1364 90.9219 10.2588 90.9153 10.3813V11.4831C90.9104 11.6371 90.9203 11.7911 90.9451 11.9431C90.9627 12.0526 90.9737 12.1631 90.9782 12.274C90.9782 12.3931 90.998 12.4494 91.0113 12.5354C91.0245 12.6214 91.0477 12.7968 91.0741 12.9259C91.1006 13.0549 91.084 13.174 91.1105 13.2899Z" fill="#44C6B6" stroke="#231F20" stroke-width="0.188612" stroke-miterlimit="10"/>
<path d="M100.629 17.1537C100.454 17.2794 100.272 17.4184 100.087 17.5739C99.9014 17.7294 99.7293 17.8816 99.5771 18.0305L97.5156 16.4985C97.7042 16.2801 97.9193 16.0484 98.1609 15.8168C98.4024 15.5852 98.5414 15.4628 98.7234 15.3105L100.629 17.1537Z" fill="white" stroke="#FC97D9" stroke-width="0.281264" stroke-miterlimit="10"/>
<path d="M98.3263 14.923C98.1542 15.0752 97.9954 15.234 97.8067 15.4028C97.5486 15.6476 97.3071 15.8925 97.0788 16.1341L94.0742 13.156C94.5018 12.685 94.9903 12.2733 95.5268 11.9316L98.3263 14.923Z" fill="white" stroke="#26A797" stroke-width="0.281264" stroke-miterlimit="10"/>
<path d="M95.0708 3.22266C94.3786 4.62354 94.0454 6.17453 94.1013 7.73611C94.1183 8.12884 94.1603 8.52009 94.227 8.90749C94.0669 8.99089 93.9132 9.086 93.7671 9.19207C93.3673 9.4798 93.0193 9.83338 92.738 10.2377C92.6333 9.60583 92.6066 8.96349 92.6586 8.32511C92.866 6.40143 93.7159 4.60384 95.0708 3.22266Z" fill="white" stroke="#26A797" stroke-width="0.281264" stroke-miterlimit="10"/>
<path d="M90.0285 72.1495L35.3144 125.815L14.2031 118.376L68.9139 64.7109L89.1549 71.8451L90.0285 72.1495Z" fill="#E9DFEE"/>
<path d="M83.3555 27.0976C86.0589 27.0744 88.0873 26.9388 88.8252 26.7667L89.583 26.5913C90.5459 26.3762 90.6683 26.363 90.8404 26.2604C91.0476 26.1144 91.2236 25.9286 91.3583 25.7139C91.4929 25.4991 91.5835 25.2597 91.6246 25.0096C92.1309 23.1665 92.5081 18.6895 92.3294 18.6895C92.1507 18.6895 92.5842 23.9243 93.0574 24.9236C93.287 25.4128 93.6351 25.837 94.07 26.1578C94.4294 26.3855 94.8294 26.5416 95.248 26.6178C95.7344 26.6972 98.3319 26.9024 101.906 27.0347C98.3915 27.3656 95.8171 27.6733 95.1057 27.7792C94.6323 27.861 94.1885 28.0652 93.8185 28.3715C93.7433 28.4439 93.6757 28.5237 93.6166 28.6098C93.5022 28.794 93.4205 28.9967 93.3751 29.2087C93.3056 29.5793 93.0442 31.8956 92.7331 35.0789C92.5909 34.1226 92.4949 33.3549 92.4353 32.8718C92.1938 30.8864 92.1673 30.1352 91.6246 29.265C91.3988 28.9062 91.1211 28.5829 90.8007 28.3054C90.4363 28.1143 90.0567 27.9538 89.6657 27.8256C88.8949 27.582 88.0916 27.4571 87.2832 27.455C86.3964 27.4119 85.1192 27.3292 83.3555 27.0976Z" fill="white" stroke="#010101" stroke-width="0.0926516" stroke-miterlimit="10"/>
<path d="M24.4688 138.56C28.5818 138.527 31.6658 138.318 32.7842 138.073C32.9364 138.044 33.1879 137.981 33.9391 137.809C35.4016 137.478 35.5936 137.458 35.8517 137.312C36.5333 136.929 36.8444 136.168 37.0429 135.416C37.8106 132.614 38.3665 125.82 38.115 125.82C37.8635 125.82 38.5055 133.762 39.2202 135.301C39.5704 136.042 40.0991 136.686 40.7589 137.173C41.3119 137.508 41.9242 137.733 42.5623 137.835C43.3002 137.954 47.2511 138.265 52.6845 138.471C47.3371 138.964 43.4193 139.44 42.3439 139.602C42.3439 139.602 41.0832 139.797 40.3784 140.479C40.2627 140.589 40.1595 140.711 40.0706 140.843C39.8957 141.123 39.7725 141.433 39.7066 141.756C39.5974 142.316 39.1937 145.836 38.7139 150.691C38.4989 149.235 38.3533 148.07 38.2606 147.335C37.8933 144.327 37.8536 143.176 37.0297 141.856C36.6862 141.311 36.2648 140.819 35.7789 140.396C35.2243 140.105 34.6466 139.861 34.0516 139.665C32.8806 139.294 31.6599 139.103 30.4315 139.099C29.0914 139.046 27.149 138.921 24.4688 138.56Z" fill="white" stroke="#010101" stroke-width="0.0926516" stroke-miterlimit="10"/>
</svg>
