<svg width="128" height="126" viewBox="0 0 128 126" fill="none" xmlns="http://www.w3.org/2000/svg">
<circle cx="107.638" cy="19.9869" r="19.4992" transform="rotate(-179.554 107.638 19.9869)" fill="#ECE3E3"/>
<path d="M108.366 39.5153C93.0086 39.5153 84.2081 48.3159 83.0001 62.4658L61.6027 43.4842C61.6027 43.4842 73.8545 42.6214 80.5843 36.0641C87.3142 29.5069 88.3337 16.9024 88.3337 16.9024L108.366 39.5153Z" fill="#ECE3E3"/>
<circle cx="63.1364" cy="105.929" r="19.4992" transform="rotate(-179.554 63.1364 105.929)" fill="#ECE3E3"/>
<circle cx="63.4691" cy="62.7904" r="19.4992" transform="rotate(-179.554 63.4691 62.7904)" fill="#ECE3E3"/>
<circle cx="63.1364" cy="105.929" r="19.4992" transform="rotate(-179.554 63.1364 105.929)" fill="#ECE3E3"/>
<circle cx="63.4691" cy="62.7904" r="19.4992" transform="rotate(-179.554 63.4691 62.7904)" fill="#ECE3E3"/>
<path d="M78.9307 94.49L47.5258 94.2453C52.5982 86.5164 52.6045 82.0384 47.8529 74.4029L78.9628 74.6453C73.3345 81.8492 74.1475 88.2404 78.9307 94.49Z" fill="#ECE3E3"/>
<circle cx="19.827" cy="63.7125" r="19.4992" transform="rotate(-179.554 19.827 63.7125)" fill="#ECE3E3"/>
<circle cx="19.9956" cy="20.2286" r="19.4992" transform="rotate(-179.554 19.9956 20.2286)" fill="#ECE3E3"/>
<path d="M35.4487 52.1013L4.3903 51.6868C9.46271 43.9578 9.2951 39.651 4.54357 32.0156L35.4321 32.0837C30.4943 39.639 30.8781 44.3011 35.4487 52.1013Z" fill="#ECE3E3"/>
<circle cx="19.6506" cy="105.93" r="19.4992" transform="rotate(-179.554 19.6506 105.93)" fill="#ECE3E3"/>
<circle cx="63.1362" cy="19.6505" r="19.4992" transform="rotate(-179.554 63.1362 19.6505)" fill="#ECE3E3"/>
<circle cx="107.31" cy="63.1361" r="19.4992" transform="rotate(-179.554 107.31 63.1361)" fill="#ECE3E3"/>
</svg>
