<svg width="141" height="175" viewBox="0 0 141 175" fill="none" xmlns="http://www.w3.org/2000/svg">
<path d="M46.4487 78.4935L46.0886 78.7809L38.0488 85.2091L37.9688 85.271V81.724L43.6403 76.3872L45.823 74.3281L46.1904 76.7728L46.4487 78.4935Z" fill="#FFCC42" stroke="#231F20" stroke-width="0.281264" stroke-linejoin="round"/>
<path d="M68.753 80.24L68.6984 80.4074L68.582 80.2109L68.753 80.24Z" fill="#FEDB7C" stroke="#231F20" stroke-width="0.281264" stroke-linejoin="round"/>
<path d="M123.399 89.8273C122.621 96.2955 121.841 102.767 121.06 109.243L120.413 108.744L107.68 98.9221L102.696 95.0768L101.816 105.037L100.029 125.202L92.3897 110.211L78.6675 83.3227L77.5616 89.0415L74.2147 106.223L73.0505 103.542L66.8661 89.3544L65.7129 86.7169L65.0871 85.2617L57.8731 101.814L54.6427 109.232L53.1875 85.6764L54.9774 78.1096L58.6153 62.7684L68.5941 80.2305L68.7069 80.4269L68.7614 80.2596L74.1346 63.627L80.9121 82.1222L81.6397 84.1412L82.731 82.4023L96.4169 60.4766L107.673 86.2258L108.484 88.0884L108.913 86.4149L113.279 68.9529L116.76 87.6227C117.791 90.7149 118.825 93.8035 119.863 96.8885L123.399 89.8273Z" fill="#B38F2F"/>
<path d="M132.639 83.0368L130.689 89.7524L129.816 92.7609L129.183 89.5196C128.776 87.4387 128.368 85.3493 127.961 83.2514L130.013 78.3984L132.639 83.0368Z" fill="#FEDB7C" stroke="#231F20" stroke-width="0.281264" stroke-linejoin="round"/>
<path d="M128.229 84.6094L129.183 89.5169L126.68 89.1277L128.229 84.6094Z" fill="#FEDB7C" stroke="#231F20" stroke-width="0.281264" stroke-linejoin="round"/>
<path d="M137.953 90.8642L130.691 89.7547L132.641 83.0391L137.953 90.8642Z" fill="#FEDB7C" stroke="#231F20" stroke-width="0.281264" stroke-linejoin="round"/>
<path d="M111.679 166.986C104.159 171.206 95.4937 173.752 86.6172 174.502C88.9819 173.877 91.278 173.016 93.471 171.933C95.71 170.791 97.8429 169.452 99.8447 167.932C105.734 163.326 109.245 155.683 110.511 152.711C117.423 136.46 120.082 111.966 120.421 108.735C120.635 108.903 120.85 109.07 121.068 109.234L121.796 103.504L122.265 70.4573C124.574 76.8164 126.893 83.1754 129.221 89.5345L129.854 92.7759L130.05 78.3988L129.461 55.8438C133.267 67.2694 136.119 78.9909 137.988 90.8878C139.203 98.6111 139.807 102.471 139.913 107.142C140.047 115.946 140.698 150.63 111.679 166.986Z" fill="#FFCC42" stroke="#231F20" stroke-width="0.281264" stroke-linejoin="round"/>
<path d="M95.4531 47.5721L103.093 47.5066L110.732 47.4666L126.012 47.4375H127.358L126.114 47.9504L113.184 53.2946L106.723 55.9539L100.255 58.5914V58.0639L109.787 62.3239C112.966 63.7354 116.127 65.1833 119.3 66.613L120.362 67.0932L119.205 67.0131L108.913 66.2856L98.6217 65.5216L108.935 66.0273L119.231 66.5766L119.132 66.9731C115.946 65.5762 112.748 64.201 109.568 62.7895L100.019 58.5732L99.3966 58.2967L100.026 58.0384L106.498 55.3718L112.966 52.7307L125.895 47.4739L125.997 47.9868L110.718 47.8268L103.078 47.7176L95.4531 47.5721Z" fill="#855AA5"/>
<path d="M62.2308 68.3709L54.8859 70.4555L47.5337 72.5182L32.8146 76.5781L31.5195 76.9419L32.5818 76.1161L43.6229 67.556L49.1489 63.2815L54.6894 59.0288L54.824 59.5453L44.5069 57.9592C41.0654 57.439 37.6312 56.8678 34.1934 56.3403L33.0438 56.1621L34.1825 55.9293L44.2959 53.892L54.4166 51.8984L44.3468 54.143L34.2698 56.3258V55.9183C37.7149 56.4204 41.16 56.9006 44.6015 57.4208L54.9259 58.9596L55.5989 59.0579L55.0459 59.4799L49.5236 63.7726L43.9867 68.0326L32.9056 76.5417L32.6764 76.076L47.4427 72.1871L54.8422 70.2699L62.2308 68.3709Z" fill="#855AA5"/>
<path d="M62.2317 40.3636L47.3745 26.2739L46.8906 25.8192L47.5345 25.9974L65.5095 31.0105L65.193 31.1924L73.1709 -0.541195L73.5384 -2L73.7748 -0.515729L78.7406 30.6467L78.2458 30.6212L83.0916 12.8973L83.2298 12.3771L83.4008 12.8864L89.7962 31.8217L83.0952 12.9919L83.4044 12.9809L78.7333 30.7522L78.4314 31.8981L78.2422 30.7267L73.1673 -0.417506L73.7676 -0.39204L65.6878 31.3161L65.6223 31.5707L65.3713 31.498L47.4436 26.3139L47.6037 26.0374L62.2317 40.3636Z" fill="#855AA5"/>
<path d="M86.9001 75.4172C85.9221 76.0503 84.8733 76.5667 83.7752 76.956L83.375 77.087V77.0506C83.4368 76.9378 83.5023 76.8105 83.5678 76.6614C83.618 76.5426 83.6617 76.4211 83.6988 76.2976C83.7854 75.9811 83.8414 75.6571 83.8661 75.3299V75.1262C85.307 74.6782 86.5699 73.787 87.4749 72.5796C87.539 72.5758 87.6025 72.5648 87.6641 72.5469C87.9442 73.6419 87.304 74.5004 86.9001 75.4172Z" fill="#C82D93" stroke="#231F20" stroke-width="0.188612" stroke-miterlimit="10"/>
<path d="M83.8797 75.1412V75.3413C83.855 75.6685 83.799 75.9925 83.7124 76.309C83.6542 76.4909 83.5814 76.6728 83.5814 76.6728C83.516 76.822 83.4505 76.9493 83.3886 77.0621V77.0985C80.1145 78.1098 76.8404 77.5896 73.5662 75.425C73.1624 74.5082 72.5367 73.6497 72.795 72.5547C72.8566 72.5729 72.9201 72.5839 72.9842 72.5874C75.0396 75.5851 80.1072 76.4473 83.8797 75.1412Z" fill="#FC97D9" stroke="#231F20" stroke-width="0.188612" stroke-miterlimit="10"/>
<path d="M86.9027 77.731C86.0987 78.8651 84.9324 79.6915 83.5958 80.0739L83.3594 80.1466V78.6151C83.4685 78.586 83.574 78.5569 83.6795 78.5205C84.8882 78.1896 85.9925 77.5561 86.8882 76.6797C86.8954 77.0289 86.8991 77.3782 86.9027 77.731Z" fill="#C82D93" stroke="#231F20" stroke-width="0.188612" stroke-miterlimit="10"/>
<path d="M83.381 78.6151V80.1466C79.9031 81.198 75.2684 80.3867 73.5586 77.731V76.6797C75.6649 78.8843 79.9759 79.5282 83.381 78.6151Z" fill="#FC97D9" stroke="#231F20" stroke-width="0.188612" stroke-miterlimit="10"/>
<path d="M86.8999 75.4141V76.6801C86.0042 77.5564 84.8999 78.19 83.6912 78.5208C83.5857 78.5572 83.4802 78.5863 83.3711 78.6154V77.0839L83.7713 76.9529C84.8705 76.5636 85.9205 76.0471 86.8999 75.4141Z" fill="#C82D93" stroke="#231F20" stroke-width="0.188612" stroke-miterlimit="10"/>
<path d="M83.381 77.0875V78.6191C79.9904 79.5286 75.6795 78.8883 73.5586 76.6837V75.4141C76.8327 77.5786 80.1068 78.0988 83.381 77.0875Z" fill="#FC97D9" stroke="#231F20" stroke-width="0.188612" stroke-miterlimit="10"/>
<path d="M86.8557 78.8047V79.8342C86.8303 80.0047 86.7902 80.1727 86.7356 80.3363C85.9862 81.5128 84.8145 82.3577 83.4615 82.6973L83.3633 82.7264V81.3112L83.5379 81.253C84.964 80.7546 86.179 79.9324 86.8557 78.8047Z" fill="#C82D93" stroke="#231F20" stroke-width="0.188612" stroke-miterlimit="10"/>
<path d="M83.3511 81.3077V82.7228C82.8887 82.8465 82.4199 82.9448 81.9468 83.0175C79.4221 83.4031 75.2058 83.0721 73.6051 80.1072C73.5805 80.0125 73.561 79.9165 73.5469 79.8198V78.4883H73.576V78.7429C75.264 81.6351 79.9023 82.399 83.3511 81.3077Z" fill="#FC97D9" stroke="#231F20" stroke-width="0.188612" stroke-miterlimit="10"/>
<path d="M86.727 80.3281C86.5899 80.7098 86.3757 81.0592 86.0979 81.3546C85.82 81.65 85.4844 81.885 85.1118 82.0452C84.5724 82.3141 84.0143 82.5439 83.442 82.7328L83.3438 82.7655V82.7182L83.442 82.6891C84.799 82.3521 85.9749 81.5069 86.727 80.3281Z" fill="#C82D93" stroke="#231F20" stroke-width="0.188612" stroke-miterlimit="10"/>
<path d="M82.58 84.4025C81.9543 85.8577 81.6669 86.3088 81.5286 86.3888C81.4263 86.4476 81.3352 86.5239 81.2594 86.6144C81.1988 86.6871 81.1486 86.7679 81.1103 86.8545C81.0411 86.9891 80.8629 87.1419 80.3827 87.2183C79.706 87.2441 79.0335 87.1016 78.4255 86.8036C77.6724 86.4725 76.8903 86.1888 76.17 85.7995C75.2678 85.3047 74.6966 84.5626 74.8167 83.4494C74.9611 83.4155 75.1112 83.4129 75.2568 83.4417C75.4023 83.4706 75.5401 83.5303 75.6607 83.6168C77.7568 84.679 80.1599 84.9701 82.449 84.4389L82.58 84.4025Z" fill="#FC97D9" stroke="#231F20" stroke-width="0.188612" stroke-miterlimit="10"/>
<path d="M83.4602 86.219C82.98 86.4446 82.4707 86.6119 81.9723 86.8047C81.4745 87.0487 80.9325 87.1898 80.3789 87.2194C80.8627 87.143 81.041 86.9902 81.1065 86.8556C81.1449 86.7691 81.195 86.6883 81.2556 86.6155C81.3314 86.5251 81.4225 86.4487 81.5248 86.39C81.6631 86.31 81.9505 85.8552 82.5762 84.4037C83.3212 84.2155 84.0452 83.9522 84.7371 83.6179C84.8573 83.5306 84.995 83.4704 85.1407 83.4415C85.2865 83.4126 85.4367 83.4157 85.5811 83.4506C85.7157 85.0185 84.6316 85.6733 83.4602 86.219Z" fill="#C82D93" stroke="#231F20" stroke-width="0.188612" stroke-miterlimit="10"/>
<path d="M86.903 77.7344V78.7384L86.8702 78.7966C86.1899 79.9317 84.9749 80.7539 83.5379 81.245L83.3633 81.3032V80.15L83.5997 80.0772C84.9347 79.6936 86.0995 78.8674 86.903 77.7344Z" fill="#C82D93" stroke="#231F20" stroke-width="0.188612" stroke-miterlimit="10"/>
<path d="M83.36 80.1471V81.3003C79.9112 82.3917 75.2729 81.635 73.5703 78.7538V77.7461C75.2474 80.3872 79.8821 81.1985 83.36 80.1471Z" fill="#FC97D9" stroke="#231F20" stroke-width="0.188612" stroke-miterlimit="10"/>
<path d="M86.8824 81.3061L86.8533 81.3498V81.1206C86.2094 81.7718 85.7037 82.5285 84.816 82.9796C84.3547 83.2128 83.8754 83.4087 83.3827 83.5653H83.3281V82.6995L83.4263 82.6704C84.7794 82.3308 85.951 81.4859 86.7005 80.3093C86.755 80.2257 86.8023 80.142 86.8496 80.0547C86.8824 80.4803 86.8824 80.895 86.8824 81.3061Z" fill="#C82D93" stroke="#231F20" stroke-width="0.188612" stroke-miterlimit="10"/>
<path d="M83.3459 82.7151V83.5809C81.7712 84.0422 80.1139 84.149 78.493 83.8938C76.5685 83.6282 74.7204 82.9625 73.5781 81.1617V80.0703L73.6036 80.1103C75.2043 83.0643 79.4243 83.3845 81.9453 83.0207C82.4174 82.9443 82.885 82.8423 83.3459 82.7151Z" fill="#FC97D9" stroke="#231F20" stroke-width="0.188612" stroke-miterlimit="10"/>
<path d="M86.8538 81.3505C86.8481 81.7813 86.7279 82.2028 86.5054 82.5717C86.2829 82.9406 85.9662 83.2436 85.5878 83.4496C84.8943 83.9283 84.136 84.3056 83.3359 84.5701V83.5697H83.3796C83.8685 83.4125 84.3442 83.2167 84.802 82.984C85.6897 82.5329 86.1953 81.7762 86.8393 81.125C86.8502 81.2014 86.8538 81.2742 86.8538 81.3505Z" fill="#C82D93" stroke="#231F20" stroke-width="0.188612" stroke-miterlimit="10"/>
<path d="M83.3357 83.5811V84.5816C81.923 85.0532 80.4215 85.1975 78.9448 85.0034C77.4681 84.8093 76.0549 84.2819 74.8121 83.4611C74.3993 83.2361 74.0602 82.8967 73.8356 82.4837C73.611 82.0707 73.5105 81.6016 73.5461 81.1328L73.5715 81.1728C74.7138 82.9918 76.5619 83.6393 78.4864 83.9049C80.1069 84.1567 81.7631 84.0461 83.3357 83.5811Z" fill="#FC97D9" stroke="#231F20" stroke-width="0.188612" stroke-miterlimit="10"/>
<path d="M91.0607 66.3945C90.4313 67.093 89.7256 67.7187 89.1144 68.4317C88.6065 68.9837 88.2144 69.6318 87.9613 70.3379C87.7082 71.044 87.5993 71.7937 87.6411 72.5426C87.5574 72.6372 87.4774 72.7354 87.401 72.8336C86.7752 74.4816 85.2655 75.1 83.763 75.533C80.5289 76.4643 77.353 76.3297 74.4136 74.4416C73.7908 74.094 73.3094 73.5392 73.053 72.8736C72.9693 72.7609 72.882 72.6554 72.7874 72.5499C72.863 71.0935 72.3818 69.6628 71.4414 68.5482C79.3575 69.3994 86.8334 65.1758 89.5 58.5693C91.6246 53.3053 90.5223 46.9753 86.7279 42.0859C88.5855 42.936 90.2433 44.1677 91.5934 45.7008C92.9435 47.2339 93.9556 49.0341 94.564 50.9843C96.4084 56.8159 95.0988 61.9199 91.0607 66.3945Z" fill="#855AA5" stroke="#010101" stroke-width="0.0926516" stroke-miterlimit="10"/>
<path d="M89.4755 58.5797C86.8089 65.1862 79.3329 69.4098 71.4168 68.5586C71.0066 68.0393 70.5565 67.5528 70.0708 67.1034C69.3853 66.4654 68.7538 65.7719 68.1827 65.0298C66.5504 62.9274 65.5103 60.4266 65.1705 57.7867C64.8101 55.498 65.0508 53.155 65.869 50.9874C67.7316 44.8684 73.5814 40.6484 80.2024 40.6484C81.3568 40.6476 82.5076 40.777 83.633 41.0341C84.6916 41.2737 85.721 41.6274 86.7034 42.0891C90.4941 46.9857 91.5855 53.3157 89.4755 58.5797Z" fill="#BBA0CC" stroke="#231F20" stroke-width="0.188612" stroke-miterlimit="10"/>
<path d="M67.8845 53.66C66.9205 58.7895 69.7762 62.8348 70.3729 63.6461C69.8381 60.3193 70.1254 56.9122 71.2096 53.7218C72.7183 49.4149 75.5826 45.7132 79.3731 43.1719C73.4505 44.2014 68.874 48.425 67.8845 53.66Z" fill="white"/>
<path d="M83.332 84.5703V84.5892V84.5703Z" fill="#FC97D9" stroke="#231F20" stroke-width="0.330898" stroke-miterlimit="10"/>
<path d="M101.156 30.308C105.987 30.2716 109.614 30.0242 110.931 29.7405C111.11 29.7005 111.404 29.6277 112.288 29.4276C114.009 29.0384 114.227 29.0165 114.537 28.8419C115.337 28.3908 115.693 27.4959 115.937 26.6119C116.839 23.3196 117.512 15.3161 117.196 15.3125C116.879 15.3089 117.654 24.6692 118.495 26.4591C118.911 27.3258 119.536 28.0757 120.314 28.6418C120.963 29.0392 121.683 29.3084 122.434 29.4349C123.3 29.5768 127.946 29.9406 134.334 30.1843C128.051 30.7591 123.453 31.3193 122.176 31.5122C122.176 31.5122 120.696 31.7413 119.866 32.5453C119.729 32.6725 119.606 32.8153 119.502 32.971C119.291 33.3046 119.145 33.6748 119.069 34.0623C118.942 34.7208 118.465 38.8608 117.92 44.5505C117.669 42.8406 117.494 41.4728 117.389 40.607C116.956 37.0709 116.908 35.714 115.933 34.1642C115.53 33.5219 115.034 32.9432 114.46 32.4471C113.808 32.1051 113.129 31.8179 112.43 31.5886C111.055 31.1529 109.62 30.9296 108.177 30.9264C105.827 30.8544 103.483 30.6479 101.156 30.308Z" fill="white" stroke="#231F20" stroke-width="0.188612" stroke-miterlimit="10"/>
<path d="M99.8418 167.932C97.884 169.515 95.7443 170.858 93.4682 171.934C91.2753 173.018 88.9792 173.88 86.6144 174.506C77.9317 175.264 69.1858 174.235 60.9161 171.483C58.0746 170.533 55.3152 169.352 52.6653 167.954C22.6197 152.046 23.2673 115.706 23.4164 107.121C23.6092 96.52 26.0503 85.1078 30.2412 74.3359L37.9681 74.5797V85.2642L38.0481 85.2024L46.0879 78.8033L46.4517 78.5159L48.2125 77.1044L50.8427 75.0053L52.4798 75.0526L52.6507 77.7847L52.7235 78.9779L53.1491 85.7081L54.6043 109.264L57.8384 101.846L65.0524 85.2933L65.6781 86.7485L66.8314 89.386L73.0158 103.574L74.1799 106.255L77.5268 89.0731L78.651 83.3362L92.3732 110.224L100.013 125.216L101.799 105.051L102.661 95.0903L107.645 98.9355L121.036 109.245C121.533 119.773 120.114 130.303 116.849 140.324C116.849 140.324 110.701 159.012 99.8418 167.932Z" fill="#FEDB7C" stroke="#231F20" stroke-width="0.281264" stroke-linejoin="round"/>
<path d="M42.8645 142.062C41.0455 142.557 36.6254 131.363 36.2507 130.395C35.1084 127.485 30.6629 115.538 31.7251 96.6244C32.2345 87.5041 32.6856 80.6867 35.6468 74.7969L37.6913 74.866V85.5615L37.7714 85.4996L45.0181 79.7117C43.3976 83.9656 42.0977 88.3348 41.1292 92.7827C35.5159 119.183 45.4365 141.334 42.8645 142.062Z" fill="white"/>
<path d="M1 142.363C4.90349 142.33 7.83565 142.133 8.90156 141.901C9.04344 141.872 9.26535 141.81 9.99294 141.65C11.3826 141.337 11.5609 141.315 11.8119 141.177C12.4631 140.813 12.7505 140.085 12.9433 139.358C13.6709 136.695 14.2202 130.23 13.9619 130.227C13.7036 130.223 14.3257 137.786 15.0133 139.234C15.3442 139.939 15.844 140.551 16.4684 141.017C16.9936 141.336 17.5753 141.553 18.1819 141.653C18.884 141.77 22.6383 142.064 27.8005 142.261C22.7075 142.726 19.0041 143.181 17.9782 143.352C17.2941 143.46 16.6505 143.746 16.1119 144.182C16.0002 144.29 15.9024 144.413 15.8209 144.545C15.6474 144.809 15.524 145.103 15.4571 145.411C15.3516 145.942 14.9696 149.289 14.5258 153.888C14.3257 152.505 14.1838 151.399 14.0965 150.701C13.7327 147.841 13.7109 146.746 12.9251 145.491C12.6005 144.973 12.2008 144.506 11.7391 144.105C11.213 143.827 10.6641 143.595 10.0984 143.41C8.98507 143.058 7.82462 142.878 6.65696 142.876C5.40552 142.828 3.54654 142.697 1 142.363Z" fill="white" stroke="#231F20" stroke-width="0.188612" stroke-miterlimit="10"/>
</svg>
