<svg width="50" height="29" viewBox="0 0 50 29" fill="none" xmlns="http://www.w3.org/2000/svg">
<path d="M40.0776 15.983V3.68294C40.0776 3.44828 40.2087 3.33095 40.4052 3.33095H41.2569C41.65 3.33095 41.65 3.56561 41.65 3.68294C41.65 8.98228 41.5845 15.6076 41.5845 15.983V18.9162C41.5845 19.014 41.6238 19.2096 41.781 19.2096C42.5454 19.2291 44.1133 19.2565 44.2706 19.2096C44.4278 19.1626 44.4671 18.9945 44.4671 18.9162V15.983V15.904V3.68294C44.4671 3.44828 44.5982 3.33095 44.7947 3.33095H45.6464C46.0395 3.33095 46.0395 3.56561 46.0395 3.68294C46.0395 8.98228 45.974 15.6076 45.974 15.983V18.9162C45.974 19.014 46.0133 19.2096 46.1705 19.2096H48.7911C48.8566 19.19 48.9876 19.104 48.9876 18.9162V1.98168C48.9876 0.526805 47.8084 0.163086 47.3498 0.163086H44.6637C43.7465 0.163086 43.4189 0.749728 43.1568 1.10171C42.8293 0.749728 42.5017 0.163086 41.5845 0.163086H38.5053C38.0248 0.202196 37.064 0.620668 37.064 1.98168V18.9162C37.064 19.014 37.1033 19.2096 37.2605 19.2096H39.8811C39.9466 19.19 40.0776 19.104 40.0776 18.9162V15.983Z" fill="#ED386F"/>
<path d="M0 25.4885V0.539202C0 0.0695688 0.25159 0.162574 0.390457 0.186977C1.30152 0.347089 2.87179 1.12035 3.12365 2.71126V23.199C3.17572 23.5747 3.40565 23.6687 3.51411 23.6687H4.3601C4.62041 23.6687 4.72887 23.3556 4.75056 23.199V2.71126C4.75056 2.16463 5.15735 0.759937 7.33272 0.185523C7.6581 0.185524 7.6581 0.361636 7.6581 0.361636V25.487C7.6581 26.9546 6.50761 27.8367 5.53147 27.8367H2.14751C0.911066 27.6605 0 26.3104 0 25.4885Z" fill="#ED386F"/>
<path fill-rule="evenodd" clip-rule="evenodd" d="M18.3423 2.72101C18.3641 1.86837 18.9948 0.163086 20.5608 0.163086H23.6928C24.367 0.201842 25.7155 0.767687 25.7155 2.72101V15.6269C25.7155 15.8207 25.5328 16.3129 25.063 16.4989C25.498 16.7315 26.4333 17.464 26.4333 18.7662C26.4333 20.394 25.1283 21.1497 24.019 21.266H21.2786C21.0176 21.266 21.0176 21.545 21.0176 21.7311C21.0176 21.8473 21.0176 22.1961 21.2786 22.1961C21.3003 22.1961 21.3674 22.1967 21.468 22.1975C21.9709 22.2015 23.3122 22.2123 24.019 22.1961C24.8238 22.2155 26.4333 22.5798 26.4333 24.8122C26.4333 27.0446 24.8238 27.7577 24.019 27.8352H9.66413C9.66413 27.8352 9.33789 27.8585 9.33789 27.7189C9.33789 27.5445 9.85988 25.6842 11.3606 25.5098H22.8445C23.0403 25.5098 23.1708 25.4982 23.1708 24.9866C23.1708 24.5215 23.0403 24.5215 22.8445 24.5215H21.2786H19.7778C18.6033 24.4053 17.8203 23.2771 17.8203 21.7311C17.8203 20.1614 18.7338 19.1731 20.0388 19.115H22.8445C23.0403 19.115 23.1708 18.9639 23.1708 18.5918C23.1708 18.2197 23.0403 18.1267 22.8445 18.1267H20.6913C19.9736 18.0686 18.8904 17.4175 18.4728 16.4408C18.3684 16.0687 18.3423 15.7432 18.3423 15.6269V2.72101ZM21.2615 4.1191V14.3873C21.2615 14.5829 21.3268 14.7144 21.5878 14.7144H22.3708C22.3833 14.7144 22.397 14.7149 22.4116 14.7154C22.549 14.7198 22.7622 14.7268 22.7622 14.3873C22.7622 14.3034 22.7655 13.9708 22.7706 13.4541C22.7882 11.6587 22.8275 7.64113 22.8275 4.1191C22.8275 4.00175 22.8275 3.76705 22.436 3.76705H21.5878C21.392 3.76705 21.2615 3.8844 21.2615 4.1191Z" fill="#ED386F"/>
<path d="M37.0674 21.5259L37.0679 23.1037C37.0679 23.2393 37.0529 23.6395 37.3218 23.5544C38.0613 23.4342 38.4404 22.6529 38.4124 22.3524V22.1787C38.4124 21.758 38.7485 21.8265 38.9166 21.8265H39.6488H40.4891C40.8924 21.8265 40.9933 22.1771 40.9933 22.3524L40.9933 23.5544C40.9933 24.0954 40.6567 24.17 40.4886 24.17H37.9077H37.6556C37.4595 24.17 37.0674 24.2751 37.0674 24.6959V27.3109C37.0954 27.4862 37.3027 27.8368 37.9077 27.8368H42.4213C42.5558 27.7767 42.5894 27.6866 42.5894 27.6114C42.455 26.8301 41.637 26.4344 41.2449 26.4094H38.664C38.4623 26.4094 38.4119 26.3092 38.4119 26.2591V25.6581C38.4119 25.5378 38.58 25.5078 38.664 25.5078H41.2449C42.0516 25.5078 42.3098 24.6563 42.3378 24.3057L42.3378 21.6011C42.3378 20.7596 41.609 20.4741 41.2449 20.4741H38.3279C37.3195 20.4741 37.0674 21.1753 37.0674 21.5259Z" fill="#ED386F"/>
<path d="M43.6609 21.6011L43.6604 23.1037C43.6604 23.2531 43.694 23.5525 43.8284 23.5544C44.7024 23.6145 45.0329 22.9284 45.0889 22.5777C45.0889 22.5026 45.0894 22.5543 45.0894 22.2538C45.0894 21.9533 45.2575 21.8281 45.3415 21.8031H47.1518C47.3535 21.8031 47.4039 22.0535 47.4039 22.1787C47.4039 22.329 47.4034 22.4275 47.4034 22.728C47.4034 23.0285 47.2353 23.1037 47.1513 23.1037H46.6471C46.2438 23.1037 45.5091 23.4042 45.5091 23.5544V24.8316C45.5091 25.072 46.479 25.1322 46.6471 25.1322H47.1513C47.353 25.1322 47.4034 25.3826 47.4034 25.5078V26.1088C47.4034 26.3493 47.2353 26.4094 47.1513 26.4094H45.257C45.0553 26.4094 45.0049 26.209 45.0049 26.1088V25.5078C44.9209 24.9819 43.9965 24.6062 43.8284 24.6062C43.694 24.6062 43.6604 24.8567 43.6604 24.9819V26.6347C43.6604 27.5964 44.3887 27.8368 44.7528 27.8368H48.0757C48.8152 27.8368 49 27.1356 49 26.785V25.3575C49 24.6814 48.6639 24.3809 48.1597 24.1555C48.6639 23.9301 49 23.5544 49 23.1037V21.5259C49 20.6845 48.3838 20.4741 48.0757 20.4741H44.7528C43.8789 20.4741 43.6609 21.2505 43.6609 21.6011Z" fill="#ED386F"/>
<path d="M37.0674 21.5259L37.0679 23.1037C37.0679 23.2393 37.0529 23.6395 37.3218 23.5544C38.0613 23.4342 38.4404 22.6529 38.4124 22.3524V22.1787C38.4124 21.758 38.7485 21.8265 38.9166 21.8265H39.6488H40.4891C40.8924 21.8265 40.9933 22.1771 40.9933 22.3524L40.9933 23.5544C40.9933 24.0954 40.6567 24.17 40.4886 24.17H37.9077H37.6556C37.4595 24.17 37.0674 24.2751 37.0674 24.6959V27.3109C37.0954 27.4862 37.3027 27.8368 37.9077 27.8368H42.4213C42.5558 27.7767 42.5894 27.6866 42.5894 27.6114C42.455 26.8301 41.637 26.4344 41.2449 26.4094H38.664C38.4623 26.4094 38.4119 26.3092 38.4119 26.2591V25.6581C38.4119 25.5378 38.58 25.5078 38.664 25.5078H41.2449C42.0516 25.5078 42.3098 24.6563 42.3378 24.3057L42.3378 21.6011C42.3378 20.7596 41.609 20.4741 41.2449 20.4741H38.3279C37.3195 20.4741 37.0674 21.1753 37.0674 21.5259Z" stroke="#ED386F" stroke-width="0.667418"/>
<path d="M43.6609 21.6011L43.6604 23.1037C43.6604 23.2531 43.694 23.5525 43.8284 23.5544C44.7024 23.6145 45.0329 22.9284 45.0889 22.5777C45.0889 22.5026 45.0894 22.5543 45.0894 22.2538C45.0894 21.9533 45.2575 21.8281 45.3415 21.8031H47.1518C47.3535 21.8031 47.4039 22.0535 47.4039 22.1787C47.4039 22.329 47.4034 22.4275 47.4034 22.728C47.4034 23.0285 47.2353 23.1037 47.1513 23.1037H46.6471C46.2438 23.1037 45.5091 23.4042 45.5091 23.5544V24.8316C45.5091 25.072 46.479 25.1322 46.6471 25.1322H47.1513C47.353 25.1322 47.4034 25.3826 47.4034 25.5078V26.1088C47.4034 26.3493 47.2353 26.4094 47.1513 26.4094H45.257C45.0553 26.4094 45.0049 26.209 45.0049 26.1088V25.5078C44.9209 24.9819 43.9965 24.6062 43.8284 24.6062C43.694 24.6062 43.6604 24.8567 43.6604 24.9819V26.6347C43.6604 27.5964 44.3887 27.8368 44.7528 27.8368H48.0757C48.8152 27.8368 49 27.1356 49 26.785V25.3575C49 24.6814 48.6639 24.3809 48.1597 24.1555C48.6639 23.9301 49 23.5544 49 23.1037V21.5259C49 20.6845 48.3838 20.4741 48.0757 20.4741H44.7528C43.8789 20.4741 43.6609 21.2505 43.6609 21.6011Z" stroke="#ED386F" stroke-width="0.667418"/>
<path fill-rule="evenodd" clip-rule="evenodd" d="M28.0708 5.99996C28.0924 5.25958 28.7203 3.77881 30.279 3.77881H33.3964C34.0675 3.81246 35.4098 4.30381 35.4098 5.99996V27.5047C35.4098 27.572 35.3708 27.7168 35.2149 27.7571C35.0591 27.7975 33.5047 27.774 32.7469 27.7571C32.5911 27.7571 32.5521 27.5889 32.5521 27.5047V25.8068C32.5521 25.6049 32.2923 25.588 32.1624 25.6049H31.3831C31.1233 25.6049 31.0583 25.7395 31.0583 25.8068V27.5047C31.0583 27.6663 30.9284 27.7403 30.8635 27.7571H28.2656C28.1098 27.7571 28.0708 27.5889 28.0708 27.5047V5.99996ZM31.0061 7.51932V22.9085C31.0061 23.0687 31.0749 23.1765 31.3501 23.1765H32.1758C32.189 23.1765 32.2035 23.1769 32.2189 23.1772C32.3637 23.1809 32.5886 23.1866 32.5886 22.9085C32.5886 22.8438 32.5916 22.3181 32.5964 21.4879C32.6145 18.3685 32.6574 10.9492 32.6574 7.51932C32.6574 7.42317 32.6574 7.23087 32.2446 7.23087H31.3501C31.1437 7.23087 31.0061 7.32702 31.0061 7.51932Z" fill="#ED386F"/>
<path d="M28.0713 2.16656C28.53 0.471313 29.6439 0.163086 30.3647 0.163086H31.8391H33.392C34.7026 0.163086 35.4103 1.85834 35.4103 2.16656C35.4103 2.41315 35.1481 2.6289 35.0171 2.6289H28.53C28.1368 2.6289 28.0713 2.32068 28.0713 2.16656Z" fill="#ED386F"/>
<path fill-rule="evenodd" clip-rule="evenodd" d="M9.39307 0.707763V23.4486V23.4487C9.3931 23.7426 9.39314 24.0952 9.65378 24.1039H13.76C15.3243 24.1039 16.4323 22.9283 16.4323 21.9289V2.76522C16.4323 0.707763 14.6725 0.178704 13.76 0.178704C13.4248 0.178704 12.9614 0.175473 12.4562 0.17195C11.4662 0.165046 10.3155 0.157022 9.65378 0.169996C9.45825 0.189591 9.39307 0.331543 9.39307 0.707763ZM13.6835 5.24041L12.4675 9.67091L15.2617 10.35L13.6835 5.24041ZM11.9794 16.8122L15.2329 11.7572L13.2598 19.3572L11.9794 16.8122ZM12.1223 10.6364L11.9834 11.0566L11.8792 11.3719L11.8104 11.0414L11.5465 9.77571C11.1062 10.7881 10.6984 11.725 10.2808 12.6843L12.7701 14.0984L12.1223 10.6364ZM12.507 10.2851L15.217 10.93L13.21 14.0807L12.9364 12.6032L12.507 10.2851ZM11.7592 16.3161L12.7448 14.7537L10.3733 13.4195C10.6748 14.0486 10.9764 14.6792 11.2849 15.3244L11.2963 15.3483L11.7592 16.3161Z" fill="#ED386F"/>
</svg>
