<svg width="25" height="28" viewBox="0 0 25 28" fill="none" xmlns="http://www.w3.org/2000/svg">
<path d="M0.481259 18.6783L11.4402 1.5485C12.1933 0.371446 13.7579 0.0277102 14.9349 0.780739C16.112 1.53377 16.1391 3.2831 16.746 4.5417C16.9247 4.91207 17.2407 5.27065 17.7436 5.59239C18.2162 5.89475 18.6349 6.02452 19.0064 6.03297C20.4033 6.06474 21.9418 5.26347 23.1189 6.0165C24.2959 6.76953 24.6397 8.33417 23.8867 9.51122L12.9277 26.641C12.1747 27.8181 10.61 28.1618 9.43297 27.4088C8.25592 26.6558 8.29333 24.9969 7.87788 23.6628C7.75002 23.2522 7.45773 22.8562 6.91925 22.5117C6.34776 22.1461 5.82408 22.0354 5.35651 22.09C3.9686 22.2519 2.42607 22.9261 1.24902 22.173C0.0719677 21.42 -0.271769 19.8554 0.481259 18.6783Z" fill="#1C1C1C"/>
</svg>
