<svg width="146" height="158" viewBox="0 0 146 158" fill="none" xmlns="http://www.w3.org/2000/svg">
<path d="M70.0623 149.488C68.1738 143.586 66.2847 137.685 64.395 131.785C64.4033 131.385 64.5402 130.999 64.7854 130.684C65.0305 130.368 65.3708 130.14 65.7558 130.033C66.1407 129.926 66.5499 129.946 66.9226 130.09C67.2953 130.234 67.6117 130.495 67.8248 130.833L71.9716 148.968L70.0623 149.488Z" fill="#821F38" stroke="#231F20" stroke-width="0.85" stroke-linejoin="round"/>
<path d="M66.3185 132.664C69.1258 131.918 71.1668 130.43 70.8772 129.339C70.5876 128.249 68.077 127.969 65.2697 128.715C62.4623 129.46 60.4213 130.949 60.7109 132.039C61.0005 133.13 63.5111 133.409 66.3185 132.664Z" fill="#EF4570" stroke="#231F20" stroke-width="0.85" stroke-linejoin="round"/>
<path d="M65.9039 131.08C68.1726 130.477 69.8219 129.274 69.5878 128.393C69.3536 127.511 67.3247 127.285 65.056 127.887C62.7874 128.49 61.1381 129.693 61.3722 130.575C61.6064 131.456 63.6353 131.682 65.9039 131.08Z" fill="#EF4570" stroke="#231F20" stroke-width="0.85" stroke-linejoin="round"/>
<path d="M65.6191 130.038C66.401 129.831 66.9695 129.416 66.8888 129.112C66.8081 128.809 66.1089 128.731 65.3269 128.938C64.545 129.146 63.9765 129.561 64.0572 129.864C64.1379 130.168 64.8372 130.246 65.6191 130.038Z" fill="#821F38" stroke="#231F20" stroke-width="0.85" stroke-linejoin="round"/>
<path d="M47.9517 36.8901C50.1137 36.5035 51.721 36.1168 52.2906 35.8867L52.8758 35.6426C53.6177 35.338 53.721 35.3091 53.8394 35.21C54.164 34.9449 54.2534 34.517 54.2954 34.1017C54.4494 32.5579 54.1403 28.9192 53.9975 28.9413C53.8547 28.9634 54.9111 33.097 55.4277 33.8388C55.6792 34.1984 56.0164 34.4897 56.4087 34.6863C56.7295 34.8153 57.0723 34.8809 57.4181 34.8795C57.8189 34.8766 59.9272 34.6773 62.8114 34.3074C60.0375 35.0464 58.0202 35.6473 57.4632 35.8325C57.0934 35.9577 56.7631 36.1781 56.5056 36.4715C56.4553 36.5393 56.4125 36.6123 56.3781 36.6894C56.3105 36.853 56.273 37.0274 56.2675 37.2044C56.2584 37.5081 56.3622 39.4003 56.5516 41.9928C56.3091 41.2449 56.1256 40.6448 56.0135 40.2648C55.5484 38.7138 55.4208 38.1109 54.8637 37.4888C54.6347 37.2321 54.369 37.0106 54.0752 36.8317C53.7574 36.7279 53.4313 36.6515 53.1005 36.6032C52.4498 36.5124 51.789 36.5216 51.1411 36.6306C50.4292 36.7271 49.3943 36.8336 47.9517 36.8901Z" fill="white" stroke="#231F20" stroke-width="0.57" stroke-miterlimit="10"/>
<path d="M84.5949 99.6784C86.7573 99.294 88.3641 98.9051 88.9341 98.6772L89.5194 98.4331C90.2612 98.1285 90.3645 98.0996 90.4829 98.0005C90.8076 97.7354 90.8992 97.3072 90.9389 96.8922C91.0926 95.3462 90.7835 91.7075 90.641 91.7318C90.4986 91.7561 91.5616 95.8886 92.0756 96.6286C92.3267 96.9879 92.663 97.2792 93.0545 97.4764C93.3753 97.6054 93.718 97.671 94.0638 97.6697C94.4647 97.6667 96.5729 97.4675 99.4567 97.0954C96.6828 97.8343 94.666 98.4375 94.109 98.6226C93.7397 98.7479 93.4094 98.9674 93.151 99.2595C93.1007 99.328 93.0581 99.4018 93.0239 99.4796C92.9558 99.6423 92.9182 99.8161 92.9128 99.9923C92.9041 100.298 93.0079 102.19 93.1973 104.783C92.9548 104.035 92.7713 103.435 92.6592 103.055C92.1941 101.504 92.0665 100.901 91.5095 100.279C91.281 100.022 91.0152 99.8002 90.721 99.6218C90.4031 99.5172 90.0769 99.44 89.7459 99.3912C89.0951 99.3016 88.4345 99.3108 87.7864 99.4185C87.0724 99.5154 86.0378 99.6241 84.5949 99.6784Z" fill="white" stroke="#231F20" stroke-width="0.57" stroke-miterlimit="10"/>
<path d="M19.8865 128.172L15.48 114.652L108.416 51.3375L117.619 79.4914L109.95 80.0635L103.237 86.1215L94.7066 87.4178L89.4918 93.297L80.4405 94.6866L74.6435 101.211L66.2843 101.912L60.9114 108.014L54.7117 107.229L50.6378 112.605L44.3458 113.064L40.9659 117.55L35.6794 116.963L32.568 120.524L28.6011 120.706L25.0876 124.938L23.0801 124.604L19.8865 128.172Z" fill="#E0D9EC" stroke="#231F20" stroke-width="0.85" stroke-miterlimit="10"/>
<path d="M100.339 48.0247L102.563 52.381L116.042 78.7529L118.219 83.0158L122.275 80.3557L123.182 79.7501L147.423 63.847L131.614 32.8707L129.579 28.8678L100.339 48.0247ZM124.247 70.9525L123.436 71.4854L120.191 73.6169L108.522 50.7879L127.589 38.2923L129.624 42.2952L139.247 61.1097L124.247 70.9525Z" fill="#EF4570" stroke="#231F20" stroke-width="0.85" stroke-linejoin="round"/>
<path d="M108.518 50.7748L127.596 38.2796L129.638 42.2813L114.619 52.1183L108.518 50.7748Z" fill="#B42F50" stroke="#231F20" stroke-width="0.85" stroke-miterlimit="10"/>
<path d="M108.517 50.7739L114.618 52.1174L124.243 70.9494L123.428 71.4831L120.189 73.6091L108.517 50.7739Z" fill="#B42F50" stroke="#231F20" stroke-width="0.85" stroke-miterlimit="10"/>
<path d="M118.22 83.0112L122.274 80.3515L123.182 79.7525L147.417 63.8435L153.167 65.4182L154.66 65.8267L125.841 84.9524L118.22 83.0112Z" fill="#B42F50" stroke="#231F20" stroke-width="0.85" stroke-miterlimit="10"/>
<path d="M131.615 32.8733L129.573 28.8716L135.197 30.5264L135.948 30.748L136.916 31.0338L154.666 65.8262L153.173 65.4177L147.423 63.843L131.615 32.8733Z" fill="#B42F50" stroke="#231F20" stroke-width="0.85" stroke-miterlimit="10"/>
<path d="M66.2889 101.773C67.1027 94.0151 67.9176 86.2551 68.7336 78.4927L88.277 65.183C87.3441 73.9876 86.4123 82.7905 85.4817 91.5916C85.4187 92.333 85.3564 93.0742 85.2948 93.8153L80.3804 94.5381L74.6354 101.209L66.2889 101.773Z" fill="white"/>
<path d="M44.8491 62.6784C45.7241 62.4078 45.7386 59.9417 44.8815 57.1702C44.0244 54.3987 42.6204 52.3713 41.7454 52.6419C40.8704 52.9125 40.8559 55.3786 41.713 58.1501C42.5701 60.9216 43.9742 62.949 44.8491 62.6784Z" fill="white" stroke="#231F20" stroke-width="0.85" stroke-miterlimit="10"/>
<path d="M44.8776 57.1636L65.529 123.928C66.3849 126.7 66.3699 129.165 65.496 129.436C64.6221 129.707 63.2168 127.68 62.3609 124.908L41.7096 58.1434C42.5676 60.915 43.9711 62.9443 44.8472 62.6732C45.7233 62.4021 45.7313 59.936 44.8776 57.1636Z" fill="#808285" stroke="#231F20" stroke-width="0.85" stroke-miterlimit="10"/>
<path d="M36.4079 36.1618C40.8459 34.7918 43.3668 30.1927 42.0384 25.8893C40.71 21.586 36.0353 19.2081 31.5973 20.578C27.1593 21.948 24.6384 26.5471 25.9668 30.8505C27.2952 35.1538 31.9698 37.5318 36.4079 36.1618Z" fill="#FEDB7C" stroke="#231F20" stroke-width="0.848724" stroke-linejoin="round"/>
<path d="M47.7112 74.5972C43.5041 75.7654 39.7851 75.3914 39.2609 73.6925L26.0039 30.8328C26.2502 31.6296 27.1979 32.1355 28.5701 32.3278L41.2268 73.2401C41.6703 74.6776 44.3655 75.1698 47.7112 74.5972Z" fill="#FFCC42" stroke="#231F20" stroke-width="0.85" stroke-linejoin="round"/>
<path d="M48.3043 74.421C48.1072 74.4816 47.9097 74.5401 47.7137 74.5938C44.3676 75.1642 41.6728 74.6742 41.2308 73.2455L28.5741 32.3332C30.1266 32.5511 32.2236 32.365 34.4563 31.7454C34.6546 31.6913 34.8521 31.6328 35.0514 31.5718C39.4937 30.1967 42.6501 27.6404 42.1009 25.8601L42.7859 28.093L55.3477 68.7126C55.9053 70.4892 52.7493 73.0476 48.3043 74.421Z" fill="#FEDB7C" stroke="#231F20" stroke-width="0.85" stroke-linejoin="round"/>
<path d="M40.5592 31.9585C40.8252 31.7995 41.0807 31.6233 41.3239 31.4312C41.5737 31.2302 41.8093 31.0123 42.029 30.7789C45.8172 42.9654 49.6022 55.1509 53.384 67.3355C53.3053 67.6036 53.1776 67.8547 53.0074 68.0762C52.8085 68.3357 52.5568 68.55 52.269 68.7049L40.5592 31.9585Z" fill="white" stroke="#231F20" stroke-width="0.85" stroke-miterlimit="10"/>
<path d="M49.4814 74.8396L64.6756 124.804" stroke="white" stroke-width="1.98" stroke-miterlimit="10"/>
</svg>
